<svg width="24" height="24" viewBox="0 0 24 24" fill="none" xmlns="http://www.w3.org/2000/svg">
<path fill-rule="evenodd" clip-rule="evenodd" d="M15.1371 5.22258C14.7466 4.83206 14.1134 4.83206 13.7229 5.22258C13.3324 5.6131 13.3324 6.24627 13.7229 6.63679L18.0858 10.9997H3.5C2.94772 10.9997 2.5 11.4474 2.5 11.9997C2.5 12.552 2.94772 12.9997 3.5 12.9997H18.0858L13.7229 17.3626C13.3324 17.7531 13.3324 18.3863 13.7229 18.7768C14.1134 19.1673 14.7466 19.1673 15.1371 18.7768L21.2071 12.7068C21.3946 12.5193 21.5 12.2649 21.5 11.9997C21.5 11.7345 21.3946 11.4801 21.2071 11.2926L15.1371 5.22258Z" fill="#005375"/>
</svg>
