<svg width="37" height="36" viewBox="0 0 37 36" fill="none" xmlns="http://www.w3.org/2000/svg">
<rect x="0.5" width="36" height="36" rx="18" fill="#005375"/>
<path d="M24.12 16.7516C23.69 16.7516 23.35 16.4016 23.35 15.9816C23.35 15.6116 22.98 14.8416 22.36 14.1716C21.75 13.5216 21.08 13.1416 20.52 13.1416C20.09 13.1416 19.75 12.7916 19.75 12.3716C19.75 11.9516 20.1 11.6016 20.52 11.6016C21.52 11.6016 22.57 12.1416 23.49 13.1116C24.35 14.0216 24.9 15.1516 24.9 15.9716C24.9 16.4016 24.55 16.7516 24.12 16.7516Z" fill="white"/>
<path d="M27.7303 16.75C27.3003 16.75 26.9603 16.4 26.9603 15.98C26.9603 12.43 24.0703 9.55 20.5303 9.55C20.1003 9.55 19.7603 9.2 19.7603 8.78C19.7603 8.36 20.1003 8 20.5203 8C24.9203 8 28.5003 11.58 28.5003 15.98C28.5003 16.4 28.1503 16.75 27.7303 16.75Z" fill="white"/>
<path d="M17.55 20.95L15.7 22.8C15.31 23.19 14.69 23.19 14.29 22.81C14.18 22.7 14.07 22.6 13.96 22.49C12.93 21.45 12 20.36 11.17 19.22C10.35 18.08 9.69 16.94 9.21 15.81C8.74 14.67 8.5 13.58 8.5 12.54C8.5 11.86 8.62 11.21 8.86 10.61C9.1 10 9.48 9.44 10.01 8.94C10.65 8.31 11.35 8 12.09 8C12.37 8 12.65 8.06 12.9 8.18C13.16 8.3 13.39 8.48 13.57 8.74L15.89 12.01C16.07 12.26 16.2 12.49 16.29 12.71C16.38 12.92 16.43 13.13 16.43 13.32C16.43 13.56 16.36 13.8 16.22 14.03C16.09 14.26 15.9 14.5 15.66 14.74L14.9 15.53C14.79 15.64 14.74 15.77 14.74 15.93C14.74 16.01 14.75 16.08 14.77 16.16C14.8 16.24 14.83 16.3 14.85 16.36C15.03 16.69 15.34 17.12 15.78 17.64C16.23 18.16 16.71 18.69 17.23 19.22C17.33 19.32 17.44 19.42 17.54 19.52C17.94 19.91 17.95 20.55 17.55 20.95Z" fill="white"/>
<path d="M28.4696 24.331C28.4696 24.611 28.4196 24.901 28.3196 25.181C28.2896 25.261 28.2596 25.341 28.2196 25.421C28.0496 25.781 27.8296 26.121 27.5396 26.441C27.0496 26.981 26.5096 27.371 25.8996 27.621C25.8896 27.621 25.8796 27.631 25.8696 27.631C25.2796 27.871 24.6396 28.001 23.9496 28.001C22.9296 28.001 21.8396 27.761 20.6896 27.271C19.5396 26.781 18.3896 26.121 17.2496 25.291C16.8596 25.001 16.4696 24.711 16.0996 24.401L19.3696 21.131C19.6496 21.341 19.8996 21.501 20.1096 21.611C20.1596 21.631 20.2196 21.661 20.2896 21.691C20.3696 21.721 20.4496 21.731 20.5396 21.731C20.7096 21.731 20.8396 21.671 20.9496 21.561L21.7096 20.811C21.9596 20.561 22.1996 20.371 22.4296 20.251C22.6596 20.111 22.8896 20.041 23.1396 20.041C23.3296 20.041 23.5296 20.081 23.7496 20.171C23.9696 20.261 24.1996 20.391 24.4496 20.561L27.7596 22.911C28.0196 23.091 28.1996 23.301 28.3096 23.551C28.4096 23.801 28.4696 24.051 28.4696 24.331Z" fill="white"/>
</svg>
