<svg width="26" height="30" viewBox="0 0 26 30" fill="none" xmlns="http://www.w3.org/2000/svg">
<path d="M11.35 27.5C11.35 28.4113 12.0887 29.15 13 29.15C13.9113 29.15 14.65 28.4113 14.65 27.5L11.35 27.5ZM14.1667 1.33327C13.5224 0.688909 12.4776 0.688909 11.8333 1.33327L1.33274 11.8338C0.688374 12.4782 0.688374 13.5229 1.33274 14.1673C1.9771 14.8116 3.02183 14.8116 3.66619 14.1673L13 4.83345L22.3338 14.1673C22.9782 14.8116 24.0229 14.8116 24.6673 14.1673C25.3116 13.5229 25.3116 12.4782 24.6673 11.8338L14.1667 1.33327ZM14.65 27.5L14.65 2.5L11.35 2.5L11.35 27.5L14.65 27.5Z" fill="#005375"/>
</svg>
