<svg width="207" height="120" viewBox="0 0 207 120" fill="none" xmlns="http://www.w3.org/2000/svg">
<g clip-path="url(#clip0_837_12612)">
<path d="M72.3977 59.7257L100.839 0H119.971L108.028 25.1367L147.885 25.1858V16.9135L137.476 16.9381L129.526 0H164.184V42.4189L156.21 42.4312L164.5 59.5044H145.227L137.031 42.3328L99.8317 42.3206L91.5535 59.7257H72.3977Z" fill="white"/>
<path d="M43.9565 59.7257H63.0304L91.366 0L72.257 0.0122918L43.9565 59.7257Z" fill="white"/>
<path d="M47.8323 67.7882L46.5326 71.4142C46.5326 71.4511 46.5443 71.4757 46.556 71.4757C47.0478 71.5003 47.481 71.5003 47.844 71.5003C48.1953 71.5003 48.5934 71.488 49.0383 71.4511C49.05 71.4511 49.0617 71.4511 49.0617 71.4388C49.0734 71.4265 49.0734 71.4142 49.0852 71.4019V71.3897L47.8323 67.7882ZM45.0573 73.7865C46.2984 70.4186 47.2117 67.9725 47.7855 66.4361C47.8206 66.3623 47.9026 66.2763 48.0314 66.1657C48.1602 66.055 48.2538 66.0059 48.3124 66.0059C48.3241 66.0059 48.3475 66.0182 48.3592 66.0304C48.3709 66.0427 48.3943 66.055 48.3943 66.055L51.2747 73.9832C51.5089 74.6224 51.626 74.9543 51.6377 74.9666C51.6962 75.1264 51.8485 75.237 52.0826 75.3353C52.3168 75.4214 52.4925 75.4705 52.5978 75.4705C52.6213 75.5197 52.6447 75.5934 52.6447 75.6918C52.6447 75.7901 52.6447 75.8639 52.633 75.9007C51.6845 75.8516 51.1693 75.827 51.0757 75.827C50.8766 75.827 50.701 75.827 50.5371 75.8393C50.3731 75.8516 50.1858 75.8639 49.975 75.8761C49.7643 75.8884 49.5886 75.9007 49.4364 75.9007C49.4013 75.8639 49.3896 75.7901 49.3896 75.6795C49.3896 75.5811 49.413 75.5074 49.4481 75.4582C49.5535 75.4582 49.7057 75.4459 49.8814 75.3968C50.057 75.3476 50.1858 75.3107 50.2443 75.2616C50.2795 75.2247 50.3029 75.1509 50.3029 75.0526C50.3029 74.9174 50.2209 74.6101 50.057 74.1307C49.8931 73.6513 49.7409 73.1965 49.5769 72.7786L49.331 72.1517C49.3076 72.1149 49.2725 72.0903 49.2491 72.0903C49.132 72.078 48.6636 72.078 47.844 72.078C47.2469 72.078 46.7434 72.0903 46.3101 72.1272L46.2399 72.1763C45.9706 72.9138 45.7598 73.5161 45.6076 73.9832C45.4788 74.3888 45.4086 74.7453 45.4086 75.0403C45.4086 75.1264 45.4554 75.2001 45.5374 75.2616C45.6193 75.323 45.7364 75.3599 45.8535 75.3968C45.9823 75.4214 46.0877 75.4459 46.1813 75.4582C46.275 75.4705 46.3336 75.4705 46.3921 75.4705C46.4155 75.4951 46.4272 75.5566 46.4272 75.6672C46.4389 75.7778 46.4272 75.8516 46.4155 75.9007C46.275 75.9007 46.1345 75.8884 45.9706 75.8761C45.8067 75.8639 45.6662 75.8516 45.5256 75.8393C45.3851 75.827 45.2329 75.827 45.0456 75.827C44.8465 75.827 44.6826 75.827 44.5304 75.8393C44.3782 75.8516 44.2142 75.8639 44.0386 75.8761C43.863 75.8884 43.6873 75.9007 43.5234 75.9007C43.5 75.8761 43.5 75.8147 43.5 75.7041C43.5 75.5934 43.5117 75.5197 43.5234 75.4705C43.6405 75.4705 43.7927 75.4459 43.9918 75.3968C44.1908 75.3476 44.3079 75.2738 44.3782 75.1878C44.5889 74.9051 44.8114 74.438 45.0573 73.7865Z" fill="white"/>
<path d="M58.4524 68.7592C58.4524 68.0709 58.2767 67.53 57.9255 67.1244C57.5742 66.7311 57.0239 66.5221 56.2745 66.5221C55.8413 66.5221 55.6071 66.5713 55.572 66.6696C55.5251 66.7925 55.5017 67.1613 55.5017 67.7882L55.5134 70.898H56.2745C56.8599 70.898 57.3634 70.7013 57.8084 70.2957C58.2416 69.9023 58.4524 69.3861 58.4524 68.7592ZM56.8951 66.055C57.2229 66.055 57.5625 66.1165 57.8903 66.2271C58.2182 66.3377 58.5343 66.4975 58.8153 66.7065C59.0963 66.9154 59.3305 67.1859 59.5062 67.5177C59.6818 67.8496 59.7755 68.2184 59.7755 68.624C59.7755 69.1403 59.5764 69.6196 59.19 70.099C58.7919 70.5661 58.347 70.898 57.8435 71.0701C58.4524 72.1395 59.2134 73.2949 60.1267 74.5609C60.3375 74.8559 60.56 75.0649 60.8058 75.2001C61.04 75.3353 61.3562 75.4214 61.7309 75.4459C61.7543 75.4951 61.766 75.5811 61.7543 75.6795C61.7426 75.7778 61.7309 75.8516 61.7191 75.8761C60.7941 75.8761 60.1736 75.8147 59.8457 75.7041C59.5413 75.5934 59.3071 75.4582 59.1549 75.2984C59.0729 75.2247 59.0027 75.1386 58.9324 75.0403C58.8153 74.8682 58.5109 74.4011 58.0191 73.6513C57.5391 72.9015 57.0941 72.1886 56.6726 71.5249C56.6023 71.4019 56.4501 71.3528 56.2511 71.3528H55.5017V74.1184C55.5017 74.6961 55.5251 75.0649 55.572 75.2124C55.5954 75.2861 55.7242 75.3353 55.9701 75.3845C56.216 75.4336 56.4033 75.4459 56.5555 75.4459C56.5789 75.4828 56.6023 75.5566 56.6023 75.6672C56.6023 75.7655 56.5906 75.8393 56.5555 75.8884C55.5837 75.8393 55.0333 75.8147 54.9046 75.8147C54.764 75.8147 54.202 75.8393 53.2302 75.8884C53.195 75.8516 53.1833 75.7778 53.1833 75.6672C53.1833 75.5689 53.2068 75.4951 53.2302 75.4459C53.3707 75.4459 53.5697 75.4214 53.8156 75.3845C54.0615 75.3353 54.1903 75.2861 54.2137 75.2124C54.2489 75.0895 54.2723 74.7207 54.284 74.1184L54.2723 67.7759C54.2723 67.1982 54.2489 66.8294 54.202 66.6819C54.1786 66.6082 54.0498 66.559 53.8039 66.5098C53.558 66.4607 53.3707 66.4484 53.2185 66.4484C53.195 66.4115 53.1716 66.3377 53.1716 66.2271C53.1716 66.1288 53.1833 66.055 53.2185 66.0059C54.1903 66.055 54.7406 66.0796 54.8928 66.0796C55.0568 66.0796 55.3495 66.0796 55.7944 66.0673C56.2277 66.055 56.6023 66.055 56.8951 66.055Z" fill="white"/>
<path d="M65.4893 67.7882L64.1896 71.4142C64.1896 71.4511 64.2013 71.4757 64.213 71.4757C64.7048 71.5003 65.138 71.5003 65.501 71.5003C65.8523 71.5003 66.2504 71.488 66.6953 71.4511C66.707 71.4511 66.7187 71.4511 66.7187 71.4388C66.7304 71.4265 66.7304 71.4142 66.7421 71.4019V71.3897L65.4893 67.7882ZM62.7143 73.7865C63.9554 70.4186 64.8687 67.9725 65.4424 66.4361C65.4776 66.3623 65.5595 66.2763 65.6883 66.1657C65.8171 66.055 65.9108 66.0059 65.9693 66.0059C65.9811 66.0059 66.0045 66.0182 66.0162 66.0304C66.0279 66.0427 66.0513 66.055 66.0513 66.055L68.9317 73.9832C69.1659 74.6224 69.283 74.9543 69.2947 74.9666C69.3532 75.1264 69.5054 75.237 69.7396 75.3353C69.9738 75.4214 70.1494 75.4705 70.2548 75.4705C70.2782 75.5197 70.3016 75.5934 70.3016 75.6918C70.3016 75.7901 70.3016 75.8639 70.2899 75.9007C69.3415 75.8516 68.8263 75.827 68.7327 75.827C68.5336 75.827 68.358 75.827 68.194 75.8393C68.0301 75.8516 67.8428 75.8639 67.632 75.8761C67.4213 75.8884 67.2456 75.9007 67.0934 75.9007C67.0583 75.8639 67.0466 75.7901 67.0466 75.6795C67.0466 75.5811 67.07 75.5074 67.1051 75.4582C67.2105 75.4582 67.3627 75.4459 67.5383 75.3968C67.714 75.3476 67.8428 75.3107 67.9013 75.2616C67.9364 75.2247 67.9599 75.1509 67.9599 75.0526C67.9599 74.9174 67.8779 74.6101 67.714 74.1307C67.5501 73.6513 67.3978 73.1965 67.2339 72.7786L66.988 72.1517C66.9646 72.1149 66.9295 72.0903 66.9061 72.0903C66.789 72.078 66.3206 72.078 65.501 72.078C64.9038 72.078 64.4004 72.0903 63.9671 72.1272L63.8969 72.1763C63.6276 72.9138 63.4168 73.5161 63.2646 73.9832C63.1358 74.3888 63.0655 74.7453 63.0655 75.0403C63.0655 75.1264 63.1124 75.2001 63.1943 75.2616C63.2763 75.323 63.3934 75.3599 63.5105 75.3968C63.6393 75.4214 63.7447 75.4459 63.8383 75.4582C63.932 75.4705 63.9905 75.4705 64.0491 75.4705C64.0725 75.4951 64.0842 75.5566 64.0842 75.6672C64.0959 75.7778 64.0842 75.8516 64.0725 75.9007C63.932 75.9007 63.7915 75.8884 63.6276 75.8761C63.4636 75.8639 63.3231 75.8516 63.1826 75.8393C63.0421 75.827 62.8899 75.827 62.7026 75.827C62.5035 75.827 62.3396 75.827 62.1874 75.8393C62.0352 75.8516 61.8712 75.8639 61.6956 75.8761C61.52 75.8884 61.3443 75.9007 61.1804 75.9007C61.157 75.8761 61.157 75.8147 61.157 75.7041C61.157 75.5934 61.1687 75.5197 61.1804 75.4705C61.2975 75.4705 61.4497 75.4459 61.6488 75.3968C61.8478 75.3476 61.9649 75.2738 62.0352 75.1878C62.2459 74.9051 62.4684 74.438 62.7143 73.7865Z" fill="white"/>
<path d="M79.9616 65.9336C81.0505 65.9336 82.0458 66.0319 82.9591 66.2409C83.1815 67.6053 83.2869 68.3428 83.2869 68.4411C83.2869 68.4903 83.2635 68.5272 83.1932 68.5763C83.123 68.6255 83.0527 68.6378 82.9825 68.6378C82.9122 68.6378 82.8537 68.6255 82.8185 68.5886C82.5492 67.1382 81.6242 66.4253 80.0435 66.4253C79.3761 66.4253 78.7673 66.6465 78.2286 67.0767C77.69 67.5069 77.2802 68.0601 76.9992 68.7115C76.7182 69.363 76.5777 70.039 76.5777 70.752C76.5777 71.2191 76.6245 71.6861 76.7182 72.1286C76.8119 72.5711 76.9641 73.0014 77.1631 73.407C77.3622 73.8126 77.6081 74.1568 77.8891 74.4641C78.1701 74.7714 78.5214 75.0049 78.9312 75.1893C79.341 75.3614 79.7742 75.4597 80.2543 75.4597C80.9802 75.4597 81.6125 75.2262 82.1277 74.7468C82.5492 74.3412 82.842 73.7757 82.9942 73.0259C83.1581 73.0137 83.3103 73.0505 83.4508 73.1489C83.4508 73.3332 83.3923 73.7266 83.2752 74.3043C83.1581 74.882 83.0527 75.2139 82.9591 75.2876C82.2097 75.7301 81.191 75.9514 79.9147 75.9514C79.2356 75.9514 78.5916 75.8162 77.9945 75.5581C77.3973 75.2999 76.9055 74.9435 76.4957 74.501C76.0859 74.0585 75.7698 73.5422 75.5356 72.9522C75.3014 72.3622 75.1843 71.7353 75.1843 71.0838C75.1843 70.3955 75.3014 69.744 75.5473 69.1172C75.7932 68.4903 76.121 67.9494 76.5309 67.4824C76.9407 67.0153 77.4559 66.6465 78.053 66.3761C78.6385 66.0811 79.2824 65.9336 79.9616 65.9336Z" fill="white"/>
<path d="M89.0945 66.4376C88.6847 66.4376 88.31 66.5236 87.9704 66.6834C87.6309 66.8432 87.3499 67.0644 87.1274 67.3349C86.9049 67.6053 86.7176 67.9249 86.5537 68.2936C86.4014 68.6624 86.2843 69.0434 86.2141 69.4245C86.1438 69.8178 86.1087 70.2111 86.1087 70.629C86.1087 71.2191 86.1907 71.7845 86.3429 72.3622C86.4951 72.9276 86.7176 73.4439 86.9869 73.911C87.2679 74.378 87.6192 74.7591 88.0641 75.0418C88.509 75.3245 88.9891 75.472 89.516 75.472C89.9258 75.472 90.3005 75.386 90.6401 75.2262C90.9796 75.0664 91.2606 74.8451 91.4831 74.5624C91.7056 74.292 91.8929 73.9601 92.0568 73.5914C92.2091 73.2226 92.3261 72.8416 92.3964 72.4482C92.4667 72.0549 92.5018 71.6493 92.5018 71.2313C92.5018 70.6413 92.4198 70.0759 92.2676 69.4982C92.1154 68.9328 91.8929 68.4165 91.6119 67.9617C91.3309 67.5069 90.9679 67.1259 90.5347 66.8432C90.1015 66.5605 89.6331 66.4376 89.0945 66.4376ZM89.317 65.9336C89.9375 65.9336 90.523 66.0565 91.085 66.3146C91.647 66.5605 92.1388 66.9046 92.5603 67.3471C92.9819 67.7774 93.3097 68.3182 93.5673 68.9451C93.8249 69.572 93.942 70.248 93.942 70.9732C93.942 71.6493 93.8132 72.3007 93.5673 72.9276C93.3214 73.5545 92.9818 74.083 92.572 74.5378C92.1505 74.9803 91.6587 75.3368 91.0967 75.6072C90.5347 75.8776 89.9375 76.0006 89.3287 76.0006C88.7081 76.0006 88.1226 75.8776 87.5606 75.6195C86.9986 75.3737 86.5185 75.0295 86.097 74.587C85.6872 74.1568 85.3476 73.616 85.1017 72.9891C84.8559 72.3622 84.7388 71.6861 84.7388 70.9732C84.7388 70.2849 84.8559 69.6334 85.1017 69.0188C85.3476 68.3919 85.6755 67.8634 86.0853 67.4086C86.4951 66.9661 86.9869 66.5974 87.5489 66.3392C88.1109 66.0688 88.6964 65.9336 89.317 65.9336Z" fill="white"/>
<path d="M96.4829 66.0445C96.9395 66.0445 97.2908 66.0322 97.5601 66.0199C97.7943 66.4009 98.649 67.5318 100.113 69.4001C101.576 71.2685 102.572 72.596 103.11 73.3826V72.5222V67.753C103.11 67.4457 103.098 67.2245 103.087 67.0893C103.075 66.954 103.028 66.8311 102.97 66.7205C102.934 66.6468 102.782 66.5853 102.501 66.5238C102.22 66.4624 102.021 66.4255 101.892 66.4255C101.857 66.3763 101.846 66.3026 101.834 66.2042C101.834 66.1059 101.846 66.0322 101.857 65.9953C102.806 66.0445 103.344 66.069 103.485 66.069C103.684 66.069 103.848 66.069 104 66.0567C104.152 66.0445 104.316 66.0322 104.492 66.0199C104.667 66.0076 104.843 65.9953 105.007 65.9953C105.077 66.1182 105.077 66.2657 105.007 66.4255C104.878 66.4255 104.667 66.4501 104.386 66.5115C104.105 66.573 103.941 66.6345 103.906 66.7205C103.848 66.8188 103.801 66.9418 103.789 67.077C103.778 67.2122 103.766 67.4334 103.766 67.7284V73.776C103.766 74.6241 103.778 75.3124 103.789 75.8287C103.778 75.8902 103.719 75.9147 103.602 75.9147C103.555 75.9147 103.473 75.8902 103.379 75.8287C103.286 75.7795 103.192 75.6935 103.11 75.5706L96.9395 67.3843V74.1324C96.9395 74.4397 96.9512 74.661 96.9629 74.7962C96.9747 74.9314 97.0215 75.0543 97.08 75.1649C97.1152 75.2387 97.2674 75.3002 97.5367 75.3616C97.806 75.4231 98.005 75.4599 98.1455 75.4599C98.1807 75.5091 98.1924 75.5829 98.2041 75.6812C98.2041 75.7795 98.1924 75.8533 98.1807 75.8902C97.2322 75.841 96.6936 75.8164 96.5648 75.8164C96.3658 75.8164 96.2019 75.8164 96.0496 75.8287C95.8974 75.841 95.7335 75.8533 95.5579 75.8656C95.3822 75.8779 95.2066 75.8902 95.0427 75.8902C94.9724 75.7672 94.9724 75.6197 95.0427 75.4599C95.1715 75.4599 95.3822 75.4354 95.6633 75.3739C95.9443 75.3124 96.1082 75.251 96.1433 75.1649C96.2019 75.0666 96.2487 74.9437 96.2604 74.8085C96.2721 74.6733 96.2838 74.452 96.2838 74.157V67.7038C96.2838 67.3966 96.2721 67.1876 96.2604 67.0524C96.2487 66.9172 96.2019 66.7943 96.1433 66.6959C96.0965 66.6222 95.9443 66.5484 95.6633 66.487C95.3822 66.4255 95.1715 66.4009 95.0427 66.4009C94.9724 66.2411 94.9724 66.0936 95.0427 65.9707C95.1949 65.9707 95.4291 65.9953 95.7452 66.0076C96.0614 66.0322 96.3072 66.0445 96.4829 66.0445Z" fill="white"/>
<path d="M109.14 65.957C109.351 65.957 109.538 65.9693 109.726 65.9939C109.913 66.0185 110.054 66.0431 110.171 66.0799C110.288 66.1168 110.463 66.1537 110.686 66.2275C110.908 66.2889 111.107 66.3381 111.283 66.375C111.342 66.8052 111.412 67.5058 111.482 68.4891C111.482 68.5383 111.459 68.5752 111.388 68.5998C111.318 68.6366 111.248 68.6489 111.189 68.6489C111.119 68.6489 111.072 68.6243 111.037 68.5875C111.014 68.44 110.979 68.2679 110.92 68.0835C110.862 67.8991 110.768 67.7148 110.651 67.5181C110.534 67.3214 110.405 67.1493 110.253 66.9895C110.1 66.8297 109.925 66.7068 109.714 66.6085C109.503 66.5102 109.293 66.461 109.058 66.461C108.789 66.461 108.543 66.5102 108.332 66.6085C108.122 66.7068 107.958 66.842 107.852 67.0141C107.735 67.1862 107.653 67.3583 107.606 67.5427C107.548 67.727 107.524 67.9114 107.524 68.1081C107.524 68.2556 107.536 68.3908 107.571 68.526C107.606 68.6612 107.642 68.7841 107.7 68.8825C107.747 68.9808 107.817 69.0914 107.911 69.2021C108.005 69.3127 108.087 69.3987 108.157 69.4725C108.227 69.5462 108.332 69.6323 108.473 69.7306C108.613 69.8289 108.719 69.9027 108.801 69.9641C108.883 70.0256 109 70.0994 109.164 70.1977C109.316 70.296 109.433 70.3698 109.515 70.4189C109.585 70.4681 109.714 70.5419 109.878 70.6525C110.042 70.7631 110.182 70.8492 110.288 70.9229C110.393 70.9967 110.534 71.0827 110.686 71.2056C110.85 71.3285 110.979 71.4392 111.084 71.5375C111.189 71.6358 111.306 71.7587 111.424 71.894C111.541 72.0292 111.646 72.1767 111.716 72.3119C111.787 72.4471 111.845 72.5946 111.892 72.7667C111.939 72.9388 111.962 73.1108 111.962 73.2952C111.962 73.6886 111.88 74.0573 111.716 74.4015C111.552 74.7456 111.33 75.0284 111.049 75.2619C110.768 75.4954 110.452 75.6798 110.1 75.8027C109.749 75.9379 109.374 75.9994 109 75.9994C108.777 75.9994 108.543 75.9871 108.286 75.9502C108.028 75.9134 107.817 75.8765 107.642 75.8519C107.478 75.815 107.255 75.7659 106.998 75.7044C106.74 75.6429 106.553 75.5938 106.459 75.5815C106.389 75.1882 106.318 74.7334 106.248 74.2294C106.19 73.7131 106.155 73.4058 106.155 73.2829C106.272 73.16 106.389 73.1108 106.518 73.1108C106.611 73.1108 106.658 73.16 106.67 73.246C106.693 73.3936 106.74 73.5411 106.799 73.7008C106.857 73.8606 106.939 74.0573 107.068 74.2786C107.185 74.5121 107.337 74.7088 107.501 74.8809C107.665 75.0529 107.876 75.2004 108.145 75.3234C108.414 75.4463 108.707 75.5077 109.035 75.5077C109.515 75.5077 109.925 75.3479 110.241 75.0161C110.569 74.6965 110.733 74.254 110.733 73.6886C110.733 73.5411 110.721 73.3936 110.686 73.2706C110.662 73.1354 110.616 73.0248 110.581 72.9265C110.534 72.8281 110.475 72.7298 110.393 72.6315C110.311 72.5331 110.229 72.4594 110.159 72.3856C110.089 72.3242 109.995 72.2504 109.878 72.1644C109.761 72.0783 109.656 72.0169 109.562 71.9677C109.48 71.9185 109.351 71.8448 109.211 71.7587C109.058 71.6727 108.941 71.6112 108.848 71.5498C108.649 71.4269 108.52 71.3531 108.473 71.3162C108.414 71.2794 108.297 71.2056 108.11 71.0827C107.923 70.9598 107.794 70.8737 107.724 70.8123C107.653 70.7508 107.536 70.6648 107.384 70.5296C107.22 70.4067 107.115 70.296 107.044 70.21C106.974 70.1239 106.892 70.0133 106.787 69.8781C106.681 69.7429 106.611 69.6077 106.564 69.4848C106.518 69.3618 106.482 69.2266 106.436 69.0668C106.4 68.9071 106.377 68.7473 106.377 68.5875C106.377 68.0835 106.506 67.6287 106.775 67.2231C107.044 66.8175 107.384 66.5102 107.805 66.2889C108.215 66.0554 108.66 65.957 109.14 65.957Z" fill="white"/>
<path d="M114.643 66.0808C114.784 66.0808 115.334 66.0562 116.294 66.007C116.329 66.0439 116.341 66.1176 116.341 66.2283C116.341 66.3266 116.318 66.4003 116.294 66.4495C116.154 66.4495 115.955 66.4741 115.709 66.511C115.463 66.5601 115.334 66.6093 115.311 66.6831C115.264 66.8428 115.24 67.2116 115.24 67.777V71.4523C115.24 72.6691 115.475 73.5787 115.931 74.181C116.376 74.7587 117.02 75.0415 117.875 75.0415C119.666 75.0415 120.58 73.9475 120.627 71.7718V67.7401C120.627 67.4329 120.615 67.2116 120.603 67.0764C120.591 66.9412 120.545 66.8183 120.486 66.7076C120.451 66.6339 120.299 66.5724 120.053 66.511C119.795 66.4495 119.608 66.4126 119.467 66.4126C119.432 66.3635 119.421 66.2897 119.409 66.1914C119.409 66.093 119.409 66.0193 119.432 65.9824C120.381 66.0316 120.896 66.0562 121.001 66.0562C121.2 66.0562 121.364 66.0562 121.516 66.0439C121.669 66.0316 121.833 66.0193 122.008 66.007C122.184 65.9947 122.36 65.9824 122.523 65.9824C122.594 66.1053 122.594 66.2528 122.523 66.4126C122.395 66.4126 122.184 66.4372 121.903 66.4987C121.622 66.5601 121.458 66.6216 121.423 66.7076C121.364 66.806 121.317 66.9289 121.306 67.0641C121.294 67.1993 121.282 67.4206 121.282 67.7156V71.7227C121.282 73.1485 120.954 74.1933 120.31 74.8694C119.655 75.5454 118.753 75.8773 117.594 75.8773C116.564 75.8773 115.721 75.5454 115.065 74.894C114.374 74.2056 114.023 73.2714 114.023 72.0914V67.7524C114.023 67.1747 113.999 66.806 113.953 66.6585C113.929 66.5847 113.8 66.5356 113.554 66.4864C113.309 66.4372 113.121 66.4249 112.969 66.4249C112.946 66.3881 112.922 66.3143 112.922 66.2037C112.922 66.1053 112.934 66.0316 112.969 65.9824C113.941 66.0562 114.491 66.0808 114.643 66.0808Z" fill="white"/>
<path d="M125.708 74.1192C125.708 74.783 125.732 75.1394 125.79 75.1886C125.872 75.2624 125.978 75.2992 126.106 75.3115C126.235 75.3238 126.458 75.3361 126.797 75.3361H127.605C127.898 75.3361 128.202 75.2992 128.518 75.2378C128.835 75.1763 129.08 75.0657 129.256 74.9428C129.642 74.6601 129.935 74.1684 130.146 73.4432C130.158 73.3817 130.228 73.3571 130.345 73.3571C130.521 73.3571 130.638 73.3817 130.696 73.4432C130.649 73.5661 130.579 73.7751 130.485 74.0578C130.392 74.3405 130.31 74.574 130.251 74.7461C130.193 74.9182 130.134 75.1272 130.064 75.3484C130.005 75.5697 129.959 75.754 129.935 75.9138C129.443 75.9138 128.682 75.9015 127.652 75.8892C126.622 75.877 125.767 75.8647 125.111 75.8647C124.877 75.8647 124.584 75.877 124.221 75.8892C123.858 75.9015 123.601 75.9138 123.425 75.9138C123.39 75.877 123.378 75.8032 123.378 75.6926C123.378 75.5942 123.39 75.5205 123.425 75.4713C123.566 75.4713 123.765 75.4467 124.01 75.4099C124.256 75.3607 124.385 75.3115 124.409 75.2378C124.455 75.078 124.479 74.7092 124.479 74.1438V67.8013C124.479 67.2235 124.455 66.8548 124.409 66.7073C124.385 66.6335 124.256 66.5844 124.01 66.5352C123.765 66.486 123.577 66.4738 123.425 66.4738C123.402 66.4369 123.378 66.3631 123.378 66.2525C123.378 66.1542 123.39 66.0804 123.425 66.0312C124.397 66.0804 124.947 66.105 125.099 66.105C125.24 66.105 125.79 66.0804 126.75 66.0312C126.785 66.0681 126.797 66.1419 126.797 66.2525C126.797 66.3508 126.774 66.4246 126.75 66.4738C126.61 66.4738 126.411 66.4983 126.165 66.5352C125.919 66.5844 125.79 66.6335 125.767 66.7073C125.708 66.8917 125.685 67.2604 125.697 67.8013L125.708 74.1192Z" fill="white"/>
<path d="M136.89 66.032C136.996 66.032 137.148 66.0074 137.324 65.9583C137.499 65.9091 137.64 65.8599 137.733 65.8108C137.839 65.7493 137.932 65.737 138.003 65.7862C138.12 66.8187 138.237 67.6791 138.366 68.3429C138.295 68.4166 138.202 68.4535 138.096 68.4412C138.003 68.4412 137.932 68.4166 137.897 68.3675C137.792 67.8143 137.628 67.3841 137.394 67.0522C137.16 66.7204 136.879 66.5606 136.539 66.5606H134.736V74.1323C134.736 74.71 134.759 75.0788 134.806 75.2263C134.83 75.3 134.958 75.3492 135.204 75.3984C135.45 75.4475 135.637 75.4598 135.79 75.4598C135.813 75.4967 135.837 75.5704 135.837 75.6811C135.837 75.7794 135.825 75.8532 135.79 75.9023C134.818 75.8532 134.268 75.8286 134.139 75.8286C133.998 75.8286 133.436 75.8532 132.464 75.9023C132.429 75.8654 132.418 75.7917 132.418 75.6811C132.418 75.5827 132.441 75.509 132.464 75.4598C132.605 75.4598 132.804 75.4352 133.05 75.3984C133.296 75.3492 133.424 75.3 133.448 75.2263C133.495 75.0665 133.518 74.6977 133.518 74.1323V66.5606H131.692C131.352 66.5606 131.071 66.7204 130.837 67.0522C130.603 67.3841 130.439 67.8266 130.333 68.3675C130.298 68.4166 130.24 68.4412 130.134 68.4412C130.029 68.4535 129.935 68.4166 129.865 68.3429C129.994 67.6791 130.123 66.8187 130.228 65.7862C130.31 65.7493 130.415 65.7616 130.556 65.8354C130.649 65.8845 130.778 65.9337 130.942 65.9706C131.106 66.0197 131.247 66.032 131.352 66.032H136.89Z" fill="white"/>
<path d="M140.883 66.0796C141.024 66.0796 141.574 66.055 142.534 66.0059C142.569 66.0427 142.581 66.1165 142.581 66.2271C142.581 66.3254 142.557 66.3992 142.534 66.4484C142.394 66.4484 142.194 66.4729 141.949 66.5098C141.703 66.559 141.574 66.6082 141.55 66.6819C141.504 66.8417 141.48 67.2105 141.48 67.7759V74.1184C141.48 74.6961 141.504 75.0649 141.55 75.2124C141.574 75.2861 141.703 75.3353 141.949 75.3845C142.194 75.4336 142.382 75.4459 142.534 75.4459C142.557 75.4828 142.581 75.5566 142.581 75.6672C142.581 75.7655 142.569 75.8393 142.534 75.8884C141.562 75.8393 141.012 75.8147 140.883 75.8147C140.743 75.8147 140.181 75.8393 139.209 75.8884C139.174 75.8516 139.162 75.7778 139.162 75.6672C139.162 75.5689 139.174 75.4951 139.209 75.4459C139.349 75.4459 139.548 75.4214 139.794 75.3845C140.04 75.3353 140.169 75.2861 140.192 75.2124C140.239 75.0526 140.263 74.6838 140.263 74.1184V67.7759C140.263 67.1982 140.239 66.8294 140.192 66.6819C140.169 66.6082 140.04 66.559 139.794 66.5098C139.548 66.4607 139.361 66.4484 139.209 66.4484C139.185 66.4115 139.162 66.3377 139.162 66.2271C139.162 66.1288 139.174 66.055 139.209 66.0059C140.181 66.055 140.731 66.0796 140.883 66.0796Z" fill="white"/>
<path d="M145.18 66.0445C145.637 66.0445 145.988 66.0322 146.258 66.0199C146.492 66.4009 147.347 67.5318 148.81 69.4001C150.274 71.2685 151.269 72.596 151.808 73.3826V72.5222V67.753C151.808 67.4457 151.796 67.2245 151.784 67.0893C151.773 66.954 151.726 66.8311 151.667 66.7205C151.632 66.6468 151.48 66.5853 151.199 66.5238C150.929 66.4624 150.719 66.4255 150.59 66.4255C150.555 66.3763 150.543 66.3026 150.531 66.2042C150.531 66.1059 150.531 66.0322 150.555 65.9953C151.503 66.0445 152.042 66.069 152.182 66.069C152.381 66.069 152.545 66.069 152.698 66.0567C152.85 66.0445 153.014 66.0322 153.189 66.0199C153.365 66.0076 153.541 65.9953 153.704 65.9953C153.775 66.1182 153.775 66.2657 153.704 66.4255C153.576 66.4255 153.365 66.4501 153.084 66.5115C152.803 66.573 152.639 66.6345 152.604 66.7205C152.545 66.8188 152.498 66.9418 152.487 67.077C152.475 67.2122 152.463 67.4334 152.463 67.7284V73.776C152.463 74.6241 152.475 75.3124 152.487 75.8287C152.475 75.8902 152.416 75.9147 152.299 75.9147C152.253 75.9147 152.171 75.8902 152.077 75.8287C151.983 75.7795 151.89 75.6935 151.808 75.5706L145.637 67.3843V74.1324C145.637 74.4397 145.649 74.661 145.66 74.7962C145.672 74.9314 145.719 75.0543 145.778 75.1649C145.813 75.2387 145.965 75.3002 146.234 75.3616C146.503 75.4231 146.703 75.4599 146.843 75.4599C146.878 75.5091 146.89 75.5829 146.902 75.6812C146.902 75.7795 146.89 75.8533 146.878 75.8902C145.93 75.841 145.391 75.8164 145.262 75.8164C145.063 75.8164 144.899 75.8164 144.747 75.8287C144.595 75.841 144.431 75.8533 144.255 75.8656C144.08 75.8779 143.904 75.8902 143.74 75.8902C143.67 75.7672 143.67 75.6197 143.74 75.4599C143.869 75.4599 144.08 75.4354 144.361 75.3739C144.642 75.3124 144.806 75.251 144.841 75.1649C144.899 75.0666 144.946 74.9437 144.958 74.8085C144.97 74.6733 144.981 74.452 144.981 74.157V67.7038C144.981 67.3966 144.97 67.1876 144.958 67.0524C144.946 66.9172 144.899 66.7943 144.841 66.6959C144.794 66.6222 144.642 66.5484 144.361 66.487C144.08 66.4255 143.869 66.4009 143.74 66.4009C143.67 66.2411 143.67 66.0936 143.74 65.9707C143.892 65.9707 144.127 65.9953 144.443 66.0076C144.747 66.0322 144.993 66.0445 145.18 66.0445Z" fill="white"/>
<path d="M161.561 73.2466C161.561 72.6689 161.538 72.3002 161.491 72.1527C161.467 72.0789 161.339 72.0297 161.104 71.9806C160.859 71.9314 160.671 71.9191 160.531 71.9191C160.507 71.8822 160.484 71.8085 160.484 71.6979C160.484 71.5995 160.496 71.5258 160.531 71.4766C161.503 71.5258 162.053 71.5504 162.182 71.5504C162.275 71.5504 162.802 71.5258 163.762 71.4766C163.797 71.5135 163.809 71.5872 163.809 71.6979C163.809 71.7962 163.786 71.8699 163.762 71.9191C163.622 71.9191 163.446 71.9437 163.212 71.9806C162.978 72.0297 162.861 72.0789 162.837 72.1527C162.791 72.3124 162.767 72.6812 162.767 73.2466V74.3037C162.767 74.4266 162.791 74.5373 162.837 74.6602C162.884 74.7831 162.908 74.8568 162.908 74.8937C162.908 74.9429 162.884 74.9798 162.849 75.0166C162.814 75.0535 162.732 75.1027 162.615 75.1641C162.334 75.3239 162.1 75.4468 161.901 75.5329C161.713 75.6189 161.385 75.705 160.929 75.8033C160.472 75.8893 159.957 75.9385 159.372 75.9385C158.692 75.9385 158.048 75.8033 157.451 75.5452C156.854 75.2871 156.362 74.9306 155.953 74.4881C155.543 74.0456 155.227 73.5293 154.992 72.9393C154.758 72.3493 154.641 71.7224 154.641 71.071C154.641 70.3826 154.758 69.7312 155.004 69.1043C155.25 68.4774 155.578 67.9366 155.988 67.4695C156.397 67.0024 156.913 66.6337 157.51 66.3632C158.107 66.0928 158.751 65.9453 159.43 65.9453C160.519 65.9453 161.514 66.0436 162.428 66.2526C162.65 67.617 162.755 68.3545 162.755 68.4528C162.755 68.502 162.732 68.5389 162.662 68.588C162.591 68.6372 162.521 68.6495 162.451 68.6495C162.381 68.6495 162.322 68.6372 162.275 68.6003C162.006 67.1499 161.081 66.437 159.5 66.437C158.833 66.437 158.224 66.6582 157.685 67.0884C157.147 67.5187 156.737 68.0718 156.456 68.7232C156.175 69.3747 156.034 70.0508 156.034 70.7637C156.034 71.2308 156.081 71.6979 156.175 72.1404C156.269 72.5829 156.421 73.0131 156.62 73.4187C156.819 73.8243 157.065 74.1685 157.346 74.4758C157.627 74.7831 157.978 75.0166 158.388 75.201C158.798 75.3731 159.243 75.4714 159.723 75.4714C160.261 75.4714 160.835 75.3116 161.432 74.992C161.503 74.9552 161.526 74.8814 161.526 74.7708V73.2466H161.561Z" fill="white"/>
<path d="M47.8323 67.7882L46.5326 71.4142C46.5326 71.4511 46.5443 71.4757 46.556 71.4757C47.0478 71.5003 47.481 71.5003 47.844 71.5003C48.1953 71.5003 48.5934 71.488 49.0383 71.4511C49.05 71.4511 49.0617 71.4511 49.0617 71.4388C49.0734 71.4265 49.0734 71.4142 49.0852 71.4019V71.3897L47.8323 67.7882ZM45.0573 73.7865C46.2984 70.4186 47.2117 67.9725 47.7855 66.4361C47.8206 66.3623 47.9026 66.2763 48.0314 66.1657C48.1602 66.055 48.2538 66.0059 48.3124 66.0059C48.3241 66.0059 48.3475 66.0182 48.3592 66.0304C48.3709 66.0427 48.3943 66.055 48.3943 66.055L51.2747 73.9832C51.5089 74.6224 51.626 74.9543 51.6377 74.9666C51.6962 75.1264 51.8485 75.237 52.0826 75.3353C52.3168 75.4214 52.4925 75.4705 52.5978 75.4705C52.6213 75.5197 52.6447 75.5934 52.6447 75.6918C52.6447 75.7901 52.6447 75.8639 52.633 75.9007C51.6845 75.8516 51.1693 75.827 51.0757 75.827C50.8766 75.827 50.701 75.827 50.5371 75.8393C50.3731 75.8516 50.1858 75.8639 49.975 75.8761C49.7643 75.8884 49.5886 75.9007 49.4364 75.9007C49.4013 75.8639 49.3896 75.7901 49.3896 75.6795C49.3896 75.5811 49.413 75.5074 49.4481 75.4582C49.5535 75.4582 49.7057 75.4459 49.8814 75.3968C50.057 75.3476 50.1858 75.3107 50.2443 75.2616C50.2795 75.2247 50.3029 75.1509 50.3029 75.0526C50.3029 74.9174 50.2209 74.6101 50.057 74.1307C49.8931 73.6513 49.7409 73.1965 49.5769 72.7786L49.331 72.1517C49.3076 72.1149 49.2725 72.0903 49.2491 72.0903C49.132 72.078 48.6636 72.078 47.844 72.078C47.2469 72.078 46.7434 72.0903 46.3101 72.1272L46.2399 72.1763C45.9706 72.9138 45.7598 73.5161 45.6076 73.9832C45.4788 74.3888 45.4086 74.7453 45.4086 75.0403C45.4086 75.1264 45.4554 75.2001 45.5374 75.2616C45.6193 75.323 45.7364 75.3599 45.8535 75.3968C45.9823 75.4214 46.0877 75.4459 46.1813 75.4582C46.275 75.4705 46.3336 75.4705 46.3921 75.4705C46.4155 75.4951 46.4272 75.5566 46.4272 75.6672C46.4389 75.7778 46.4272 75.8516 46.4155 75.9007C46.275 75.9007 46.1345 75.8884 45.9706 75.8761C45.8067 75.8639 45.6662 75.8516 45.5256 75.8393C45.3851 75.827 45.2329 75.827 45.0456 75.827C44.8465 75.827 44.6826 75.827 44.5304 75.8393C44.3782 75.8516 44.2142 75.8639 44.0386 75.8761C43.863 75.8884 43.6873 75.9007 43.5234 75.9007C43.5 75.8761 43.5 75.8147 43.5 75.7041C43.5 75.5934 43.5117 75.5197 43.5234 75.4705C43.6405 75.4705 43.7927 75.4459 43.9918 75.3968C44.1908 75.3476 44.3079 75.2738 44.3782 75.1878C44.5889 74.9051 44.8114 74.438 45.0573 73.7865Z" fill="white"/>
<path d="M58.4524 68.7592C58.4524 68.0709 58.2767 67.53 57.9255 67.1244C57.5742 66.7311 57.0239 66.5221 56.2745 66.5221C55.8413 66.5221 55.6071 66.5713 55.572 66.6696C55.5251 66.7925 55.5017 67.1613 55.5017 67.7882L55.5134 70.898H56.2745C56.8599 70.898 57.3634 70.7013 57.8084 70.2957C58.2416 69.9023 58.4524 69.3861 58.4524 68.7592ZM56.8951 66.055C57.2229 66.055 57.5625 66.1165 57.8903 66.2271C58.2182 66.3377 58.5343 66.4975 58.8153 66.7065C59.0963 66.9154 59.3305 67.1859 59.5062 67.5177C59.6818 67.8496 59.7755 68.2184 59.7755 68.624C59.7755 69.1403 59.5764 69.6196 59.19 70.099C58.7919 70.5661 58.347 70.898 57.8435 71.0701C58.4524 72.1395 59.2134 73.2949 60.1267 74.5609C60.3375 74.8559 60.56 75.0649 60.8058 75.2001C61.04 75.3353 61.3562 75.4214 61.7309 75.4459C61.7543 75.4951 61.766 75.5811 61.7543 75.6795C61.7426 75.7778 61.7309 75.8516 61.7191 75.8761C60.7941 75.8761 60.1736 75.8147 59.8457 75.7041C59.5413 75.5934 59.3071 75.4582 59.1549 75.2984C59.0729 75.2247 59.0027 75.1386 58.9324 75.0403C58.8153 74.8682 58.5109 74.4011 58.0191 73.6513C57.5391 72.9015 57.0941 72.1886 56.6726 71.5249C56.6023 71.4019 56.4501 71.3528 56.2511 71.3528H55.5017V74.1184C55.5017 74.6961 55.5251 75.0649 55.572 75.2124C55.5954 75.2861 55.7242 75.3353 55.9701 75.3845C56.216 75.4336 56.4033 75.4459 56.5555 75.4459C56.5789 75.4828 56.6023 75.5566 56.6023 75.6672C56.6023 75.7655 56.5906 75.8393 56.5555 75.8884C55.5837 75.8393 55.0333 75.8147 54.9046 75.8147C54.764 75.8147 54.202 75.8393 53.2302 75.8884C53.195 75.8516 53.1833 75.7778 53.1833 75.6672C53.1833 75.5689 53.2068 75.4951 53.2302 75.4459C53.3707 75.4459 53.5697 75.4214 53.8156 75.3845C54.0615 75.3353 54.1903 75.2861 54.2137 75.2124C54.2489 75.0895 54.2723 74.7207 54.284 74.1184L54.2723 67.7759C54.2723 67.1982 54.2489 66.8294 54.202 66.6819C54.1786 66.6082 54.0498 66.559 53.8039 66.5098C53.558 66.4607 53.3707 66.4484 53.2185 66.4484C53.195 66.4115 53.1716 66.3377 53.1716 66.2271C53.1716 66.1288 53.1833 66.055 53.2185 66.0059C54.1903 66.055 54.7406 66.0796 54.8928 66.0796C55.0568 66.0796 55.3495 66.0796 55.7944 66.0673C56.2277 66.055 56.6023 66.055 56.8951 66.055Z" fill="white"/>
<path d="M65.4893 67.7882L64.1896 71.4142C64.1896 71.4511 64.2013 71.4757 64.213 71.4757C64.7048 71.5003 65.138 71.5003 65.501 71.5003C65.8523 71.5003 66.2504 71.488 66.6953 71.4511C66.707 71.4511 66.7187 71.4511 66.7187 71.4388C66.7304 71.4265 66.7304 71.4142 66.7421 71.4019V71.3897L65.4893 67.7882ZM62.7143 73.7865C63.9554 70.4186 64.8687 67.9725 65.4424 66.4361C65.4776 66.3623 65.5595 66.2763 65.6883 66.1657C65.8171 66.055 65.9108 66.0059 65.9693 66.0059C65.9811 66.0059 66.0045 66.0182 66.0162 66.0304C66.0279 66.0427 66.0513 66.055 66.0513 66.055L68.9317 73.9832C69.1659 74.6224 69.283 74.9543 69.2947 74.9666C69.3532 75.1264 69.5054 75.237 69.7396 75.3353C69.9738 75.4214 70.1494 75.4705 70.2548 75.4705C70.2782 75.5197 70.3016 75.5934 70.3016 75.6918C70.3016 75.7901 70.3016 75.8639 70.2899 75.9007C69.3415 75.8516 68.8263 75.827 68.7327 75.827C68.5336 75.827 68.358 75.827 68.194 75.8393C68.0301 75.8516 67.8428 75.8639 67.632 75.8761C67.4213 75.8884 67.2456 75.9007 67.0934 75.9007C67.0583 75.8639 67.0466 75.7901 67.0466 75.6795C67.0466 75.5811 67.07 75.5074 67.1051 75.4582C67.2105 75.4582 67.3627 75.4459 67.5383 75.3968C67.714 75.3476 67.8428 75.3107 67.9013 75.2616C67.9364 75.2247 67.9599 75.1509 67.9599 75.0526C67.9599 74.9174 67.8779 74.6101 67.714 74.1307C67.5501 73.6513 67.3978 73.1965 67.2339 72.7786L66.988 72.1517C66.9646 72.1149 66.9295 72.0903 66.9061 72.0903C66.789 72.078 66.3206 72.078 65.501 72.078C64.9038 72.078 64.4004 72.0903 63.9671 72.1272L63.8969 72.1763C63.6276 72.9138 63.4168 73.5161 63.2646 73.9832C63.1358 74.3888 63.0655 74.7453 63.0655 75.0403C63.0655 75.1264 63.1124 75.2001 63.1943 75.2616C63.2763 75.323 63.3934 75.3599 63.5105 75.3968C63.6393 75.4214 63.7447 75.4459 63.8383 75.4582C63.932 75.4705 63.9905 75.4705 64.0491 75.4705C64.0725 75.4951 64.0842 75.5566 64.0842 75.6672C64.0959 75.7778 64.0842 75.8516 64.0725 75.9007C63.932 75.9007 63.7915 75.8884 63.6276 75.8761C63.4636 75.8639 63.3231 75.8516 63.1826 75.8393C63.0421 75.827 62.8899 75.827 62.7026 75.827C62.5035 75.827 62.3396 75.827 62.1874 75.8393C62.0352 75.8516 61.8712 75.8639 61.6956 75.8761C61.52 75.8884 61.3443 75.9007 61.1804 75.9007C61.157 75.8761 61.157 75.8147 61.157 75.7041C61.157 75.5934 61.1687 75.5197 61.1804 75.4705C61.2975 75.4705 61.4497 75.4459 61.6488 75.3968C61.8478 75.3476 61.9649 75.2738 62.0352 75.1878C62.2459 74.9051 62.4684 74.438 62.7143 73.7865Z" fill="white"/>
<path d="M79.9616 65.9336C81.0505 65.9336 82.0458 66.0319 82.9591 66.2409C83.1815 67.6053 83.2869 68.3428 83.2869 68.4411C83.2869 68.4903 83.2635 68.5272 83.1932 68.5763C83.123 68.6255 83.0527 68.6378 82.9825 68.6378C82.9122 68.6378 82.8537 68.6255 82.8185 68.5886C82.5492 67.1382 81.6242 66.4253 80.0435 66.4253C79.3761 66.4253 78.7673 66.6465 78.2286 67.0767C77.69 67.5069 77.2802 68.0601 76.9992 68.7115C76.7182 69.363 76.5777 70.039 76.5777 70.752C76.5777 71.2191 76.6245 71.6861 76.7182 72.1286C76.8119 72.5711 76.9641 73.0014 77.1631 73.407C77.3622 73.8126 77.6081 74.1568 77.8891 74.4641C78.1701 74.7714 78.5214 75.0049 78.9312 75.1893C79.341 75.3614 79.7742 75.4597 80.2543 75.4597C80.9802 75.4597 81.6125 75.2262 82.1277 74.7468C82.5492 74.3412 82.842 73.7757 82.9942 73.0259C83.1581 73.0137 83.3103 73.0505 83.4508 73.1489C83.4508 73.3332 83.3923 73.7266 83.2752 74.3043C83.1581 74.882 83.0527 75.2139 82.9591 75.2876C82.2097 75.7301 81.191 75.9514 79.9147 75.9514C79.2356 75.9514 78.5916 75.8162 77.9945 75.5581C77.3973 75.2999 76.9055 74.9435 76.4957 74.501C76.0859 74.0585 75.7698 73.5422 75.5356 72.9522C75.3014 72.3622 75.1843 71.7353 75.1843 71.0838C75.1843 70.3955 75.3014 69.744 75.5473 69.1172C75.7932 68.4903 76.121 67.9494 76.5309 67.4824C76.9407 67.0153 77.4559 66.6465 78.053 66.3761C78.6385 66.0811 79.2824 65.9336 79.9616 65.9336Z" fill="white"/>
<path d="M89.0945 66.4376C88.6847 66.4376 88.31 66.5236 87.9704 66.6834C87.6309 66.8432 87.3499 67.0644 87.1274 67.3349C86.9049 67.6053 86.7176 67.9249 86.5537 68.2936C86.4014 68.6624 86.2843 69.0434 86.2141 69.4245C86.1438 69.8178 86.1087 70.2111 86.1087 70.629C86.1087 71.2191 86.1907 71.7845 86.3429 72.3622C86.4951 72.9276 86.7176 73.4439 86.9869 73.911C87.2679 74.378 87.6192 74.7591 88.0641 75.0418C88.509 75.3245 88.9891 75.472 89.516 75.472C89.9258 75.472 90.3005 75.386 90.6401 75.2262C90.9796 75.0664 91.2606 74.8451 91.4831 74.5624C91.7056 74.292 91.8929 73.9601 92.0568 73.5914C92.2091 73.2226 92.3261 72.8416 92.3964 72.4482C92.4667 72.0549 92.5018 71.6493 92.5018 71.2313C92.5018 70.6413 92.4198 70.0759 92.2676 69.4982C92.1154 68.9328 91.8929 68.4165 91.6119 67.9617C91.3309 67.5069 90.9679 67.1259 90.5347 66.8432C90.1015 66.5605 89.6331 66.4376 89.0945 66.4376ZM89.317 65.9336C89.9375 65.9336 90.523 66.0565 91.085 66.3146C91.647 66.5605 92.1388 66.9046 92.5603 67.3471C92.9819 67.7774 93.3097 68.3182 93.5673 68.9451C93.8249 69.572 93.942 70.248 93.942 70.9732C93.942 71.6493 93.8132 72.3007 93.5673 72.9276C93.3214 73.5545 92.9818 74.083 92.572 74.5378C92.1505 74.9803 91.6587 75.3368 91.0967 75.6072C90.5347 75.8776 89.9375 76.0006 89.3287 76.0006C88.7081 76.0006 88.1226 75.8776 87.5606 75.6195C86.9986 75.3737 86.5185 75.0295 86.097 74.587C85.6872 74.1568 85.3476 73.616 85.1017 72.9891C84.8559 72.3622 84.7388 71.6861 84.7388 70.9732C84.7388 70.2849 84.8559 69.6334 85.1017 69.0188C85.3476 68.3919 85.6755 67.8634 86.0853 67.4086C86.4951 66.9661 86.9869 66.5974 87.5489 66.3392C88.1109 66.0688 88.6964 65.9336 89.317 65.9336Z" fill="white"/>
<path d="M96.4829 66.0445C96.9395 66.0445 97.2908 66.0322 97.5601 66.0199C97.7943 66.4009 98.649 67.5318 100.113 69.4001C101.576 71.2685 102.572 72.596 103.11 73.3826V72.5222V67.753C103.11 67.4457 103.098 67.2245 103.087 67.0893C103.075 66.954 103.028 66.8311 102.97 66.7205C102.934 66.6468 102.782 66.5853 102.501 66.5238C102.22 66.4624 102.021 66.4255 101.892 66.4255C101.857 66.3763 101.846 66.3026 101.834 66.2042C101.834 66.1059 101.846 66.0322 101.857 65.9953C102.806 66.0445 103.344 66.069 103.485 66.069C103.684 66.069 103.848 66.069 104 66.0567C104.152 66.0445 104.316 66.0322 104.492 66.0199C104.667 66.0076 104.843 65.9953 105.007 65.9953C105.077 66.1182 105.077 66.2657 105.007 66.4255C104.878 66.4255 104.667 66.4501 104.386 66.5115C104.105 66.573 103.941 66.6345 103.906 66.7205C103.848 66.8188 103.801 66.9418 103.789 67.077C103.778 67.2122 103.766 67.4334 103.766 67.7284V73.776C103.766 74.6241 103.778 75.3124 103.789 75.8287C103.778 75.8902 103.719 75.9147 103.602 75.9147C103.555 75.9147 103.473 75.8902 103.379 75.8287C103.286 75.7795 103.192 75.6935 103.11 75.5706L96.9395 67.3843V74.1324C96.9395 74.4397 96.9512 74.661 96.9629 74.7962C96.9747 74.9314 97.0215 75.0543 97.08 75.1649C97.1152 75.2387 97.2674 75.3002 97.5367 75.3616C97.806 75.4231 98.005 75.4599 98.1455 75.4599C98.1807 75.5091 98.1924 75.5829 98.2041 75.6812C98.2041 75.7795 98.1924 75.8533 98.1807 75.8902C97.2322 75.841 96.6936 75.8164 96.5648 75.8164C96.3658 75.8164 96.2019 75.8164 96.0496 75.8287C95.8974 75.841 95.7335 75.8533 95.5579 75.8656C95.3822 75.8779 95.2066 75.8902 95.0427 75.8902C94.9724 75.7672 94.9724 75.6197 95.0427 75.4599C95.1715 75.4599 95.3822 75.4354 95.6633 75.3739C95.9443 75.3124 96.1082 75.251 96.1433 75.1649C96.2019 75.0666 96.2487 74.9437 96.2604 74.8085C96.2721 74.6733 96.2838 74.452 96.2838 74.157V67.7038C96.2838 67.3966 96.2721 67.1876 96.2604 67.0524C96.2487 66.9172 96.2019 66.7943 96.1433 66.6959C96.0965 66.6222 95.9443 66.5484 95.6633 66.487C95.3822 66.4255 95.1715 66.4009 95.0427 66.4009C94.9724 66.2411 94.9724 66.0936 95.0427 65.9707C95.1949 65.9707 95.4291 65.9953 95.7452 66.0076C96.0614 66.0322 96.3072 66.0445 96.4829 66.0445Z" fill="white"/>
<path d="M109.14 65.957C109.351 65.957 109.538 65.9693 109.726 65.9939C109.913 66.0185 110.054 66.0431 110.171 66.0799C110.288 66.1168 110.463 66.1537 110.686 66.2275C110.908 66.2889 111.107 66.3381 111.283 66.375C111.342 66.8052 111.412 67.5058 111.482 68.4891C111.482 68.5383 111.459 68.5752 111.388 68.5998C111.318 68.6366 111.248 68.6489 111.189 68.6489C111.119 68.6489 111.072 68.6243 111.037 68.5875C111.014 68.44 110.979 68.2679 110.92 68.0835C110.862 67.8991 110.768 67.7148 110.651 67.5181C110.534 67.3214 110.405 67.1493 110.253 66.9895C110.1 66.8297 109.925 66.7068 109.714 66.6085C109.503 66.5102 109.293 66.461 109.058 66.461C108.789 66.461 108.543 66.5102 108.332 66.6085C108.122 66.7068 107.958 66.842 107.852 67.0141C107.735 67.1862 107.653 67.3583 107.606 67.5427C107.548 67.727 107.524 67.9114 107.524 68.1081C107.524 68.2556 107.536 68.3908 107.571 68.526C107.606 68.6612 107.642 68.7841 107.7 68.8825C107.747 68.9808 107.817 69.0914 107.911 69.2021C108.005 69.3127 108.087 69.3987 108.157 69.4725C108.227 69.5462 108.332 69.6323 108.473 69.7306C108.613 69.8289 108.719 69.9027 108.801 69.9641C108.883 70.0256 109 70.0994 109.164 70.1977C109.316 70.296 109.433 70.3698 109.515 70.4189C109.585 70.4681 109.714 70.5419 109.878 70.6525C110.042 70.7631 110.182 70.8492 110.288 70.9229C110.393 70.9967 110.534 71.0827 110.686 71.2056C110.85 71.3285 110.979 71.4392 111.084 71.5375C111.189 71.6358 111.306 71.7587 111.424 71.894C111.541 72.0292 111.646 72.1767 111.716 72.3119C111.787 72.4471 111.845 72.5946 111.892 72.7667C111.939 72.9388 111.962 73.1108 111.962 73.2952C111.962 73.6886 111.88 74.0573 111.716 74.4015C111.552 74.7456 111.33 75.0284 111.049 75.2619C110.768 75.4954 110.452 75.6798 110.1 75.8027C109.749 75.9379 109.374 75.9994 109 75.9994C108.777 75.9994 108.543 75.9871 108.286 75.9502C108.028 75.9134 107.817 75.8765 107.642 75.8519C107.478 75.815 107.255 75.7659 106.998 75.7044C106.74 75.6429 106.553 75.5938 106.459 75.5815C106.389 75.1882 106.318 74.7334 106.248 74.2294C106.19 73.7131 106.155 73.4058 106.155 73.2829C106.272 73.16 106.389 73.1108 106.518 73.1108C106.611 73.1108 106.658 73.16 106.67 73.246C106.693 73.3936 106.74 73.5411 106.799 73.7008C106.857 73.8606 106.939 74.0573 107.068 74.2786C107.185 74.5121 107.337 74.7088 107.501 74.8809C107.665 75.0529 107.876 75.2004 108.145 75.3234C108.414 75.4463 108.707 75.5077 109.035 75.5077C109.515 75.5077 109.925 75.3479 110.241 75.0161C110.569 74.6965 110.733 74.254 110.733 73.6886C110.733 73.5411 110.721 73.3936 110.686 73.2706C110.662 73.1354 110.616 73.0248 110.581 72.9265C110.534 72.8281 110.475 72.7298 110.393 72.6315C110.311 72.5331 110.229 72.4594 110.159 72.3856C110.089 72.3242 109.995 72.2504 109.878 72.1644C109.761 72.0783 109.656 72.0169 109.562 71.9677C109.48 71.9185 109.351 71.8448 109.211 71.7587C109.058 71.6727 108.941 71.6112 108.848 71.5498C108.649 71.4269 108.52 71.3531 108.473 71.3162C108.414 71.2794 108.297 71.2056 108.11 71.0827C107.923 70.9598 107.794 70.8737 107.724 70.8123C107.653 70.7508 107.536 70.6648 107.384 70.5296C107.22 70.4067 107.115 70.296 107.044 70.21C106.974 70.1239 106.892 70.0133 106.787 69.8781C106.681 69.7429 106.611 69.6077 106.564 69.4848C106.518 69.3618 106.482 69.2266 106.436 69.0668C106.4 68.9071 106.377 68.7473 106.377 68.5875C106.377 68.0835 106.506 67.6287 106.775 67.2231C107.044 66.8175 107.384 66.5102 107.805 66.2889C108.215 66.0554 108.66 65.957 109.14 65.957Z" fill="white"/>
<path d="M114.643 66.0808C114.784 66.0808 115.334 66.0562 116.294 66.007C116.329 66.0439 116.341 66.1176 116.341 66.2283C116.341 66.3266 116.318 66.4003 116.294 66.4495C116.154 66.4495 115.955 66.4741 115.709 66.511C115.463 66.5601 115.334 66.6093 115.311 66.6831C115.264 66.8428 115.24 67.2116 115.24 67.777V71.4523C115.24 72.6691 115.475 73.5787 115.931 74.181C116.376 74.7587 117.02 75.0415 117.875 75.0415C119.666 75.0415 120.58 73.9475 120.627 71.7718V67.7401C120.627 67.4329 120.615 67.2116 120.603 67.0764C120.591 66.9412 120.545 66.8183 120.486 66.7076C120.451 66.6339 120.299 66.5724 120.053 66.511C119.795 66.4495 119.608 66.4126 119.467 66.4126C119.432 66.3635 119.421 66.2897 119.409 66.1914C119.409 66.093 119.409 66.0193 119.432 65.9824C120.381 66.0316 120.896 66.0562 121.001 66.0562C121.2 66.0562 121.364 66.0562 121.516 66.0439C121.669 66.0316 121.833 66.0193 122.008 66.007C122.184 65.9947 122.36 65.9824 122.523 65.9824C122.594 66.1053 122.594 66.2528 122.523 66.4126C122.395 66.4126 122.184 66.4372 121.903 66.4987C121.622 66.5601 121.458 66.6216 121.423 66.7076C121.364 66.806 121.317 66.9289 121.306 67.0641C121.294 67.1993 121.282 67.4206 121.282 67.7156V71.7227C121.282 73.1485 120.954 74.1933 120.31 74.8694C119.655 75.5454 118.753 75.8773 117.594 75.8773C116.564 75.8773 115.721 75.5454 115.065 74.894C114.374 74.2056 114.023 73.2714 114.023 72.0914V67.7524C114.023 67.1747 113.999 66.806 113.953 66.6585C113.929 66.5847 113.8 66.5356 113.554 66.4864C113.309 66.4372 113.121 66.4249 112.969 66.4249C112.946 66.3881 112.922 66.3143 112.922 66.2037C112.922 66.1053 112.934 66.0316 112.969 65.9824C113.941 66.0562 114.491 66.0808 114.643 66.0808Z" fill="white"/>
<path d="M125.708 74.1192C125.708 74.783 125.732 75.1394 125.79 75.1886C125.872 75.2624 125.978 75.2992 126.106 75.3115C126.235 75.3238 126.458 75.3361 126.797 75.3361H127.605C127.898 75.3361 128.202 75.2992 128.518 75.2378C128.835 75.1763 129.08 75.0657 129.256 74.9428C129.642 74.6601 129.935 74.1684 130.146 73.4432C130.158 73.3817 130.228 73.3571 130.345 73.3571C130.521 73.3571 130.638 73.3817 130.696 73.4432C130.649 73.5661 130.579 73.7751 130.485 74.0578C130.392 74.3405 130.31 74.574 130.251 74.7461C130.193 74.9182 130.134 75.1272 130.064 75.3484C130.005 75.5697 129.959 75.754 129.935 75.9138C129.443 75.9138 128.682 75.9015 127.652 75.8892C126.622 75.877 125.767 75.8647 125.111 75.8647C124.877 75.8647 124.584 75.877 124.221 75.8892C123.858 75.9015 123.601 75.9138 123.425 75.9138C123.39 75.877 123.378 75.8032 123.378 75.6926C123.378 75.5942 123.39 75.5205 123.425 75.4713C123.566 75.4713 123.765 75.4467 124.01 75.4099C124.256 75.3607 124.385 75.3115 124.409 75.2378C124.455 75.078 124.479 74.7092 124.479 74.1438V67.8013C124.479 67.2235 124.455 66.8548 124.409 66.7073C124.385 66.6335 124.256 66.5844 124.01 66.5352C123.765 66.486 123.577 66.4738 123.425 66.4738C123.402 66.4369 123.378 66.3631 123.378 66.2525C123.378 66.1542 123.39 66.0804 123.425 66.0312C124.397 66.0804 124.947 66.105 125.099 66.105C125.24 66.105 125.79 66.0804 126.75 66.0312C126.785 66.0681 126.797 66.1419 126.797 66.2525C126.797 66.3508 126.774 66.4246 126.75 66.4738C126.61 66.4738 126.411 66.4983 126.165 66.5352C125.919 66.5844 125.79 66.6335 125.767 66.7073C125.708 66.8917 125.685 67.2604 125.697 67.8013L125.708 74.1192Z" fill="white"/>
<path d="M136.89 66.032C136.996 66.032 137.148 66.0074 137.324 65.9583C137.499 65.9091 137.64 65.8599 137.733 65.8108C137.839 65.7493 137.932 65.737 138.003 65.7862C138.12 66.8187 138.237 67.6791 138.366 68.3429C138.295 68.4166 138.202 68.4535 138.096 68.4412C138.003 68.4412 137.932 68.4166 137.897 68.3675C137.792 67.8143 137.628 67.3841 137.394 67.0522C137.16 66.7204 136.879 66.5606 136.539 66.5606H134.736V74.1323C134.736 74.71 134.759 75.0788 134.806 75.2263C134.83 75.3 134.958 75.3492 135.204 75.3984C135.45 75.4475 135.637 75.4598 135.79 75.4598C135.813 75.4967 135.837 75.5704 135.837 75.6811C135.837 75.7794 135.825 75.8532 135.79 75.9023C134.818 75.8532 134.268 75.8286 134.139 75.8286C133.998 75.8286 133.436 75.8532 132.464 75.9023C132.429 75.8654 132.418 75.7917 132.418 75.6811C132.418 75.5827 132.441 75.509 132.464 75.4598C132.605 75.4598 132.804 75.4352 133.05 75.3984C133.296 75.3492 133.424 75.3 133.448 75.2263C133.495 75.0665 133.518 74.6977 133.518 74.1323V66.5606H131.692C131.352 66.5606 131.071 66.7204 130.837 67.0522C130.603 67.3841 130.439 67.8266 130.333 68.3675C130.298 68.4166 130.24 68.4412 130.134 68.4412C130.029 68.4535 129.935 68.4166 129.865 68.3429C129.994 67.6791 130.123 66.8187 130.228 65.7862C130.31 65.7493 130.415 65.7616 130.556 65.8354C130.649 65.8845 130.778 65.9337 130.942 65.9706C131.106 66.0197 131.247 66.032 131.352 66.032H136.89Z" fill="white"/>
<path d="M140.883 66.0796C141.024 66.0796 141.574 66.055 142.534 66.0059C142.569 66.0427 142.581 66.1165 142.581 66.2271C142.581 66.3254 142.557 66.3992 142.534 66.4484C142.394 66.4484 142.194 66.4729 141.949 66.5098C141.703 66.559 141.574 66.6082 141.55 66.6819C141.504 66.8417 141.48 67.2105 141.48 67.7759V74.1184C141.48 74.6961 141.504 75.0649 141.55 75.2124C141.574 75.2861 141.703 75.3353 141.949 75.3845C142.194 75.4336 142.382 75.4459 142.534 75.4459C142.557 75.4828 142.581 75.5566 142.581 75.6672C142.581 75.7655 142.569 75.8393 142.534 75.8884C141.562 75.8393 141.012 75.8147 140.883 75.8147C140.743 75.8147 140.181 75.8393 139.209 75.8884C139.174 75.8516 139.162 75.7778 139.162 75.6672C139.162 75.5689 139.174 75.4951 139.209 75.4459C139.349 75.4459 139.548 75.4214 139.794 75.3845C140.04 75.3353 140.169 75.2861 140.192 75.2124C140.239 75.0526 140.263 74.6838 140.263 74.1184V67.7759C140.263 67.1982 140.239 66.8294 140.192 66.6819C140.169 66.6082 140.04 66.559 139.794 66.5098C139.548 66.4607 139.361 66.4484 139.209 66.4484C139.185 66.4115 139.162 66.3377 139.162 66.2271C139.162 66.1288 139.174 66.055 139.209 66.0059C140.181 66.055 140.731 66.0796 140.883 66.0796Z" fill="white"/>
<path d="M145.18 66.0445C145.637 66.0445 145.988 66.0322 146.258 66.0199C146.492 66.4009 147.347 67.5318 148.81 69.4001C150.274 71.2685 151.269 72.596 151.808 73.3826V72.5222V67.753C151.808 67.4457 151.796 67.2245 151.784 67.0893C151.773 66.954 151.726 66.8311 151.667 66.7205C151.632 66.6468 151.48 66.5853 151.199 66.5238C150.929 66.4624 150.719 66.4255 150.59 66.4255C150.555 66.3763 150.543 66.3026 150.531 66.2042C150.531 66.1059 150.531 66.0322 150.555 65.9953C151.503 66.0445 152.042 66.069 152.182 66.069C152.381 66.069 152.545 66.069 152.698 66.0567C152.85 66.0445 153.014 66.0322 153.189 66.0199C153.365 66.0076 153.541 65.9953 153.704 65.9953C153.775 66.1182 153.775 66.2657 153.704 66.4255C153.576 66.4255 153.365 66.4501 153.084 66.5115C152.803 66.573 152.639 66.6345 152.604 66.7205C152.545 66.8188 152.498 66.9418 152.487 67.077C152.475 67.2122 152.463 67.4334 152.463 67.7284V73.776C152.463 74.6241 152.475 75.3124 152.487 75.8287C152.475 75.8902 152.416 75.9147 152.299 75.9147C152.253 75.9147 152.171 75.8902 152.077 75.8287C151.983 75.7795 151.89 75.6935 151.808 75.5706L145.637 67.3843V74.1324C145.637 74.4397 145.649 74.661 145.66 74.7962C145.672 74.9314 145.719 75.0543 145.778 75.1649C145.813 75.2387 145.965 75.3002 146.234 75.3616C146.503 75.4231 146.703 75.4599 146.843 75.4599C146.878 75.5091 146.89 75.5829 146.902 75.6812C146.902 75.7795 146.89 75.8533 146.878 75.8902C145.93 75.841 145.391 75.8164 145.262 75.8164C145.063 75.8164 144.899 75.8164 144.747 75.8287C144.595 75.841 144.431 75.8533 144.255 75.8656C144.08 75.8779 143.904 75.8902 143.74 75.8902C143.67 75.7672 143.67 75.6197 143.74 75.4599C143.869 75.4599 144.08 75.4354 144.361 75.3739C144.642 75.3124 144.806 75.251 144.841 75.1649C144.899 75.0666 144.946 74.9437 144.958 74.8085C144.97 74.6733 144.981 74.452 144.981 74.157V67.7038C144.981 67.3966 144.97 67.1876 144.958 67.0524C144.946 66.9172 144.899 66.7943 144.841 66.6959C144.794 66.6222 144.642 66.5484 144.361 66.487C144.08 66.4255 143.869 66.4009 143.74 66.4009C143.67 66.2411 143.67 66.0936 143.74 65.9707C143.892 65.9707 144.127 65.9953 144.443 66.0076C144.747 66.0322 144.993 66.0445 145.18 66.0445Z" fill="white"/>
<path d="M161.561 73.2466C161.561 72.6689 161.538 72.3002 161.491 72.1527C161.467 72.0789 161.339 72.0297 161.104 71.9806C160.859 71.9314 160.671 71.9191 160.531 71.9191C160.507 71.8822 160.484 71.8085 160.484 71.6979C160.484 71.5995 160.496 71.5258 160.531 71.4766C161.503 71.5258 162.053 71.5504 162.182 71.5504C162.275 71.5504 162.802 71.5258 163.762 71.4766C163.797 71.5135 163.809 71.5872 163.809 71.6979C163.809 71.7962 163.786 71.8699 163.762 71.9191C163.622 71.9191 163.446 71.9437 163.212 71.9806C162.978 72.0297 162.861 72.0789 162.837 72.1527C162.791 72.3124 162.767 72.6812 162.767 73.2466V74.3037C162.767 74.4266 162.791 74.5373 162.837 74.6602C162.884 74.7831 162.908 74.8568 162.908 74.8937C162.908 74.9429 162.884 74.9798 162.849 75.0166C162.814 75.0535 162.732 75.1027 162.615 75.1641C162.334 75.3239 162.1 75.4468 161.901 75.5329C161.713 75.6189 161.385 75.705 160.929 75.8033C160.472 75.8893 159.957 75.9385 159.372 75.9385C158.692 75.9385 158.048 75.8033 157.451 75.5452C156.854 75.2871 156.362 74.9306 155.953 74.4881C155.543 74.0456 155.227 73.5293 154.992 72.9393C154.758 72.3493 154.641 71.7224 154.641 71.071C154.641 70.3826 154.758 69.7312 155.004 69.1043C155.25 68.4774 155.578 67.9366 155.988 67.4695C156.397 67.0024 156.913 66.6337 157.51 66.3632C158.107 66.0928 158.751 65.9453 159.43 65.9453C160.519 65.9453 161.514 66.0436 162.428 66.2526C162.65 67.617 162.755 68.3545 162.755 68.4528C162.755 68.502 162.732 68.5389 162.662 68.588C162.591 68.6372 162.521 68.6495 162.451 68.6495C162.381 68.6495 162.322 68.6372 162.275 68.6003C162.006 67.1499 161.081 66.437 159.5 66.437C158.833 66.437 158.224 66.6582 157.685 67.0884C157.147 67.5187 156.737 68.0718 156.456 68.7232C156.175 69.3747 156.034 70.0508 156.034 70.7637C156.034 71.2308 156.081 71.6979 156.175 72.1404C156.269 72.5829 156.421 73.0131 156.62 73.4187C156.819 73.8243 157.065 74.1685 157.346 74.4758C157.627 74.7831 157.978 75.0166 158.388 75.201C158.798 75.3731 159.243 75.4714 159.723 75.4714C160.261 75.4714 160.835 75.3116 161.432 74.992C161.503 74.9552 161.526 74.8814 161.526 74.7708V73.2466H161.561Z" fill="white"/>
</g>
<path d="M2.65234 111.645L6.39648 103.031C6.45508 102.902 6.55469 102.759 6.69531 102.601C6.8418 102.442 6.95898 102.363 7.04688 102.363C7.12305 102.363 7.19922 102.378 7.27539 102.407C7.35156 102.431 7.39844 102.457 7.41602 102.486L11.0195 111.398C11.1016 111.592 11.1924 111.823 11.292 112.093C11.3916 112.356 11.4648 112.547 11.5117 112.664C11.582 112.828 11.6875 112.969 11.8281 113.086C11.9688 113.197 12.1182 113.273 12.2764 113.314C12.4346 113.355 12.5605 113.385 12.6543 113.402C12.748 113.414 12.8301 113.42 12.9004 113.42C12.9414 113.496 12.9648 113.616 12.9707 113.78C12.9824 113.938 12.9707 114.035 12.9355 114.07C12.8301 114.064 12.4873 114.041 11.9072 114C11.3271 113.953 10.8848 113.93 10.5801 113.93C10.3398 113.93 10.0557 113.938 9.72754 113.956C9.39941 113.974 9.04492 113.994 8.66406 114.018C8.2832 114.047 8.03711 114.064 7.92578 114.07C7.87891 114.023 7.85547 113.903 7.85547 113.71C7.85547 113.517 7.87891 113.42 7.92578 113.42C8.0957 113.42 8.28027 113.394 8.47949 113.341C8.68457 113.282 8.8457 113.203 8.96289 113.104C9.06836 113.016 9.12109 112.916 9.12109 112.805C9.12109 112.758 9.0332 112.512 8.85742 112.066C8.68164 111.621 8.50586 111.188 8.33008 110.766L8.06641 110.133C8.01953 110.086 7.97852 110.062 7.94336 110.062C7.7207 110.051 7.1582 110.045 6.25586 110.045C5.44727 110.045 4.83789 110.051 4.42773 110.062C4.375 110.062 4.33398 110.092 4.30469 110.15C4.01172 110.807 3.80078 111.299 3.67188 111.627C3.41406 112.271 3.28516 112.67 3.28516 112.822C3.28516 112.928 3.34668 113.024 3.46973 113.112C3.59863 113.194 3.74512 113.256 3.90918 113.297C4.0791 113.338 4.22852 113.37 4.35742 113.394C4.49219 113.411 4.58594 113.42 4.63867 113.42C4.68555 113.49 4.70605 113.607 4.7002 113.771C4.7002 113.93 4.68555 114.029 4.65625 114.07C3.83594 113.977 3.20312 113.93 2.75781 113.93C2.30078 113.93 1.66211 113.977 0.841797 114.07C0.806641 114.035 0.783203 113.947 0.771484 113.807C0.759766 113.66 0.771484 113.537 0.806641 113.438C0.935547 113.438 1.15234 113.376 1.45703 113.253C1.76172 113.13 1.95508 113.004 2.03711 112.875C2.23633 112.547 2.44141 112.137 2.65234 111.645ZM6.18555 105.633L4.69141 109.078C4.69141 109.125 4.70312 109.148 4.72656 109.148C5.07812 109.184 5.56445 109.201 6.18555 109.201C6.75977 109.201 7.22852 109.189 7.5918 109.166C7.60352 109.166 7.6123 109.16 7.61816 109.148C7.62988 109.131 7.63867 109.113 7.64453 109.096V109.078L6.18555 105.633ZM62.7783 113.903C62.585 113.704 62.4883 113.473 62.4883 113.209C62.4883 112.945 62.585 112.723 62.7783 112.541C62.9775 112.354 63.209 112.26 63.4727 112.26C63.7363 112.26 63.959 112.354 64.1406 112.541C64.3281 112.723 64.4219 112.945 64.4219 113.209C64.4219 113.473 64.3281 113.704 64.1406 113.903C63.959 114.097 63.7363 114.193 63.4727 114.193C63.209 114.193 62.9775 114.097 62.7783 113.903ZM76.4541 102.398C77.5967 102.398 78.5225 102.677 79.2314 103.233C79.9463 103.79 80.3037 104.578 80.3037 105.598C80.3037 105.938 80.2188 106.277 80.0488 106.617C79.8848 106.951 79.6768 107.241 79.4248 107.487C79.1729 107.733 78.9121 107.941 78.6426 108.111C78.3789 108.281 78.1357 108.393 77.9131 108.445C78.2939 108.955 78.6953 109.482 79.1172 110.027C79.5449 110.572 79.876 110.988 80.1104 111.275L80.4619 111.715C80.708 112.025 80.9717 112.295 81.2529 112.523C81.54 112.752 81.792 112.922 82.0088 113.033C82.2256 113.145 82.4453 113.232 82.668 113.297C82.8906 113.355 83.0488 113.391 83.1426 113.402C83.2363 113.414 83.3154 113.42 83.3799 113.42C83.415 113.496 83.4268 113.616 83.415 113.78C83.4092 113.938 83.3975 114.035 83.3799 114.07C82.7002 114.117 81.9326 114.141 81.0771 114.141C80.4619 114.141 79.9258 114.012 79.4688 113.754C79.0117 113.49 78.6514 113.18 78.3877 112.822L75.54 109.008C75.4229 108.832 75.3174 108.744 75.2236 108.744H74.96V111.451C74.96 112.318 75.0068 112.869 75.1006 113.104C75.1592 113.262 75.5342 113.367 76.2256 113.42C76.2666 113.484 76.2842 113.596 76.2783 113.754C76.2783 113.912 76.2607 114.018 76.2256 114.07C75.4229 113.988 74.585 113.947 73.7119 113.947C72.8623 113.947 72.0361 113.988 71.2334 114.07C71.1982 114.018 71.1777 113.912 71.1719 113.754C71.1719 113.596 71.1924 113.484 71.2334 113.42C71.9248 113.367 72.2998 113.262 72.3584 113.104C72.4521 112.869 72.499 112.318 72.499 111.451V104.982C72.499 104.115 72.4521 103.564 72.3584 103.33C72.3057 103.195 71.9307 103.102 71.2334 103.049C71.1924 102.984 71.1719 102.873 71.1719 102.715C71.1777 102.557 71.1982 102.451 71.2334 102.398C71.7607 102.434 72.5986 102.451 73.7471 102.451C73.9697 102.451 74.3828 102.442 74.9863 102.425C75.5957 102.407 76.085 102.398 76.4541 102.398ZM77.6846 105.773C77.6846 105.393 77.6582 105.056 77.6055 104.763C77.5586 104.47 77.4736 104.191 77.3506 103.928C77.2275 103.664 77.0459 103.462 76.8057 103.321C76.5654 103.175 76.2725 103.102 75.9268 103.102C75.4053 103.102 75.1123 103.172 75.0479 103.312C74.9893 103.453 74.96 103.811 74.96 104.385V108.059H75.7686C76.2842 108.059 76.7324 107.842 77.1133 107.408C77.4941 106.975 77.6846 106.43 77.6846 105.773ZM128.925 113.903C128.731 113.704 128.635 113.473 128.635 113.209C128.635 112.945 128.731 112.723 128.925 112.541C129.124 112.354 129.355 112.26 129.619 112.26C129.883 112.26 130.105 112.354 130.287 112.541C130.475 112.723 130.568 112.945 130.568 113.209C130.568 113.473 130.475 113.704 130.287 113.903C130.105 114.097 129.883 114.193 129.619 114.193C129.355 114.193 129.124 114.097 128.925 113.903ZM138.355 111.645L142.1 103.031C142.158 102.902 142.258 102.759 142.398 102.601C142.545 102.442 142.662 102.363 142.75 102.363C142.826 102.363 142.902 102.378 142.979 102.407C143.055 102.431 143.102 102.457 143.119 102.486L146.723 111.398C146.805 111.592 146.896 111.823 146.995 112.093C147.095 112.356 147.168 112.547 147.215 112.664C147.285 112.828 147.391 112.969 147.531 113.086C147.672 113.197 147.821 113.273 147.979 113.314C148.138 113.355 148.264 113.385 148.357 113.402C148.451 113.414 148.533 113.42 148.604 113.42C148.645 113.496 148.668 113.616 148.674 113.78C148.686 113.938 148.674 114.035 148.639 114.07C148.533 114.064 148.19 114.041 147.61 114C147.03 113.953 146.588 113.93 146.283 113.93C146.043 113.93 145.759 113.938 145.431 113.956C145.103 113.974 144.748 113.994 144.367 114.018C143.986 114.047 143.74 114.064 143.629 114.07C143.582 114.023 143.559 113.903 143.559 113.71C143.559 113.517 143.582 113.42 143.629 113.42C143.799 113.42 143.983 113.394 144.183 113.341C144.388 113.282 144.549 113.203 144.666 113.104C144.771 113.016 144.824 112.916 144.824 112.805C144.824 112.758 144.736 112.512 144.561 112.066C144.385 111.621 144.209 111.188 144.033 110.766L143.77 110.133C143.723 110.086 143.682 110.062 143.646 110.062C143.424 110.051 142.861 110.045 141.959 110.045C141.15 110.045 140.541 110.051 140.131 110.062C140.078 110.062 140.037 110.092 140.008 110.15C139.715 110.807 139.504 111.299 139.375 111.627C139.117 112.271 138.988 112.67 138.988 112.822C138.988 112.928 139.05 113.024 139.173 113.112C139.302 113.194 139.448 113.256 139.612 113.297C139.782 113.338 139.932 113.37 140.061 113.394C140.195 113.411 140.289 113.42 140.342 113.42C140.389 113.49 140.409 113.607 140.403 113.771C140.403 113.93 140.389 114.029 140.359 114.07C139.539 113.977 138.906 113.93 138.461 113.93C138.004 113.93 137.365 113.977 136.545 114.07C136.51 114.035 136.486 113.947 136.475 113.807C136.463 113.66 136.475 113.537 136.51 113.438C136.639 113.438 136.855 113.376 137.16 113.253C137.465 113.13 137.658 113.004 137.74 112.875C137.939 112.547 138.145 112.137 138.355 111.645ZM141.889 105.633L140.395 109.078C140.395 109.125 140.406 109.148 140.43 109.148C140.781 109.184 141.268 109.201 141.889 109.201C142.463 109.201 142.932 109.189 143.295 109.166C143.307 109.166 143.315 109.16 143.321 109.148C143.333 109.131 143.342 109.113 143.348 109.096V109.078L141.889 105.633Z" fill="white"/>
<path d="M18.5342 106.301C18.915 106.301 19.2373 106.351 19.501 106.45C19.7646 106.55 19.9814 106.69 20.1514 106.872C20.3213 107.054 20.4531 107.303 20.5469 107.619C20.6465 107.936 20.7139 108.281 20.749 108.656C20.7842 109.031 20.8018 109.488 20.8018 110.027V111.961C20.8018 112.641 20.8311 113.074 20.8896 113.262C20.9131 113.344 21.0596 113.411 21.3291 113.464C21.6045 113.517 21.8271 113.543 21.9971 113.543C22.0322 113.59 22.0498 113.675 22.0498 113.798C22.0557 113.921 22.0381 114.006 21.9971 114.053C20.7959 113.994 20.1689 113.965 20.1162 113.965C19.9111 113.965 19.7119 113.971 19.5186 113.982C19.3311 113.988 19.1143 114 18.8682 114.018C18.6221 114.035 18.417 114.047 18.2529 114.053C18.2119 114.006 18.1914 113.921 18.1914 113.798C18.1973 113.675 18.2178 113.59 18.2529 113.543C18.4229 113.543 18.6426 113.517 18.9121 113.464C19.1875 113.411 19.3369 113.344 19.3604 113.262C19.4189 113.074 19.4482 112.641 19.4482 111.961V110.203C19.4482 109.096 19.3281 108.34 19.0879 107.936C18.8535 107.525 18.3994 107.32 17.7256 107.32C17.5264 107.32 17.2891 107.391 17.0137 107.531C16.7441 107.672 16.5156 107.818 16.3281 107.971C16.1465 108.123 16.0557 108.229 16.0557 108.287V111.961C16.0557 112.641 16.085 113.074 16.1436 113.262C16.167 113.344 16.3135 113.411 16.583 113.464C16.8584 113.517 17.0811 113.543 17.251 113.543C17.2861 113.59 17.3037 113.675 17.3037 113.798C17.3096 113.921 17.292 114.006 17.251 114.053C16.0498 113.994 15.4229 113.965 15.3701 113.965C15.165 113.965 14.9658 113.971 14.7725 113.982C14.585 113.988 14.3682 114 14.1221 114.018C13.876 114.035 13.6709 114.047 13.5068 114.053C13.4658 114.006 13.4453 113.921 13.4453 113.798C13.4512 113.675 13.4717 113.59 13.5068 113.543C13.6768 113.543 13.8965 113.517 14.166 113.464C14.4414 113.411 14.5908 113.344 14.6143 113.262C14.6729 113.074 14.7021 112.641 14.7021 111.961V108.762C14.7021 108.246 14.6729 107.918 14.6143 107.777C14.5791 107.689 14.4678 107.619 14.2803 107.566C14.0928 107.514 13.9346 107.484 13.8057 107.479C13.6826 107.467 13.5713 107.461 13.4717 107.461C13.4482 107.438 13.4336 107.367 13.4277 107.25C13.4277 107.133 13.4424 107.051 13.4717 107.004C14.4736 106.869 15.3115 106.623 15.9854 106.266C16.0264 106.266 16.0674 106.301 16.1084 106.371C16.1553 106.441 16.1787 106.5 16.1787 106.547C16.1084 107.039 16.0732 107.373 16.0732 107.549C16.0732 107.596 16.085 107.619 16.1084 107.619C16.1201 107.619 16.1377 107.607 16.1611 107.584C16.3955 107.326 16.7559 107.048 17.2422 106.749C17.7285 106.45 18.1592 106.301 18.5342 106.301ZM25.5039 113.191C25.791 113.191 26.1162 113.098 26.4795 112.91C26.8486 112.717 27.0332 112.57 27.0332 112.471V110.08C26.125 110.35 25.5801 110.52 25.3984 110.59C25.0645 110.719 24.8008 110.9 24.6074 111.135C24.4199 111.363 24.3262 111.639 24.3262 111.961C24.3262 112.289 24.4404 112.576 24.6689 112.822C24.8975 113.068 25.1758 113.191 25.5039 113.191ZM26.4531 106.336C26.9629 106.336 27.4082 106.57 27.7891 107.039C28.1758 107.508 28.3691 108.076 28.3691 108.744V112.365C28.3691 112.916 28.5508 113.191 28.9141 113.191C28.9668 113.191 29.0166 113.188 29.0635 113.183C29.1162 113.171 29.1602 113.159 29.1953 113.147C29.2305 113.13 29.2656 113.112 29.3008 113.095C29.3418 113.071 29.3711 113.054 29.3887 113.042C29.4121 113.024 29.4326 113.007 29.4502 112.989C29.4736 112.972 29.4883 112.963 29.4941 112.963C29.541 112.963 29.5645 113.01 29.5645 113.104C29.5645 113.227 29.5352 113.338 29.4766 113.438C29.3418 113.561 29.1279 113.704 28.835 113.868C28.5479 114.026 28.3223 114.105 28.1582 114.105C27.9121 114.105 27.6865 113.988 27.4814 113.754C27.2764 113.514 27.1445 113.25 27.0859 112.963C26.916 113.133 26.5791 113.373 26.0752 113.684C25.5771 113.988 25.1934 114.141 24.9238 114.141C24.3438 114.141 23.8545 113.947 23.4561 113.561C23.0635 113.168 22.8672 112.688 22.8672 112.119C22.8672 111.785 22.958 111.489 23.1396 111.231C23.3271 110.968 23.5293 110.795 23.7461 110.713C23.9395 110.643 24.291 110.52 24.8008 110.344C25.3105 110.168 25.7354 110.019 26.0752 109.896C26.4209 109.772 26.6699 109.676 26.8223 109.605C26.9102 109.57 26.9658 109.526 26.9893 109.474C27.0186 109.421 27.0332 109.318 27.0332 109.166V108.691C27.0332 108.275 26.8838 107.892 26.585 107.54C26.292 107.183 25.9375 107.004 25.5215 107.004C25.2285 107.004 25.0088 107.095 24.8623 107.276C24.7217 107.452 24.6191 107.725 24.5547 108.094C24.4551 108.656 24.1797 108.938 23.7285 108.938C23.5527 108.938 23.4092 108.861 23.2979 108.709C23.1865 108.557 23.1309 108.387 23.1309 108.199C23.1309 108.152 23.1426 108.082 23.166 107.988C23.1953 107.889 23.2246 107.818 23.2539 107.777C23.6172 107.438 24.0977 107.112 24.6953 106.802C25.2988 106.491 25.8848 106.336 26.4531 106.336ZM31.3662 104.191C31.3662 103.723 31.3369 103.418 31.2783 103.277C31.1904 103.066 30.833 102.961 30.2061 102.961C30.2002 102.961 30.1943 102.926 30.1885 102.855C30.1826 102.779 30.1797 102.703 30.1797 102.627C30.1855 102.551 30.2002 102.51 30.2236 102.504C31.0322 102.422 31.8643 102.188 32.7197 101.801C32.7607 101.801 32.8018 101.833 32.8428 101.897C32.8896 101.956 32.9131 102.018 32.9131 102.082C32.7842 102.457 32.7197 102.967 32.7197 103.611V111.961C32.7197 112.641 32.749 113.074 32.8076 113.262C32.8311 113.344 32.9775 113.411 33.2471 113.464C33.5225 113.517 33.7451 113.543 33.915 113.543C33.9502 113.59 33.9678 113.675 33.9678 113.798C33.9736 113.921 33.9561 114.006 33.915 114.053C32.7139 113.994 32.0869 113.965 32.0342 113.965C31.8291 113.965 31.6299 113.971 31.4365 113.982C31.249 113.988 31.0322 114 30.7861 114.018C30.54 114.035 30.335 114.047 30.1709 114.053C30.1299 114.006 30.1094 113.921 30.1094 113.798C30.1152 113.675 30.1357 113.59 30.1709 113.543C30.3408 113.543 30.5605 113.517 30.8301 113.464C31.1055 113.411 31.2549 113.344 31.2783 113.262C31.3369 113.074 31.3662 112.641 31.3662 111.961V104.191ZM35.9541 106.529C36.6279 106.529 37.2139 106.5 37.7119 106.441C37.7354 106.494 37.7383 106.594 37.7207 106.74C37.709 106.881 37.6826 106.951 37.6416 106.951C37.5654 106.951 37.4688 106.957 37.3516 106.969C37.2402 106.98 37.1172 107.013 36.9824 107.065C36.8477 107.112 36.7803 107.174 36.7803 107.25C36.7803 107.273 36.7861 107.297 36.7979 107.32L38.6611 112.066C39.2588 110.508 39.7803 109.178 40.2256 108.076C40.2959 107.906 40.3311 107.719 40.3311 107.514C40.3311 107.338 40.2373 107.2 40.0498 107.101C39.8623 107.001 39.6162 106.951 39.3115 106.951C39.2705 106.951 39.25 106.878 39.25 106.731C39.25 106.585 39.2705 106.488 39.3115 106.441C39.751 106.5 40.2783 106.529 40.8936 106.529C41.292 106.529 41.7842 106.5 42.3701 106.441C42.4053 106.494 42.4141 106.594 42.3965 106.74C42.3789 106.881 42.3525 106.951 42.3174 106.951C42.165 106.951 41.9629 106.998 41.7109 107.092C41.4648 107.186 41.2979 107.338 41.21 107.549C39.9561 110.537 39.0771 112.652 38.5732 113.895C38.5146 114.035 38.3887 114.363 38.1953 114.879C38.002 115.395 37.832 115.811 37.6855 116.127C37.5391 116.443 37.3691 116.742 37.1758 117.023C36.7305 117.68 36.2207 118.008 35.6465 118.008C35.1367 118.008 34.8818 117.756 34.8818 117.252C34.8818 117.082 34.9521 116.912 35.0928 116.742C35.5615 116.742 35.9277 116.684 36.1914 116.566C36.4551 116.455 36.751 116.18 37.0791 115.74C37.2021 115.576 37.3633 115.271 37.5625 114.826C37.7676 114.381 37.8877 114.094 37.9229 113.965C36.751 110.977 35.8311 108.756 35.1631 107.303C35.0518 107.068 34.7295 106.951 34.1963 106.951C34.1787 106.951 34.1699 106.872 34.1699 106.714C34.1699 106.55 34.1787 106.459 34.1963 106.441C34.7529 106.5 35.3389 106.529 35.9541 106.529ZM45.7539 106.318C46.0176 106.318 46.3428 106.354 46.7295 106.424C47.1162 106.488 47.3887 106.529 47.5469 106.547C47.6641 107.074 47.7344 107.719 47.7578 108.48C47.7578 108.539 47.6992 108.568 47.582 108.568C47.4531 108.568 47.3535 108.539 47.2832 108.48C47.1777 108.088 46.9902 107.722 46.7207 107.382C46.4512 107.036 46.1465 106.863 45.8066 106.863C45.4023 106.863 45.0918 106.966 44.875 107.171C44.6641 107.376 44.5586 107.643 44.5586 107.971C44.5586 108.117 44.5791 108.255 44.6201 108.384C44.667 108.507 44.7168 108.609 44.7695 108.691C44.8223 108.773 44.9102 108.864 45.0332 108.964C45.1621 109.063 45.2617 109.137 45.332 109.184C45.4023 109.23 45.5283 109.307 45.71 109.412C45.8916 109.512 46.0176 109.582 46.0879 109.623C46.1406 109.652 46.2578 109.72 46.4395 109.825C46.6211 109.931 46.7529 110.013 46.835 110.071C46.9229 110.124 47.0459 110.206 47.2041 110.317C47.3682 110.423 47.4912 110.522 47.5732 110.616C47.6553 110.704 47.7432 110.812 47.8369 110.941C47.9365 111.064 48.0068 111.196 48.0479 111.337C48.0889 111.472 48.1094 111.615 48.1094 111.768C48.1094 112.465 47.8398 113.045 47.3008 113.508C46.7676 113.965 46.1348 114.193 45.4023 114.193C45.1621 114.193 44.9365 114.176 44.7256 114.141C44.5205 114.111 44.2773 114.064 43.9961 114C43.7207 113.936 43.5039 113.889 43.3457 113.859C43.2754 113.678 43.208 113.388 43.1436 112.989C43.0791 112.585 43.0469 112.266 43.0469 112.031C43.1406 111.961 43.2461 111.926 43.3633 111.926C43.4336 111.926 43.4863 111.938 43.5215 111.961C43.6387 112.377 43.876 112.761 44.2334 113.112C44.5908 113.458 44.9863 113.631 45.4199 113.631C45.7891 113.631 46.0908 113.52 46.3252 113.297C46.5654 113.068 46.6855 112.758 46.6855 112.365C46.6855 112.16 46.6475 111.976 46.5713 111.812C46.501 111.647 46.3809 111.495 46.2109 111.354C46.041 111.214 45.8887 111.103 45.7539 111.021C45.6191 110.933 45.4141 110.818 45.1387 110.678C44.8633 110.531 44.6641 110.42 44.541 110.344C44.1309 110.109 43.8057 109.846 43.5654 109.553C43.3252 109.254 43.2051 108.891 43.2051 108.463C43.2051 107.836 43.46 107.323 43.9697 106.925C44.4795 106.521 45.0742 106.318 45.7539 106.318ZM50.8516 108.99C50.8516 108.99 51.8066 108.99 53.7168 108.99C53.9688 108.99 54.1035 108.855 54.1211 108.586C54.127 108.469 54.1035 108.322 54.0508 108.146C53.998 107.971 53.9189 107.789 53.8135 107.602C53.708 107.414 53.5557 107.256 53.3564 107.127C53.1572 106.998 52.9316 106.934 52.6797 106.934C52.4043 106.934 52.1523 107.004 51.9238 107.145C51.6953 107.285 51.5137 107.458 51.3789 107.663C51.25 107.862 51.1416 108.064 51.0537 108.27C50.9717 108.469 50.9131 108.639 50.8779 108.779C50.8486 108.92 50.8398 108.99 50.8516 108.99ZM50.7637 109.641C50.7402 110.713 51.0039 111.545 51.5547 112.137C52.1113 112.723 52.8027 113.016 53.6289 113.016C54.0508 113.016 54.4316 112.913 54.7715 112.708C55.1172 112.503 55.3809 112.295 55.5625 112.084C55.5684 112.084 55.583 112.096 55.6064 112.119C55.6299 112.137 55.6504 112.166 55.668 112.207C55.6914 112.248 55.7031 112.289 55.7031 112.33C55.7031 112.424 55.668 112.529 55.5977 112.646C55.5039 112.799 55.3867 112.951 55.2461 113.104C55.1055 113.256 54.9297 113.414 54.7188 113.578C54.5078 113.742 54.2529 113.877 53.9541 113.982C53.6611 114.088 53.3535 114.141 53.0312 114.141C52.0059 114.141 51.1621 113.795 50.5 113.104C49.8438 112.406 49.5156 111.533 49.5156 110.484C49.5156 109.916 49.624 109.368 49.8408 108.841C50.0576 108.313 50.333 107.868 50.667 107.505C51.001 107.142 51.373 106.852 51.7832 106.635C52.1934 106.412 52.5918 106.301 52.9785 106.301C53.377 106.301 53.7373 106.362 54.0596 106.485C54.3818 106.608 54.6367 106.761 54.8242 106.942C55.0117 107.118 55.167 107.32 55.29 107.549C55.4131 107.777 55.498 107.985 55.5449 108.173C55.5918 108.36 55.6152 108.533 55.6152 108.691C55.6152 108.961 55.583 109.166 55.5186 109.307C55.46 109.441 55.3516 109.512 55.1934 109.518C54.9531 109.535 54.1914 109.562 52.9082 109.597C51.6309 109.626 50.916 109.641 50.7637 109.641ZM84.7773 108.99C84.7773 108.99 85.7324 108.99 87.6426 108.99C87.8945 108.99 88.0293 108.855 88.0469 108.586C88.0527 108.469 88.0293 108.322 87.9766 108.146C87.9238 107.971 87.8447 107.789 87.7393 107.602C87.6338 107.414 87.4814 107.256 87.2822 107.127C87.083 106.998 86.8574 106.934 86.6055 106.934C86.3301 106.934 86.0781 107.004 85.8496 107.145C85.6211 107.285 85.4395 107.458 85.3047 107.663C85.1758 107.862 85.0674 108.064 84.9795 108.27C84.8975 108.469 84.8389 108.639 84.8037 108.779C84.7744 108.92 84.7656 108.99 84.7773 108.99ZM84.6895 109.641C84.666 110.713 84.9297 111.545 85.4805 112.137C86.0371 112.723 86.7285 113.016 87.5547 113.016C87.9766 113.016 88.3574 112.913 88.6973 112.708C89.043 112.503 89.3066 112.295 89.4883 112.084C89.4941 112.084 89.5088 112.096 89.5322 112.119C89.5557 112.137 89.5762 112.166 89.5938 112.207C89.6172 112.248 89.6289 112.289 89.6289 112.33C89.6289 112.424 89.5938 112.529 89.5234 112.646C89.4297 112.799 89.3125 112.951 89.1719 113.104C89.0312 113.256 88.8555 113.414 88.6445 113.578C88.4336 113.742 88.1787 113.877 87.8799 113.982C87.5869 114.088 87.2793 114.141 86.957 114.141C85.9316 114.141 85.0879 113.795 84.4258 113.104C83.7695 112.406 83.4414 111.533 83.4414 110.484C83.4414 109.916 83.5498 109.368 83.7666 108.841C83.9834 108.313 84.2588 107.868 84.5928 107.505C84.9268 107.142 85.2988 106.852 85.709 106.635C86.1191 106.412 86.5176 106.301 86.9043 106.301C87.3027 106.301 87.6631 106.362 87.9854 106.485C88.3076 106.608 88.5625 106.761 88.75 106.942C88.9375 107.118 89.0928 107.32 89.2158 107.549C89.3389 107.777 89.4238 107.985 89.4707 108.173C89.5176 108.36 89.541 108.533 89.541 108.691C89.541 108.961 89.5088 109.166 89.4443 109.307C89.3857 109.441 89.2773 109.512 89.1191 109.518C88.8789 109.535 88.1172 109.562 86.834 109.597C85.5566 109.626 84.8418 109.641 84.6895 109.641ZM93.584 113.191C93.8711 113.191 94.1963 113.098 94.5596 112.91C94.9287 112.717 95.1133 112.57 95.1133 112.471V110.08C94.2051 110.35 93.6602 110.52 93.4785 110.59C93.1445 110.719 92.8809 110.9 92.6875 111.135C92.5 111.363 92.4062 111.639 92.4062 111.961C92.4062 112.289 92.5205 112.576 92.749 112.822C92.9775 113.068 93.2559 113.191 93.584 113.191ZM94.5332 106.336C95.043 106.336 95.4883 106.57 95.8691 107.039C96.2559 107.508 96.4492 108.076 96.4492 108.744V112.365C96.4492 112.916 96.6309 113.191 96.9941 113.191C97.0469 113.191 97.0967 113.188 97.1436 113.183C97.1963 113.171 97.2402 113.159 97.2754 113.147C97.3105 113.13 97.3457 113.112 97.3809 113.095C97.4219 113.071 97.4512 113.054 97.4688 113.042C97.4922 113.024 97.5127 113.007 97.5303 112.989C97.5537 112.972 97.5684 112.963 97.5742 112.963C97.6211 112.963 97.6445 113.01 97.6445 113.104C97.6445 113.227 97.6152 113.338 97.5566 113.438C97.4219 113.561 97.208 113.704 96.915 113.868C96.6279 114.026 96.4023 114.105 96.2383 114.105C95.9922 114.105 95.7666 113.988 95.5615 113.754C95.3564 113.514 95.2246 113.25 95.166 112.963C94.9961 113.133 94.6592 113.373 94.1553 113.684C93.6572 113.988 93.2734 114.141 93.0039 114.141C92.4238 114.141 91.9346 113.947 91.5361 113.561C91.1436 113.168 90.9473 112.688 90.9473 112.119C90.9473 111.785 91.0381 111.489 91.2197 111.231C91.4072 110.968 91.6094 110.795 91.8262 110.713C92.0195 110.643 92.3711 110.52 92.8809 110.344C93.3906 110.168 93.8154 110.019 94.1553 109.896C94.501 109.772 94.75 109.676 94.9023 109.605C94.9902 109.57 95.0459 109.526 95.0693 109.474C95.0986 109.421 95.1133 109.318 95.1133 109.166V108.691C95.1133 108.275 94.9639 107.892 94.665 107.54C94.3721 107.183 94.0176 107.004 93.6016 107.004C93.3086 107.004 93.0889 107.095 92.9424 107.276C92.8018 107.452 92.6992 107.725 92.6348 108.094C92.5352 108.656 92.2598 108.938 91.8086 108.938C91.6328 108.938 91.4893 108.861 91.3779 108.709C91.2666 108.557 91.2109 108.387 91.2109 108.199C91.2109 108.152 91.2227 108.082 91.2461 107.988C91.2754 107.889 91.3047 107.818 91.334 107.777C91.6973 107.438 92.1777 107.112 92.7754 106.802C93.3789 106.491 93.9648 106.336 94.5332 106.336ZM99.4463 104.191C99.4463 103.723 99.417 103.418 99.3584 103.277C99.2705 103.066 98.9131 102.961 98.2861 102.961C98.2803 102.961 98.2744 102.926 98.2686 102.855C98.2627 102.779 98.2598 102.703 98.2598 102.627C98.2656 102.551 98.2803 102.51 98.3037 102.504C99.1123 102.422 99.9443 102.188 100.8 101.801C100.841 101.801 100.882 101.833 100.923 101.897C100.97 101.956 100.993 102.018 100.993 102.082C100.864 102.457 100.8 102.967 100.8 103.611V111.961C100.8 112.641 100.829 113.074 100.888 113.262C100.911 113.344 101.058 113.411 101.327 113.464C101.603 113.517 101.825 113.543 101.995 113.543C102.03 113.59 102.048 113.675 102.048 113.798C102.054 113.921 102.036 114.006 101.995 114.053C100.794 113.994 100.167 113.965 100.114 113.965C99.9092 113.965 99.71 113.971 99.5166 113.982C99.3291 113.988 99.1123 114 98.8662 114.018C98.6201 114.035 98.415 114.047 98.251 114.053C98.21 114.006 98.1895 113.921 98.1895 113.798C98.1953 113.675 98.2158 113.59 98.251 113.543C98.4209 113.543 98.6406 113.517 98.9102 113.464C99.1855 113.411 99.335 113.344 99.3584 113.262C99.417 113.074 99.4463 112.641 99.4463 111.961V104.191ZM104.113 104.2C103.943 104.03 103.858 103.822 103.858 103.576C103.858 103.33 103.943 103.122 104.113 102.952C104.283 102.782 104.491 102.697 104.737 102.697C104.983 102.697 105.191 102.782 105.361 102.952C105.531 103.122 105.616 103.33 105.616 103.576C105.616 103.822 105.531 104.03 105.361 104.2C105.191 104.37 104.983 104.455 104.737 104.455C104.491 104.455 104.283 104.37 104.113 104.2ZM105.546 108.287V111.961C105.546 112.641 105.575 113.074 105.634 113.262C105.657 113.344 105.804 113.411 106.073 113.464C106.349 113.517 106.571 113.543 106.741 113.543C106.776 113.59 106.794 113.675 106.794 113.798C106.8 113.921 106.782 114.006 106.741 114.053C105.54 113.994 104.913 113.965 104.86 113.965C104.655 113.965 104.456 113.971 104.263 113.982C104.075 113.988 103.858 114 103.612 114.018C103.366 114.035 103.161 114.047 102.997 114.053C102.956 114.006 102.936 113.921 102.936 113.798C102.941 113.675 102.962 113.59 102.997 113.543C103.167 113.543 103.387 113.517 103.656 113.464C103.932 113.411 104.081 113.344 104.104 113.262C104.151 113.115 104.181 112.682 104.192 111.961V108.691C104.192 108.223 104.163 107.918 104.104 107.777C104.069 107.689 103.958 107.619 103.771 107.566C103.583 107.514 103.425 107.484 103.296 107.479C103.173 107.467 103.062 107.461 102.962 107.461C102.938 107.438 102.924 107.367 102.918 107.25C102.918 107.133 102.933 107.051 102.962 107.004C103.964 106.869 104.802 106.623 105.476 106.266C105.517 106.266 105.558 106.301 105.599 106.371C105.646 106.441 105.669 106.5 105.669 106.547C105.587 107.121 105.546 107.508 105.546 107.707V108.287ZM109.703 106.424H111.953C112.615 106.424 113.33 106.377 114.098 106.283C114.133 106.342 114.15 106.482 114.15 106.705C111.045 111.123 109.492 113.35 109.492 113.385H111.953C112.451 113.385 112.867 113.229 113.201 112.919C113.541 112.603 113.77 112.23 113.887 111.803C113.898 111.732 113.939 111.697 114.01 111.697C114.08 111.697 114.162 111.721 114.256 111.768C114.35 111.809 114.42 111.855 114.467 111.908C114.115 112.764 113.852 113.461 113.676 114H107.963C107.898 113.982 107.837 113.938 107.778 113.868C107.726 113.792 107.699 113.719 107.699 113.648C107.699 113.578 107.705 113.537 107.717 113.525L112.234 107.039L109.773 107.021C109.615 107.021 109.469 107.048 109.334 107.101C109.199 107.147 109.091 107.203 109.009 107.268C108.933 107.332 108.856 107.417 108.78 107.522C108.71 107.628 108.657 107.716 108.622 107.786C108.593 107.856 108.558 107.947 108.517 108.059C108.476 108.164 108.449 108.229 108.438 108.252C108.42 108.287 108.37 108.322 108.288 108.357C108.212 108.393 108.133 108.41 108.051 108.41C107.922 108.41 107.857 108.393 107.857 108.357C107.998 107.836 108.092 107.145 108.139 106.283C108.76 106.377 109.281 106.424 109.703 106.424ZM116.998 108.99C116.998 108.99 117.953 108.99 119.863 108.99C120.115 108.99 120.25 108.855 120.268 108.586C120.273 108.469 120.25 108.322 120.197 108.146C120.145 107.971 120.065 107.789 119.96 107.602C119.854 107.414 119.702 107.256 119.503 107.127C119.304 106.998 119.078 106.934 118.826 106.934C118.551 106.934 118.299 107.004 118.07 107.145C117.842 107.285 117.66 107.458 117.525 107.663C117.396 107.862 117.288 108.064 117.2 108.27C117.118 108.469 117.06 108.639 117.024 108.779C116.995 108.92 116.986 108.99 116.998 108.99ZM116.91 109.641C116.887 110.713 117.15 111.545 117.701 112.137C118.258 112.723 118.949 113.016 119.775 113.016C120.197 113.016 120.578 112.913 120.918 112.708C121.264 112.503 121.527 112.295 121.709 112.084C121.715 112.084 121.729 112.096 121.753 112.119C121.776 112.137 121.797 112.166 121.814 112.207C121.838 112.248 121.85 112.289 121.85 112.33C121.85 112.424 121.814 112.529 121.744 112.646C121.65 112.799 121.533 112.951 121.393 113.104C121.252 113.256 121.076 113.414 120.865 113.578C120.654 113.742 120.399 113.877 120.101 113.982C119.808 114.088 119.5 114.141 119.178 114.141C118.152 114.141 117.309 113.795 116.646 113.104C115.99 112.406 115.662 111.533 115.662 110.484C115.662 109.916 115.771 109.368 115.987 108.841C116.204 108.313 116.479 107.868 116.813 107.505C117.147 107.142 117.52 106.852 117.93 106.635C118.34 106.412 118.738 106.301 119.125 106.301C119.523 106.301 119.884 106.362 120.206 106.485C120.528 106.608 120.783 106.761 120.971 106.942C121.158 107.118 121.313 107.32 121.437 107.549C121.56 107.777 121.645 107.985 121.691 108.173C121.738 108.36 121.762 108.533 121.762 108.691C121.762 108.961 121.729 109.166 121.665 109.307C121.606 109.441 121.498 109.512 121.34 109.518C121.1 109.535 120.338 109.562 119.055 109.597C117.777 109.626 117.062 109.641 116.91 109.641ZM154.712 108.375C154.712 107.918 154.665 107.602 154.571 107.426C154.442 107.191 154.114 107.074 153.587 107.074C153.558 107.045 153.54 106.975 153.534 106.863C153.534 106.746 153.552 106.664 153.587 106.617C154.548 106.582 155.351 106.465 155.995 106.266C156.036 106.266 156.077 106.324 156.118 106.441C156.165 106.553 156.188 106.635 156.188 106.688C156.106 106.852 156.065 107.232 156.065 107.83V108.639V111.521C156.065 112.031 156.106 112.477 156.188 112.857C156.206 112.934 156.271 112.995 156.382 113.042C156.493 113.089 156.604 113.121 156.716 113.139C156.833 113.15 156.944 113.159 157.05 113.165C157.161 113.171 157.22 113.174 157.226 113.174C157.261 113.191 157.278 113.256 157.278 113.367C157.278 113.402 157.264 113.458 157.234 113.534C157.205 113.61 157.173 113.648 157.138 113.648C156.968 113.66 156.771 113.684 156.549 113.719C156.332 113.754 156.127 113.795 155.934 113.842C155.746 113.889 155.57 113.936 155.406 113.982C155.242 114.029 155.107 114.067 155.002 114.097L154.853 114.141C154.812 114.141 154.776 114.111 154.747 114.053C154.724 113.994 154.712 113.93 154.712 113.859V113.051L154.677 112.963C154.407 113.25 154.029 113.517 153.543 113.763C153.057 114.003 152.603 114.123 152.181 114.123C151.823 114.123 151.51 114.047 151.24 113.895C150.971 113.742 150.757 113.552 150.599 113.323C150.446 113.095 150.32 112.816 150.221 112.488C150.127 112.16 150.062 111.853 150.027 111.565C149.998 111.272 149.983 110.959 149.983 110.625V108.375C149.983 107.918 149.937 107.602 149.843 107.426C149.714 107.191 149.386 107.074 148.858 107.074C148.829 107.045 148.812 106.975 148.806 106.863C148.806 106.746 148.823 106.664 148.858 106.617C149.819 106.582 150.622 106.465 151.267 106.266C151.308 106.266 151.349 106.312 151.39 106.406C151.437 106.494 151.46 106.564 151.46 106.617C151.378 106.781 151.337 107.186 151.337 107.83V108.586V110.414C151.337 111.352 151.478 112.04 151.759 112.479C152.04 112.919 152.485 113.139 153.095 113.139C153.476 113.139 153.842 113.033 154.193 112.822C154.545 112.605 154.718 112.389 154.712 112.172V108.375ZM160.434 106.406H162.701C162.76 106.406 162.789 106.471 162.789 106.6C162.789 106.787 162.707 106.963 162.543 107.127H160.434V111.732C160.434 112.693 160.82 113.174 161.594 113.174C161.98 113.174 162.361 113.039 162.736 112.77C162.771 112.787 162.789 112.828 162.789 112.893C162.789 113.021 162.766 113.109 162.719 113.156C162.602 113.285 162.47 113.414 162.323 113.543C162.183 113.666 161.978 113.795 161.708 113.93C161.438 114.059 161.172 114.123 160.908 114.123C160.668 114.123 160.445 114.094 160.24 114.035C160.035 113.977 159.842 113.88 159.66 113.745C159.479 113.61 159.335 113.414 159.229 113.156C159.13 112.898 159.08 112.588 159.08 112.225V107.127H158.061C158.002 107.127 157.973 107.074 157.973 106.969C157.973 106.939 158.037 106.852 158.166 106.705C158.295 106.553 158.383 106.453 158.43 106.406H159.08V105.299C159.174 105.188 159.309 105.038 159.484 104.851C159.66 104.657 159.812 104.49 159.941 104.35C160.07 104.209 160.141 104.133 160.152 104.121C160.182 104.092 160.217 104.071 160.258 104.06C160.305 104.048 160.346 104.048 160.381 104.06C160.416 104.065 160.434 104.08 160.434 104.104V106.406ZM167.359 106.863C166.885 106.863 166.489 107.016 166.173 107.32C165.856 107.625 165.634 107.997 165.505 108.437C165.382 108.876 165.32 109.365 165.32 109.904C165.32 110.496 165.411 111.064 165.593 111.609C165.774 112.148 166.056 112.605 166.437 112.98C166.817 113.355 167.26 113.543 167.764 113.543C168.238 113.543 168.634 113.391 168.95 113.086C169.267 112.781 169.486 112.412 169.609 111.979C169.738 111.539 169.803 111.053 169.803 110.52C169.803 109.934 169.709 109.368 169.521 108.823C169.34 108.272 169.059 107.81 168.678 107.435C168.297 107.054 167.857 106.863 167.359 106.863ZM167.553 106.283C168.695 106.283 169.606 106.644 170.286 107.364C170.972 108.079 171.314 108.996 171.314 110.115C171.314 111.252 170.957 112.204 170.242 112.972C169.533 113.739 168.648 114.123 167.588 114.123C166.445 114.123 165.528 113.76 164.837 113.033C164.151 112.301 163.809 111.375 163.809 110.256C163.809 109.125 164.166 108.182 164.881 107.426C165.596 106.664 166.486 106.283 167.553 106.283ZM177.651 106.301C178.185 106.301 178.618 106.415 178.952 106.644C179.286 106.872 179.521 107.244 179.655 107.76C180.728 106.787 181.589 106.301 182.239 106.301C182.62 106.301 182.942 106.351 183.206 106.45C183.47 106.55 183.687 106.69 183.856 106.872C184.026 107.054 184.158 107.303 184.252 107.619C184.352 107.936 184.419 108.281 184.454 108.656C184.489 109.031 184.507 109.488 184.507 110.027V111.961C184.507 112.641 184.536 113.074 184.595 113.262C184.618 113.344 184.765 113.411 185.034 113.464C185.31 113.517 185.532 113.543 185.702 113.543C185.737 113.59 185.755 113.675 185.755 113.798C185.761 113.921 185.743 114.006 185.702 114.053C184.501 113.994 183.874 113.965 183.821 113.965C183.616 113.965 183.417 113.971 183.224 113.982C183.036 113.988 182.819 114 182.573 114.018C182.327 114.035 182.122 114.047 181.958 114.053C181.917 114.006 181.896 113.921 181.896 113.798C181.902 113.675 181.923 113.59 181.958 113.543C182.128 113.543 182.348 113.517 182.617 113.464C182.893 113.411 183.042 113.344 183.065 113.262C183.124 113.074 183.153 112.641 183.153 111.961V110.08C183.153 109.705 183.142 109.386 183.118 109.122C183.095 108.858 183.048 108.606 182.978 108.366C182.913 108.12 182.819 107.927 182.696 107.786C182.579 107.646 182.421 107.534 182.222 107.452C182.022 107.364 181.782 107.32 181.501 107.32C181.243 107.32 180.971 107.396 180.684 107.549C180.402 107.701 180.18 107.856 180.016 108.015C179.857 108.167 179.778 108.27 179.778 108.322C179.778 108.328 179.781 108.366 179.787 108.437C179.793 108.501 179.796 108.539 179.796 108.551C179.843 108.85 179.866 109.266 179.866 109.799V111.961C179.866 112.641 179.896 113.074 179.954 113.262C179.978 113.344 180.124 113.411 180.394 113.464C180.669 113.517 180.892 113.543 181.062 113.543C181.097 113.59 181.114 113.675 181.114 113.798C181.12 113.921 181.103 114.006 181.062 114.053C179.86 113.994 179.233 113.965 179.181 113.965C178.976 113.965 178.776 113.971 178.583 113.982C178.396 113.988 178.179 114 177.933 114.018C177.687 114.035 177.481 114.047 177.317 114.053C177.276 114.006 177.256 113.921 177.256 113.798C177.262 113.675 177.282 113.59 177.317 113.543C177.487 113.543 177.707 113.517 177.977 113.464C178.252 113.411 178.401 113.344 178.425 113.262C178.483 113.074 178.513 112.641 178.513 111.961V110.168C178.513 109.09 178.396 108.346 178.161 107.936C177.927 107.525 177.493 107.32 176.86 107.32C176.503 107.32 176.14 107.446 175.771 107.698C175.407 107.95 175.226 108.146 175.226 108.287V111.961C175.226 112.641 175.255 113.074 175.313 113.262C175.337 113.344 175.483 113.411 175.753 113.464C176.028 113.517 176.251 113.543 176.421 113.543C176.456 113.59 176.474 113.675 176.474 113.798C176.479 113.921 176.462 114.006 176.421 114.053C175.22 113.994 174.593 113.965 174.54 113.965C174.335 113.965 174.136 113.971 173.942 113.982C173.755 113.988 173.538 114 173.292 114.018C173.046 114.035 172.841 114.047 172.677 114.053C172.636 114.006 172.615 113.921 172.615 113.798C172.621 113.675 172.642 113.59 172.677 113.543C172.847 113.543 173.066 113.517 173.336 113.464C173.611 113.411 173.761 113.344 173.784 113.262C173.843 113.074 173.872 112.641 173.872 111.961V108.762C173.872 108.246 173.843 107.918 173.784 107.777C173.749 107.689 173.638 107.619 173.45 107.566C173.263 107.514 173.104 107.484 172.976 107.479C172.853 107.467 172.741 107.461 172.642 107.461C172.618 107.438 172.604 107.367 172.598 107.25C172.598 107.133 172.612 107.051 172.642 107.004C173.644 106.869 174.481 106.623 175.155 106.266C175.196 106.266 175.237 106.301 175.278 106.371C175.325 106.441 175.349 106.5 175.349 106.547C175.278 107.039 175.243 107.344 175.243 107.461C175.243 107.508 175.255 107.531 175.278 107.531C175.29 107.531 175.308 107.52 175.331 107.496C175.876 107.039 176.321 106.726 176.667 106.556C177.019 106.386 177.347 106.301 177.651 106.301ZM189.209 113.191C189.496 113.191 189.821 113.098 190.185 112.91C190.554 112.717 190.738 112.57 190.738 112.471V110.08C189.83 110.35 189.285 110.52 189.104 110.59C188.77 110.719 188.506 110.9 188.312 111.135C188.125 111.363 188.031 111.639 188.031 111.961C188.031 112.289 188.146 112.576 188.374 112.822C188.603 113.068 188.881 113.191 189.209 113.191ZM190.158 106.336C190.668 106.336 191.113 106.57 191.494 107.039C191.881 107.508 192.074 108.076 192.074 108.744V112.365C192.074 112.916 192.256 113.191 192.619 113.191C192.672 113.191 192.722 113.188 192.769 113.183C192.821 113.171 192.865 113.159 192.9 113.147C192.936 113.13 192.971 113.112 193.006 113.095C193.047 113.071 193.076 113.054 193.094 113.042C193.117 113.024 193.138 113.007 193.155 112.989C193.179 112.972 193.193 112.963 193.199 112.963C193.246 112.963 193.27 113.01 193.27 113.104C193.27 113.227 193.24 113.338 193.182 113.438C193.047 113.561 192.833 113.704 192.54 113.868C192.253 114.026 192.027 114.105 191.863 114.105C191.617 114.105 191.392 113.988 191.187 113.754C190.981 113.514 190.85 113.25 190.791 112.963C190.621 113.133 190.284 113.373 189.78 113.684C189.282 113.988 188.898 114.141 188.629 114.141C188.049 114.141 187.56 113.947 187.161 113.561C186.769 113.168 186.572 112.688 186.572 112.119C186.572 111.785 186.663 111.489 186.845 111.231C187.032 110.968 187.234 110.795 187.451 110.713C187.645 110.643 187.996 110.52 188.506 110.344C189.016 110.168 189.44 110.019 189.78 109.896C190.126 109.772 190.375 109.676 190.527 109.605C190.615 109.57 190.671 109.526 190.694 109.474C190.724 109.421 190.738 109.318 190.738 109.166V108.691C190.738 108.275 190.589 107.892 190.29 107.54C189.997 107.183 189.643 107.004 189.227 107.004C188.934 107.004 188.714 107.095 188.567 107.276C188.427 107.452 188.324 107.725 188.26 108.094C188.16 108.656 187.885 108.938 187.434 108.938C187.258 108.938 187.114 108.861 187.003 108.709C186.892 108.557 186.836 108.387 186.836 108.199C186.836 108.152 186.848 108.082 186.871 107.988C186.9 107.889 186.93 107.818 186.959 107.777C187.322 107.438 187.803 107.112 188.4 106.802C189.004 106.491 189.59 106.336 190.158 106.336ZM196.311 106.406H198.578C198.637 106.406 198.666 106.471 198.666 106.6C198.666 106.787 198.584 106.963 198.42 107.127H196.311V111.732C196.311 112.693 196.697 113.174 197.471 113.174C197.857 113.174 198.238 113.039 198.613 112.77C198.648 112.787 198.666 112.828 198.666 112.893C198.666 113.021 198.643 113.109 198.596 113.156C198.479 113.285 198.347 113.414 198.2 113.543C198.06 113.666 197.854 113.795 197.585 113.93C197.315 114.059 197.049 114.123 196.785 114.123C196.545 114.123 196.322 114.094 196.117 114.035C195.912 113.977 195.719 113.88 195.537 113.745C195.355 113.61 195.212 113.414 195.106 113.156C195.007 112.898 194.957 112.588 194.957 112.225V107.127H193.938C193.879 107.127 193.85 107.074 193.85 106.969C193.85 106.939 193.914 106.852 194.043 106.705C194.172 106.553 194.26 106.453 194.307 106.406H194.957V105.299C195.051 105.188 195.186 105.038 195.361 104.851C195.537 104.657 195.689 104.49 195.818 104.35C195.947 104.209 196.018 104.133 196.029 104.121C196.059 104.092 196.094 104.071 196.135 104.06C196.182 104.048 196.223 104.048 196.258 104.06C196.293 104.065 196.311 104.08 196.311 104.104V106.406ZM201.004 108.99C201.004 108.99 201.959 108.99 203.869 108.99C204.121 108.99 204.256 108.855 204.273 108.586C204.279 108.469 204.256 108.322 204.203 108.146C204.15 107.971 204.071 107.789 203.966 107.602C203.86 107.414 203.708 107.256 203.509 107.127C203.31 106.998 203.084 106.934 202.832 106.934C202.557 106.934 202.305 107.004 202.076 107.145C201.848 107.285 201.666 107.458 201.531 107.663C201.402 107.862 201.294 108.064 201.206 108.27C201.124 108.469 201.065 108.639 201.03 108.779C201.001 108.92 200.992 108.99 201.004 108.99ZM200.916 109.641C200.893 110.713 201.156 111.545 201.707 112.137C202.264 112.723 202.955 113.016 203.781 113.016C204.203 113.016 204.584 112.913 204.924 112.708C205.27 112.503 205.533 112.295 205.715 112.084C205.721 112.084 205.735 112.096 205.759 112.119C205.782 112.137 205.803 112.166 205.82 112.207C205.844 112.248 205.855 112.289 205.855 112.33C205.855 112.424 205.82 112.529 205.75 112.646C205.656 112.799 205.539 112.951 205.398 113.104C205.258 113.256 205.082 113.414 204.871 113.578C204.66 113.742 204.405 113.877 204.106 113.982C203.813 114.088 203.506 114.141 203.184 114.141C202.158 114.141 201.314 113.795 200.652 113.104C199.996 112.406 199.668 111.533 199.668 110.484C199.668 109.916 199.776 109.368 199.993 108.841C200.21 108.313 200.485 107.868 200.819 107.505C201.153 107.142 201.525 106.852 201.936 106.635C202.346 106.412 202.744 106.301 203.131 106.301C203.529 106.301 203.89 106.362 204.212 106.485C204.534 106.608 204.789 106.761 204.977 106.942C205.164 107.118 205.319 107.32 205.442 107.549C205.565 107.777 205.65 107.985 205.697 108.173C205.744 108.36 205.768 108.533 205.768 108.691C205.768 108.961 205.735 109.166 205.671 109.307C205.612 109.441 205.504 109.512 205.346 109.518C205.105 109.535 204.344 109.562 203.061 109.597C201.783 109.626 201.068 109.641 200.916 109.641Z" fill="white" fill-opacity="0.7"/>
<defs>
<clipPath id="clip0_837_12612">
<rect width="121" height="76" fill="white" transform="translate(43.5)"/>
</clipPath>
</defs>
</svg>
