<svg width="122" height="76" viewBox="0 0 122 76" fill="none" xmlns="http://www.w3.org/2000/svg">
<g clip-path="url(#clip0_419_12433)">
<path d="M29.3977 59.7257L57.8387 0H76.9711L65.028 25.1367L104.885 25.1858V16.9135L94.4759 16.9381L86.5255 0H121.184V42.4189L113.21 42.4312L121.5 59.5044H102.227L94.031 42.3328L56.8317 42.3206L48.5535 59.7257H29.3977Z" fill="white"/>
<path d="M0.956543 59.7257H20.0304L48.366 0L29.257 0.0122918L0.956543 59.7257Z" fill="white"/>
<path d="M4.8323 67.7882L3.53261 71.4142C3.53261 71.4511 3.54432 71.4757 3.55603 71.4757C4.0478 71.5003 4.48103 71.5003 4.84401 71.5003C5.19528 71.5003 5.59338 71.488 6.03832 71.4511C6.05003 71.4511 6.06174 71.4511 6.06174 71.4388C6.07345 71.4265 6.07345 71.4142 6.08516 71.4019V71.3897L4.8323 67.7882ZM2.05729 73.7865C3.29843 70.4186 4.21173 67.9725 4.78547 66.4361C4.82059 66.3623 4.90255 66.2763 5.03135 66.1657C5.16015 66.055 5.25382 66.0059 5.31237 66.0059C5.32408 66.0059 5.34749 66.0182 5.3592 66.0304C5.37091 66.0427 5.39433 66.055 5.39433 66.055L8.27472 73.9832C8.5089 74.6224 8.62599 74.9543 8.6377 74.9666C8.69625 75.1264 8.84846 75.237 9.08264 75.3353C9.31682 75.4214 9.49245 75.4705 9.59783 75.4705C9.62125 75.5197 9.64467 75.5934 9.64467 75.6918C9.64467 75.7901 9.64467 75.8639 9.63296 75.9007C8.68454 75.8516 8.16934 75.827 8.07567 75.827C7.87662 75.827 7.70099 75.827 7.53706 75.8393C7.37314 75.8516 7.18579 75.8639 6.97503 75.8761C6.76427 75.8884 6.58864 75.9007 6.43642 75.9007C6.4013 75.8639 6.38959 75.7901 6.38959 75.6795C6.38959 75.5811 6.41301 75.5074 6.44813 75.4582C6.55351 75.4582 6.70573 75.4459 6.88136 75.3968C7.057 75.3476 7.18579 75.3107 7.24434 75.2616C7.27947 75.2247 7.30288 75.1509 7.30288 75.0526C7.30288 74.9174 7.22092 74.6101 7.057 74.1307C6.89307 73.6513 6.74086 73.1965 6.57693 72.7786L6.33104 72.1517C6.30763 72.1149 6.2725 72.0903 6.24908 72.0903C6.13199 72.078 5.66363 72.078 4.84401 72.078C4.24686 72.078 3.74337 72.0903 3.31014 72.1272L3.23989 72.1763C2.97058 72.9138 2.75982 73.5161 2.60761 73.9832C2.47881 74.3888 2.40855 74.7453 2.40855 75.0403C2.40855 75.1264 2.45539 75.2001 2.53735 75.2616C2.61931 75.323 2.7364 75.3599 2.85349 75.3968C2.98229 75.4214 3.08767 75.4459 3.18134 75.4582C3.27501 75.4705 3.33356 75.4705 3.3921 75.4705C3.41552 75.4951 3.42723 75.5566 3.42723 75.6672C3.43894 75.7778 3.42723 75.8516 3.41552 75.9007C3.27501 75.9007 3.13451 75.8884 2.97058 75.8761C2.80666 75.8639 2.66615 75.8516 2.52564 75.8393C2.38514 75.827 2.23292 75.827 2.04558 75.827C1.84653 75.827 1.6826 75.827 1.53039 75.8393C1.37817 75.8516 1.21424 75.8639 1.03861 75.8761C0.862977 75.8884 0.687343 75.9007 0.523418 75.9007C0.5 75.8761 0.5 75.8147 0.5 75.7041C0.5 75.5934 0.511709 75.5197 0.523418 75.4705C0.640507 75.4705 0.792723 75.4459 0.991775 75.3968C1.19083 75.3476 1.30792 75.2738 1.37817 75.1878C1.58893 74.9051 1.8114 74.438 2.05729 73.7865Z" fill="white"/>
<path d="M15.4524 68.7592C15.4524 68.0709 15.2767 67.53 14.9255 67.1244C14.5742 66.7311 14.0239 66.5221 13.2745 66.5221C12.8413 66.5221 12.6071 66.5713 12.572 66.6696C12.5251 66.7925 12.5017 67.1613 12.5017 67.7882L12.5134 70.898H13.2745C13.8599 70.898 14.3634 70.7013 14.8084 70.2957C15.2416 69.9023 15.4524 69.3861 15.4524 68.7592ZM13.8951 66.055C14.2229 66.055 14.5625 66.1165 14.8903 66.2271C15.2182 66.3377 15.5343 66.4975 15.8153 66.7065C16.0963 66.9154 16.3305 67.1859 16.5062 67.5177C16.6818 67.8496 16.7755 68.2184 16.7755 68.624C16.7755 69.1403 16.5764 69.6196 16.19 70.099C15.7919 70.5661 15.347 70.898 14.8435 71.0701C15.4524 72.1395 16.2134 73.2949 17.1267 74.5609C17.3375 74.8559 17.56 75.0649 17.8058 75.2001C18.04 75.3353 18.3562 75.4214 18.7309 75.4459C18.7543 75.4951 18.766 75.5811 18.7543 75.6795C18.7426 75.7778 18.7309 75.8516 18.7191 75.8761C17.7941 75.8761 17.1736 75.8147 16.8457 75.7041C16.5413 75.5934 16.3071 75.4582 16.1549 75.2984C16.0729 75.2247 16.0027 75.1386 15.9324 75.0403C15.8153 74.8682 15.5109 74.4011 15.0191 73.6513C14.5391 72.9015 14.0941 72.1886 13.6726 71.5249C13.6023 71.4019 13.4501 71.3528 13.2511 71.3528H12.5017V74.1184C12.5017 74.6961 12.5251 75.0649 12.572 75.2124C12.5954 75.2861 12.7242 75.3353 12.9701 75.3845C13.216 75.4336 13.4033 75.4459 13.5555 75.4459C13.5789 75.4828 13.6023 75.5566 13.6023 75.6672C13.6023 75.7655 13.5906 75.8393 13.5555 75.8884C12.5837 75.8393 12.0333 75.8147 11.9046 75.8147C11.764 75.8147 11.202 75.8393 10.2302 75.8884C10.195 75.8516 10.1833 75.7778 10.1833 75.6672C10.1833 75.5689 10.2068 75.4951 10.2302 75.4459C10.3707 75.4459 10.5697 75.4214 10.8156 75.3845C11.0615 75.3353 11.1903 75.2861 11.2137 75.2124C11.2489 75.0895 11.2723 74.7207 11.284 74.1184L11.2723 67.7759C11.2723 67.1982 11.2489 66.8294 11.202 66.6819C11.1786 66.6082 11.0498 66.559 10.8039 66.5098C10.558 66.4607 10.3707 66.4484 10.2185 66.4484C10.195 66.4115 10.1716 66.3377 10.1716 66.2271C10.1716 66.1288 10.1833 66.055 10.2185 66.0059C11.1903 66.055 11.7406 66.0796 11.8928 66.0796C12.0568 66.0796 12.3495 66.0796 12.7944 66.0673C13.2277 66.055 13.6023 66.055 13.8951 66.055Z" fill="white"/>
<path d="M22.4893 67.7882L21.1896 71.4142C21.1896 71.4511 21.2013 71.4757 21.213 71.4757C21.7048 71.5003 22.138 71.5003 22.501 71.5003C22.8523 71.5003 23.2504 71.488 23.6953 71.4511C23.707 71.4511 23.7187 71.4511 23.7187 71.4388C23.7304 71.4265 23.7304 71.4142 23.7421 71.4019V71.3897L22.4893 67.7882ZM19.7143 73.7865C20.9554 70.4186 21.8687 67.9725 22.4424 66.4361C22.4776 66.3623 22.5595 66.2763 22.6883 66.1657C22.8171 66.055 22.9108 66.0059 22.9693 66.0059C22.9811 66.0059 23.0045 66.0182 23.0162 66.0304C23.0279 66.0427 23.0513 66.055 23.0513 66.055L25.9317 73.9832C26.1659 74.6224 26.283 74.9543 26.2947 74.9666C26.3532 75.1264 26.5054 75.237 26.7396 75.3353C26.9738 75.4214 27.1494 75.4705 27.2548 75.4705C27.2782 75.5197 27.3016 75.5934 27.3016 75.6918C27.3016 75.7901 27.3016 75.8639 27.2899 75.9007C26.3415 75.8516 25.8263 75.827 25.7327 75.827C25.5336 75.827 25.358 75.827 25.194 75.8393C25.0301 75.8516 24.8428 75.8639 24.632 75.8761C24.4213 75.8884 24.2456 75.9007 24.0934 75.9007C24.0583 75.8639 24.0466 75.7901 24.0466 75.6795C24.0466 75.5811 24.07 75.5074 24.1051 75.4582C24.2105 75.4582 24.3627 75.4459 24.5383 75.3968C24.714 75.3476 24.8428 75.3107 24.9013 75.2616C24.9364 75.2247 24.9599 75.1509 24.9599 75.0526C24.9599 74.9174 24.8779 74.6101 24.714 74.1307C24.5501 73.6513 24.3978 73.1965 24.2339 72.7786L23.988 72.1517C23.9646 72.1149 23.9295 72.0903 23.9061 72.0903C23.789 72.078 23.3206 72.078 22.501 72.078C21.9038 72.078 21.4004 72.0903 20.9671 72.1272L20.8969 72.1763C20.6276 72.9138 20.4168 73.5161 20.2646 73.9832C20.1358 74.3888 20.0655 74.7453 20.0655 75.0403C20.0655 75.1264 20.1124 75.2001 20.1943 75.2616C20.2763 75.323 20.3934 75.3599 20.5105 75.3968C20.6393 75.4214 20.7447 75.4459 20.8383 75.4582C20.932 75.4705 20.9905 75.4705 21.0491 75.4705C21.0725 75.4951 21.0842 75.5566 21.0842 75.6672C21.0959 75.7778 21.0842 75.8516 21.0725 75.9007C20.932 75.9007 20.7915 75.8884 20.6276 75.8761C20.4636 75.8639 20.3231 75.8516 20.1826 75.8393C20.0421 75.827 19.8899 75.827 19.7026 75.827C19.5035 75.827 19.3396 75.827 19.1874 75.8393C19.0352 75.8516 18.8712 75.8639 18.6956 75.8761C18.52 75.8884 18.3443 75.9007 18.1804 75.9007C18.157 75.8761 18.157 75.8147 18.157 75.7041C18.157 75.5934 18.1687 75.5197 18.1804 75.4705C18.2975 75.4705 18.4497 75.4459 18.6488 75.3968C18.8478 75.3476 18.9649 75.2738 19.0352 75.1878C19.2459 74.9051 19.4684 74.438 19.7143 73.7865Z" fill="white"/>
<path d="M36.9616 65.9336C38.0505 65.9336 39.0458 66.0319 39.9591 66.2409C40.1815 67.6053 40.2869 68.3428 40.2869 68.4411C40.2869 68.4903 40.2635 68.5272 40.1932 68.5763C40.123 68.6255 40.0527 68.6378 39.9825 68.6378C39.9122 68.6378 39.8537 68.6255 39.8185 68.5886C39.5492 67.1382 38.6242 66.4253 37.0435 66.4253C36.3761 66.4253 35.7673 66.6465 35.2286 67.0767C34.69 67.5069 34.2802 68.0601 33.9992 68.7115C33.7182 69.363 33.5777 70.039 33.5777 70.752C33.5777 71.2191 33.6245 71.6861 33.7182 72.1286C33.8119 72.5711 33.9641 73.0014 34.1631 73.407C34.3622 73.8126 34.6081 74.1568 34.8891 74.4641C35.1701 74.7714 35.5214 75.0049 35.9312 75.1893C36.341 75.3614 36.7742 75.4597 37.2543 75.4597C37.9802 75.4597 38.6125 75.2262 39.1277 74.7468C39.5492 74.3412 39.842 73.7757 39.9942 73.0259C40.1581 73.0137 40.3103 73.0505 40.4508 73.1489C40.4508 73.3332 40.3923 73.7266 40.2752 74.3043C40.1581 74.882 40.0527 75.2139 39.9591 75.2876C39.2097 75.7301 38.191 75.9514 36.9147 75.9514C36.2356 75.9514 35.5916 75.8162 34.9945 75.5581C34.3973 75.2999 33.9055 74.9435 33.4957 74.501C33.0859 74.0585 32.7698 73.5422 32.5356 72.9522C32.3014 72.3622 32.1843 71.7353 32.1843 71.0838C32.1843 70.3955 32.3014 69.744 32.5473 69.1172C32.7932 68.4903 33.121 67.9494 33.5309 67.4824C33.9407 67.0153 34.4559 66.6465 35.053 66.3761C35.6385 66.0811 36.2824 65.9336 36.9616 65.9336Z" fill="white"/>
<path d="M46.0945 66.4376C45.6847 66.4376 45.31 66.5236 44.9704 66.6834C44.6309 66.8432 44.3499 67.0644 44.1274 67.3349C43.9049 67.6053 43.7176 67.9249 43.5537 68.2936C43.4014 68.6624 43.2843 69.0434 43.2141 69.4245C43.1438 69.8178 43.1087 70.2111 43.1087 70.629C43.1087 71.2191 43.1907 71.7845 43.3429 72.3622C43.4951 72.9276 43.7176 73.4439 43.9869 73.911C44.2679 74.378 44.6192 74.7591 45.0641 75.0418C45.509 75.3245 45.9891 75.472 46.516 75.472C46.9258 75.472 47.3005 75.386 47.6401 75.2262C47.9796 75.0664 48.2606 74.8451 48.4831 74.5624C48.7056 74.292 48.8929 73.9601 49.0568 73.5914C49.2091 73.2226 49.3261 72.8416 49.3964 72.4482C49.4667 72.0549 49.5018 71.6493 49.5018 71.2313C49.5018 70.6413 49.4198 70.0759 49.2676 69.4982C49.1154 68.9328 48.8929 68.4165 48.6119 67.9617C48.3309 67.5069 47.9679 67.1259 47.5347 66.8432C47.1015 66.5605 46.6331 66.4376 46.0945 66.4376ZM46.317 65.9336C46.9375 65.9336 47.523 66.0565 48.085 66.3146C48.647 66.5605 49.1388 66.9046 49.5603 67.3471C49.9819 67.7774 50.3097 68.3182 50.5673 68.9451C50.8249 69.572 50.942 70.248 50.942 70.9732C50.942 71.6493 50.8132 72.3007 50.5673 72.9276C50.3214 73.5545 49.9818 74.083 49.572 74.5378C49.1505 74.9803 48.6587 75.3368 48.0967 75.6072C47.5347 75.8776 46.9375 76.0006 46.3287 76.0006C45.7081 76.0006 45.1226 75.8776 44.5606 75.6195C43.9986 75.3737 43.5185 75.0295 43.097 74.587C42.6872 74.1568 42.3476 73.616 42.1017 72.9891C41.8559 72.3622 41.7388 71.6861 41.7388 70.9732C41.7388 70.2849 41.8559 69.6334 42.1017 69.0188C42.3476 68.3919 42.6755 67.8634 43.0853 67.4086C43.4951 66.9661 43.9869 66.5974 44.5489 66.3392C45.1109 66.0688 45.6964 65.9336 46.317 65.9336Z" fill="white"/>
<path d="M53.4829 66.0445C53.9395 66.0445 54.2908 66.0322 54.5601 66.0199C54.7943 66.4009 55.649 67.5318 57.1126 69.4001C58.5763 71.2685 59.5715 72.596 60.1101 73.3826V72.5222V67.753C60.1101 67.4457 60.0984 67.2245 60.0867 67.0893C60.075 66.954 60.0282 66.8311 59.9696 66.7205C59.9345 66.6468 59.7823 66.5853 59.5013 66.5238C59.2202 66.4624 59.0212 66.4255 58.8924 66.4255C58.8573 66.3763 58.8456 66.3026 58.8339 66.2042C58.8339 66.1059 58.8456 66.0322 58.8573 65.9953C59.8057 66.0445 60.3443 66.069 60.4848 66.069C60.6839 66.069 60.8478 66.069 61 66.0567C61.1522 66.0445 61.3161 66.0322 61.4918 66.0199C61.6674 66.0076 61.843 65.9953 62.007 65.9953C62.0772 66.1182 62.0772 66.2657 62.007 66.4255C61.8782 66.4255 61.6674 66.4501 61.3864 66.5115C61.1054 66.573 60.9415 66.6345 60.9063 66.7205C60.8478 66.8188 60.801 66.9418 60.7892 67.077C60.7775 67.2122 60.7658 67.4334 60.7658 67.7284V73.776C60.7658 74.6241 60.7775 75.3124 60.7892 75.8287C60.7775 75.8902 60.719 75.9147 60.6019 75.9147C60.5551 75.9147 60.4731 75.8902 60.3794 75.8287C60.2858 75.7795 60.1921 75.6935 60.1101 75.5706L53.9395 67.3843V74.1324C53.9395 74.4397 53.9512 74.661 53.9629 74.7962C53.9747 74.9314 54.0215 75.0543 54.08 75.1649C54.1152 75.2387 54.2674 75.3002 54.5367 75.3616C54.806 75.4231 55.005 75.4599 55.1455 75.4599C55.1807 75.5091 55.1924 75.5829 55.2041 75.6812C55.2041 75.7795 55.1924 75.8533 55.1807 75.8902C54.2322 75.841 53.6936 75.8164 53.5648 75.8164C53.3658 75.8164 53.2019 75.8164 53.0496 75.8287C52.8974 75.841 52.7335 75.8533 52.5579 75.8656C52.3822 75.8779 52.2066 75.8902 52.0427 75.8902C51.9724 75.7672 51.9724 75.6197 52.0427 75.4599C52.1715 75.4599 52.3822 75.4354 52.6633 75.3739C52.9443 75.3124 53.1082 75.251 53.1433 75.1649C53.2019 75.0666 53.2487 74.9437 53.2604 74.8085C53.2721 74.6733 53.2838 74.452 53.2838 74.157V67.7038C53.2838 67.3966 53.2721 67.1876 53.2604 67.0524C53.2487 66.9172 53.2019 66.7943 53.1433 66.6959C53.0965 66.6222 52.9443 66.5484 52.6633 66.487C52.3822 66.4255 52.1715 66.4009 52.0427 66.4009C51.9724 66.2411 51.9724 66.0936 52.0427 65.9707C52.1949 65.9707 52.4291 65.9953 52.7452 66.0076C53.0614 66.0322 53.3072 66.0445 53.4829 66.0445Z" fill="white"/>
<path d="M66.1403 65.957C66.3511 65.957 66.5384 65.9693 66.7258 65.9939C66.9131 66.0185 67.0536 66.0431 67.1707 66.0799C67.2878 66.1168 67.4634 66.1537 67.6859 66.2275C67.9084 66.2889 68.1074 66.3381 68.283 66.375C68.3416 66.8052 68.4118 67.5058 68.4821 68.4891C68.4821 68.5383 68.4587 68.5752 68.3884 68.5998C68.3182 68.6366 68.2479 68.6489 68.1894 68.6489C68.1191 68.6489 68.0723 68.6243 68.0372 68.5875C68.0137 68.44 67.9786 68.2679 67.9201 68.0835C67.8615 67.8991 67.7679 67.7148 67.6508 67.5181C67.5337 67.3214 67.4049 67.1493 67.2527 66.9895C67.1004 66.8297 66.9248 66.7068 66.7141 66.6085C66.5033 66.5102 66.2925 66.461 66.0584 66.461C65.7891 66.461 65.5432 66.5102 65.3324 66.6085C65.1216 66.7068 64.9577 66.842 64.8523 67.0141C64.7352 67.1862 64.6533 67.3583 64.6064 67.5427C64.5479 67.727 64.5245 67.9114 64.5245 68.1081C64.5245 68.2556 64.5362 68.3908 64.5713 68.526C64.6065 68.6612 64.6416 68.7841 64.7001 68.8825C64.747 68.9808 64.8172 69.0914 64.9109 69.2021C65.0046 69.3127 65.0865 69.3987 65.1568 69.4725C65.227 69.5462 65.3324 69.6323 65.4729 69.7306C65.6134 69.8289 65.7188 69.9027 65.8008 69.9641C65.8827 70.0256 65.9998 70.0994 66.1637 70.1977C66.316 70.296 66.433 70.3698 66.515 70.4189C66.5853 70.4681 66.7141 70.5419 66.878 70.6525C67.0419 70.7631 67.1824 70.8492 67.2878 70.9229C67.3932 70.9967 67.5337 71.0827 67.6859 71.2056C67.8498 71.3285 67.9786 71.4392 68.084 71.5375C68.1894 71.6358 68.3065 71.7587 68.4236 71.894C68.5406 72.0292 68.646 72.1767 68.7163 72.3119C68.7865 72.4471 68.8451 72.5946 68.8919 72.7667C68.9387 72.9388 68.9622 73.1108 68.9622 73.2952C68.9622 73.6886 68.8802 74.0573 68.7163 74.4015C68.5524 74.7456 68.3299 75.0284 68.0489 75.2619C67.7679 75.4954 67.4517 75.6798 67.1005 75.8027C66.7492 75.9379 66.3745 75.9994 65.9998 75.9994C65.7773 75.9994 65.5432 75.9871 65.2856 75.9502C65.028 75.9134 64.8172 75.8765 64.6416 75.8519C64.4776 75.815 64.2552 75.7659 63.9976 75.7044C63.74 75.6429 63.5526 75.5938 63.459 75.5815C63.3887 75.1882 63.3185 74.7334 63.2482 74.2294C63.1897 73.7131 63.1545 73.4058 63.1545 73.2829C63.2716 73.16 63.3887 73.1108 63.5175 73.1108C63.6112 73.1108 63.658 73.16 63.6697 73.246C63.6932 73.3936 63.74 73.5411 63.7985 73.7008C63.8571 73.8606 63.939 74.0573 64.0678 74.2786C64.1849 74.5121 64.3371 74.7088 64.5011 74.8809C64.665 75.0529 64.8758 75.2004 65.1451 75.3234C65.4144 75.4463 65.7071 75.5077 66.0349 75.5077C66.515 75.5077 66.9248 75.3479 67.241 75.0161C67.5688 74.6965 67.7327 74.254 67.7327 73.6886C67.7327 73.5411 67.721 73.3936 67.6859 73.2706C67.6625 73.1354 67.6156 73.0248 67.5805 72.9265C67.5337 72.8281 67.4751 72.7298 67.3932 72.6315C67.3112 72.5331 67.2292 72.4594 67.159 72.3856C67.0887 72.3242 66.9951 72.2504 66.878 72.1644C66.7609 72.0783 66.6555 72.0169 66.5618 71.9677C66.4799 71.9185 66.3511 71.8448 66.2106 71.7587C66.0584 71.6727 65.9413 71.6112 65.8476 71.5498C65.6485 71.4269 65.5197 71.3531 65.4729 71.3162C65.4144 71.2794 65.2973 71.2056 65.1099 71.0827C64.9226 70.9598 64.7938 70.8737 64.7235 70.8123C64.6533 70.7508 64.5362 70.6648 64.384 70.5296C64.2201 70.4067 64.1147 70.296 64.0444 70.21C63.9742 70.1239 63.8922 70.0133 63.7868 69.8781C63.6814 69.7429 63.6112 69.6077 63.5644 69.4848C63.5175 69.3618 63.4824 69.2266 63.4356 69.0668C63.4004 68.9071 63.377 68.7473 63.377 68.5875C63.377 68.0835 63.5058 67.6287 63.7751 67.2231C64.0444 66.8175 64.384 66.5102 64.8055 66.2889C65.2153 66.0554 65.6603 65.957 66.1403 65.957Z" fill="white"/>
<path d="M71.6433 66.0808C71.7838 66.0808 72.3342 66.0562 73.2943 66.007C73.3294 66.0439 73.3411 66.1176 73.3411 66.2283C73.3411 66.3266 73.3177 66.4003 73.2943 66.4495C73.1538 66.4495 72.9547 66.4741 72.7088 66.511C72.463 66.5601 72.3342 66.6093 72.3107 66.6831C72.2639 66.8428 72.2405 67.2116 72.2405 67.777V71.4523C72.2405 72.6691 72.4747 73.5787 72.9313 74.181C73.3763 74.7587 74.0202 75.0415 74.875 75.0415C76.6665 75.0415 77.5798 73.9475 77.6266 71.7718V67.7401C77.6266 67.4329 77.6149 67.2116 77.6032 67.0764C77.5915 66.9412 77.5446 66.8183 77.4861 66.7076C77.451 66.6339 77.2987 66.5724 77.0528 66.511C76.7953 66.4495 76.6079 66.4126 76.4674 66.4126C76.4323 66.3635 76.4206 66.2897 76.4089 66.1914C76.4089 66.093 76.4089 66.0193 76.4323 65.9824C77.3807 66.0316 77.8959 66.0562 78.0013 66.0562C78.2003 66.0562 78.3642 66.0562 78.5165 66.0439C78.6687 66.0316 78.8326 66.0193 79.0082 66.007C79.1839 65.9947 79.3595 65.9824 79.5234 65.9824C79.5937 66.1053 79.5937 66.2528 79.5234 66.4126C79.3946 66.4126 79.1839 66.4372 78.9029 66.4987C78.6218 66.5601 78.4579 66.6216 78.4228 66.7076C78.3643 66.806 78.3174 66.9289 78.3057 67.0641C78.294 67.1993 78.2823 67.4206 78.2823 67.7156V71.7227C78.2823 73.1485 77.9544 74.1933 77.3104 74.8694C76.6547 75.5454 75.7532 75.8773 74.594 75.8773C73.5636 75.8773 72.7205 75.5454 72.0648 74.894C71.374 74.2056 71.0228 73.2714 71.0228 72.0914V67.7524C71.0228 67.1747 70.9993 66.806 70.9525 66.6585C70.9291 66.5847 70.8003 66.5356 70.5544 66.4864C70.3085 66.4372 70.1212 66.4249 69.969 66.4249C69.9455 66.3881 69.9221 66.3143 69.9221 66.2037C69.9221 66.1053 69.9338 66.0316 69.969 65.9824C70.9408 66.0562 71.4911 66.0808 71.6433 66.0808Z" fill="white"/>
<path d="M82.7082 74.1192C82.7082 74.783 82.7317 75.1394 82.7902 75.1886C82.8722 75.2624 82.9776 75.2992 83.1064 75.3115C83.2352 75.3238 83.4576 75.3361 83.7972 75.3361H84.6051C84.8978 75.3361 85.2022 75.2992 85.5184 75.2378C85.8345 75.1763 86.0804 75.0657 86.256 74.9428C86.6424 74.6601 86.9352 74.1684 87.1459 73.4432C87.1576 73.3817 87.2279 73.3571 87.345 73.3571C87.5206 73.3571 87.6377 73.3817 87.6963 73.4432C87.6494 73.5661 87.5792 73.7751 87.4855 74.0578C87.3918 74.3405 87.3099 74.574 87.2513 74.7461C87.1928 74.9182 87.1342 75.1272 87.064 75.3484C87.0054 75.5697 86.9586 75.754 86.9352 75.9138C86.4434 75.9138 85.6823 75.9015 84.6519 75.8892C83.6215 75.877 82.7668 75.8647 82.1111 75.8647C81.8769 75.8647 81.5842 75.877 81.2212 75.8892C80.8582 75.9015 80.6006 75.9138 80.425 75.9138C80.3899 75.877 80.3782 75.8032 80.3782 75.6926C80.3782 75.5942 80.3899 75.5205 80.425 75.4713C80.5655 75.4713 80.7646 75.4467 81.0105 75.4099C81.2563 75.3607 81.3851 75.3115 81.4086 75.2378C81.4554 75.078 81.4788 74.7092 81.4788 74.1438V67.8013C81.4788 67.2235 81.4554 66.8548 81.4086 66.7073C81.3851 66.6335 81.2563 66.5844 81.0105 66.5352C80.7646 66.486 80.5772 66.4738 80.425 66.4738C80.4016 66.4369 80.3782 66.3631 80.3782 66.2525C80.3782 66.1542 80.3899 66.0804 80.425 66.0312C81.3969 66.0804 81.9472 66.105 82.0994 66.105C82.2399 66.105 82.7902 66.0804 83.7503 66.0312C83.7855 66.0681 83.7972 66.1419 83.7972 66.2525C83.7972 66.3508 83.7738 66.4246 83.7503 66.4738C83.6098 66.4738 83.4108 66.4983 83.1649 66.5352C82.919 66.5844 82.7902 66.6335 82.7668 66.7073C82.7083 66.8917 82.6848 67.2604 82.6965 67.8013L82.7082 74.1192Z" fill="white"/>
<path d="M93.8903 66.032C93.9957 66.032 94.1479 66.0074 94.3236 65.9583C94.4992 65.9091 94.6397 65.8599 94.7334 65.8108C94.8388 65.7493 94.9324 65.737 95.0027 65.7862C95.1198 66.8187 95.2369 67.6791 95.3657 68.3429C95.2954 68.4166 95.2017 68.4535 95.0964 68.4412C95.0027 68.4412 94.9324 68.4166 94.8973 68.3675C94.7919 67.8143 94.628 67.3841 94.3938 67.0522C94.1596 66.7204 93.8786 66.5606 93.5391 66.5606H91.7359V74.1323C91.7359 74.71 91.7593 75.0788 91.8062 75.2263C91.8296 75.3 91.9584 75.3492 92.2043 75.3984C92.4501 75.4475 92.6375 75.4598 92.7897 75.4598C92.8131 75.4967 92.8365 75.5704 92.8365 75.6811C92.8365 75.7794 92.8248 75.8532 92.7897 75.9023C91.8179 75.8532 91.2675 75.8286 91.1387 75.8286C90.9982 75.8286 90.4362 75.8532 89.4644 75.9023C89.4292 75.8654 89.4175 75.7917 89.4175 75.6811C89.4175 75.5827 89.441 75.509 89.4644 75.4598C89.6049 75.4598 89.8039 75.4352 90.0498 75.3984C90.2957 75.3492 90.4245 75.3 90.4479 75.2263C90.4948 75.0665 90.5182 74.6977 90.5182 74.1323V66.5606H88.6916C88.352 66.5606 88.071 66.7204 87.8368 67.0522C87.6026 67.3841 87.4387 67.8266 87.3333 68.3675C87.2982 68.4166 87.2397 68.4412 87.1343 68.4412C87.0289 68.4535 86.9352 68.4166 86.865 68.3429C86.9938 67.6791 87.1226 66.8187 87.228 65.7862C87.3099 65.7493 87.4153 65.7616 87.5558 65.8354C87.6495 65.8845 87.7783 65.9337 87.9422 65.9706C88.1061 66.0197 88.2466 66.032 88.352 66.032H93.8903Z" fill="white"/>
<path d="M97.8831 66.0796C98.0236 66.0796 98.5739 66.055 99.534 66.0059C99.5692 66.0427 99.5809 66.1165 99.5809 66.2271C99.5809 66.3254 99.5575 66.3992 99.534 66.4484C99.3935 66.4484 99.1945 66.4729 98.9486 66.5098C98.7027 66.559 98.5739 66.6082 98.5505 66.6819C98.5037 66.8417 98.4802 67.2105 98.4802 67.7759V74.1184C98.4802 74.6961 98.5037 75.0649 98.5505 75.2124C98.5739 75.2861 98.7027 75.3353 98.9486 75.3845C99.1945 75.4336 99.3818 75.4459 99.534 75.4459C99.5575 75.4828 99.5809 75.5566 99.5809 75.6672C99.5809 75.7655 99.5692 75.8393 99.534 75.8884C98.5622 75.8393 98.0119 75.8147 97.8831 75.8147C97.7426 75.8147 97.1805 75.8393 96.2087 75.8884C96.1736 75.8516 96.1619 75.7778 96.1619 75.6672C96.1619 75.5689 96.1736 75.4951 96.2087 75.4459C96.3492 75.4459 96.5483 75.4214 96.7941 75.3845C97.04 75.3353 97.1688 75.2861 97.1923 75.2124C97.2391 75.0526 97.2625 74.6838 97.2625 74.1184V67.7759C97.2625 67.1982 97.2391 66.8294 97.1923 66.6819C97.1688 66.6082 97.04 66.559 96.7941 66.5098C96.5483 66.4607 96.3609 66.4484 96.2087 66.4484C96.1853 66.4115 96.1619 66.3377 96.1619 66.2271C96.1619 66.1288 96.1736 66.055 96.2087 66.0059C97.1805 66.055 97.7309 66.0796 97.8831 66.0796Z" fill="white"/>
<path d="M102.18 66.0445C102.637 66.0445 102.988 66.0322 103.258 66.0199C103.492 66.4009 104.347 67.5318 105.81 69.4001C107.274 71.2685 108.269 72.596 108.808 73.3826V72.5222V67.753C108.808 67.4457 108.796 67.2245 108.784 67.0893C108.773 66.954 108.726 66.8311 108.667 66.7205C108.632 66.6468 108.48 66.5853 108.199 66.5238C107.929 66.4624 107.719 66.4255 107.59 66.4255C107.555 66.3763 107.543 66.3026 107.531 66.2042C107.531 66.1059 107.531 66.0322 107.555 65.9953C108.503 66.0445 109.042 66.069 109.182 66.069C109.381 66.069 109.545 66.069 109.698 66.0567C109.85 66.0445 110.014 66.0322 110.189 66.0199C110.365 66.0076 110.541 65.9953 110.704 65.9953C110.775 66.1182 110.775 66.2657 110.704 66.4255C110.576 66.4255 110.365 66.4501 110.084 66.5115C109.803 66.573 109.639 66.6345 109.604 66.7205C109.545 66.8188 109.498 66.9418 109.487 67.077C109.475 67.2122 109.463 67.4334 109.463 67.7284V73.776C109.463 74.6241 109.475 75.3124 109.487 75.8287C109.475 75.8902 109.416 75.9147 109.299 75.9147C109.253 75.9147 109.171 75.8902 109.077 75.8287C108.983 75.7795 108.89 75.6935 108.808 75.5706L102.637 67.3843V74.1324C102.637 74.4397 102.649 74.661 102.66 74.7962C102.672 74.9314 102.719 75.0543 102.778 75.1649C102.813 75.2387 102.965 75.3002 103.234 75.3616C103.503 75.4231 103.703 75.4599 103.843 75.4599C103.878 75.5091 103.89 75.5829 103.902 75.6812C103.902 75.7795 103.89 75.8533 103.878 75.8902C102.93 75.841 102.391 75.8164 102.262 75.8164C102.063 75.8164 101.899 75.8164 101.747 75.8287C101.595 75.841 101.431 75.8533 101.255 75.8656C101.08 75.8779 100.904 75.8902 100.74 75.8902C100.67 75.7672 100.67 75.6197 100.74 75.4599C100.869 75.4599 101.08 75.4354 101.361 75.3739C101.642 75.3124 101.806 75.251 101.841 75.1649C101.899 75.0666 101.946 74.9437 101.958 74.8085C101.97 74.6733 101.981 74.452 101.981 74.157V67.7038C101.981 67.3966 101.97 67.1876 101.958 67.0524C101.946 66.9172 101.899 66.7943 101.841 66.6959C101.794 66.6222 101.642 66.5484 101.361 66.487C101.08 66.4255 100.869 66.4009 100.74 66.4009C100.67 66.2411 100.67 66.0936 100.74 65.9707C100.892 65.9707 101.127 65.9953 101.443 66.0076C101.747 66.0322 101.993 66.0445 102.18 66.0445Z" fill="white"/>
<path d="M118.561 73.2466C118.561 72.6689 118.538 72.3002 118.491 72.1527C118.467 72.0789 118.339 72.0297 118.104 71.9806C117.859 71.9314 117.671 71.9191 117.531 71.9191C117.507 71.8822 117.484 71.8085 117.484 71.6979C117.484 71.5995 117.496 71.5258 117.531 71.4766C118.503 71.5258 119.053 71.5504 119.182 71.5504C119.275 71.5504 119.802 71.5258 120.762 71.4766C120.797 71.5135 120.809 71.5872 120.809 71.6979C120.809 71.7962 120.786 71.8699 120.762 71.9191C120.622 71.9191 120.446 71.9437 120.212 71.9806C119.978 72.0297 119.861 72.0789 119.837 72.1527C119.791 72.3124 119.767 72.6812 119.767 73.2466V74.3037C119.767 74.4266 119.791 74.5373 119.837 74.6602C119.884 74.7831 119.908 74.8568 119.908 74.8937C119.908 74.9429 119.884 74.9798 119.849 75.0166C119.814 75.0535 119.732 75.1027 119.615 75.1641C119.334 75.3239 119.1 75.4468 118.901 75.5329C118.713 75.6189 118.385 75.705 117.929 75.8033C117.472 75.8893 116.957 75.9385 116.372 75.9385C115.692 75.9385 115.048 75.8033 114.451 75.5452C113.854 75.2871 113.362 74.9306 112.953 74.4881C112.543 74.0456 112.227 73.5293 111.992 72.9393C111.758 72.3493 111.641 71.7224 111.641 71.071C111.641 70.3826 111.758 69.7312 112.004 69.1043C112.25 68.4774 112.578 67.9366 112.988 67.4695C113.397 67.0024 113.913 66.6337 114.51 66.3632C115.107 66.0928 115.751 65.9453 116.43 65.9453C117.519 65.9453 118.514 66.0436 119.428 66.2526C119.65 67.617 119.755 68.3545 119.755 68.4528C119.755 68.502 119.732 68.5389 119.662 68.588C119.591 68.6372 119.521 68.6495 119.451 68.6495C119.381 68.6495 119.322 68.6372 119.275 68.6003C119.006 67.1499 118.081 66.437 116.5 66.437C115.833 66.437 115.224 66.6582 114.685 67.0884C114.147 67.5187 113.737 68.0718 113.456 68.7232C113.175 69.3747 113.034 70.0508 113.034 70.7637C113.034 71.2308 113.081 71.6979 113.175 72.1404C113.269 72.5829 113.421 73.0131 113.62 73.4187C113.819 73.8243 114.065 74.1685 114.346 74.4758C114.627 74.7831 114.978 75.0166 115.388 75.201C115.798 75.3731 116.243 75.4714 116.723 75.4714C117.261 75.4714 117.835 75.3116 118.432 74.992C118.503 74.9552 118.526 74.8814 118.526 74.7708V73.2466H118.561Z" fill="white"/>
<path d="M4.8323 67.7882L3.53261 71.4142C3.53261 71.4511 3.54432 71.4757 3.55603 71.4757C4.0478 71.5003 4.48103 71.5003 4.84401 71.5003C5.19528 71.5003 5.59338 71.488 6.03832 71.4511C6.05003 71.4511 6.06174 71.4511 6.06174 71.4388C6.07345 71.4265 6.07345 71.4142 6.08516 71.4019V71.3897L4.8323 67.7882ZM2.05729 73.7865C3.29843 70.4186 4.21173 67.9725 4.78547 66.4361C4.82059 66.3623 4.90255 66.2763 5.03135 66.1657C5.16015 66.055 5.25382 66.0059 5.31237 66.0059C5.32408 66.0059 5.34749 66.0182 5.3592 66.0304C5.37091 66.0427 5.39433 66.055 5.39433 66.055L8.27472 73.9832C8.5089 74.6224 8.62599 74.9543 8.6377 74.9666C8.69625 75.1264 8.84846 75.237 9.08264 75.3353C9.31682 75.4214 9.49245 75.4705 9.59783 75.4705C9.62125 75.5197 9.64467 75.5934 9.64467 75.6918C9.64467 75.7901 9.64467 75.8639 9.63296 75.9007C8.68454 75.8516 8.16934 75.827 8.07567 75.827C7.87662 75.827 7.70099 75.827 7.53706 75.8393C7.37314 75.8516 7.18579 75.8639 6.97503 75.8761C6.76427 75.8884 6.58864 75.9007 6.43642 75.9007C6.4013 75.8639 6.38959 75.7901 6.38959 75.6795C6.38959 75.5811 6.41301 75.5074 6.44813 75.4582C6.55351 75.4582 6.70573 75.4459 6.88136 75.3968C7.057 75.3476 7.18579 75.3107 7.24434 75.2616C7.27947 75.2247 7.30288 75.1509 7.30288 75.0526C7.30288 74.9174 7.22092 74.6101 7.057 74.1307C6.89307 73.6513 6.74086 73.1965 6.57693 72.7786L6.33104 72.1517C6.30763 72.1149 6.2725 72.0903 6.24908 72.0903C6.13199 72.078 5.66363 72.078 4.84401 72.078C4.24686 72.078 3.74337 72.0903 3.31014 72.1272L3.23989 72.1763C2.97058 72.9138 2.75982 73.5161 2.60761 73.9832C2.47881 74.3888 2.40855 74.7453 2.40855 75.0403C2.40855 75.1264 2.45539 75.2001 2.53735 75.2616C2.61931 75.323 2.7364 75.3599 2.85349 75.3968C2.98229 75.4214 3.08767 75.4459 3.18134 75.4582C3.27501 75.4705 3.33356 75.4705 3.3921 75.4705C3.41552 75.4951 3.42723 75.5566 3.42723 75.6672C3.43894 75.7778 3.42723 75.8516 3.41552 75.9007C3.27501 75.9007 3.13451 75.8884 2.97058 75.8761C2.80666 75.8639 2.66615 75.8516 2.52564 75.8393C2.38514 75.827 2.23292 75.827 2.04558 75.827C1.84653 75.827 1.6826 75.827 1.53039 75.8393C1.37817 75.8516 1.21424 75.8639 1.03861 75.8761C0.862977 75.8884 0.687343 75.9007 0.523418 75.9007C0.5 75.8761 0.5 75.8147 0.5 75.7041C0.5 75.5934 0.511709 75.5197 0.523418 75.4705C0.640507 75.4705 0.792723 75.4459 0.991775 75.3968C1.19083 75.3476 1.30792 75.2738 1.37817 75.1878C1.58893 74.9051 1.8114 74.438 2.05729 73.7865Z" fill="white"/>
<path d="M15.4524 68.7592C15.4524 68.0709 15.2767 67.53 14.9255 67.1244C14.5742 66.7311 14.0239 66.5221 13.2745 66.5221C12.8413 66.5221 12.6071 66.5713 12.572 66.6696C12.5251 66.7925 12.5017 67.1613 12.5017 67.7882L12.5134 70.898H13.2745C13.8599 70.898 14.3634 70.7013 14.8084 70.2957C15.2416 69.9023 15.4524 69.3861 15.4524 68.7592ZM13.8951 66.055C14.2229 66.055 14.5625 66.1165 14.8903 66.2271C15.2182 66.3377 15.5343 66.4975 15.8153 66.7065C16.0963 66.9154 16.3305 67.1859 16.5062 67.5177C16.6818 67.8496 16.7755 68.2184 16.7755 68.624C16.7755 69.1403 16.5764 69.6196 16.19 70.099C15.7919 70.5661 15.347 70.898 14.8435 71.0701C15.4524 72.1395 16.2134 73.2949 17.1267 74.5609C17.3375 74.8559 17.56 75.0649 17.8058 75.2001C18.04 75.3353 18.3562 75.4214 18.7309 75.4459C18.7543 75.4951 18.766 75.5811 18.7543 75.6795C18.7426 75.7778 18.7309 75.8516 18.7191 75.8761C17.7941 75.8761 17.1736 75.8147 16.8457 75.7041C16.5413 75.5934 16.3071 75.4582 16.1549 75.2984C16.0729 75.2247 16.0027 75.1386 15.9324 75.0403C15.8153 74.8682 15.5109 74.4011 15.0191 73.6513C14.5391 72.9015 14.0941 72.1886 13.6726 71.5249C13.6023 71.4019 13.4501 71.3528 13.2511 71.3528H12.5017V74.1184C12.5017 74.6961 12.5251 75.0649 12.572 75.2124C12.5954 75.2861 12.7242 75.3353 12.9701 75.3845C13.216 75.4336 13.4033 75.4459 13.5555 75.4459C13.5789 75.4828 13.6023 75.5566 13.6023 75.6672C13.6023 75.7655 13.5906 75.8393 13.5555 75.8884C12.5837 75.8393 12.0333 75.8147 11.9046 75.8147C11.764 75.8147 11.202 75.8393 10.2302 75.8884C10.195 75.8516 10.1833 75.7778 10.1833 75.6672C10.1833 75.5689 10.2068 75.4951 10.2302 75.4459C10.3707 75.4459 10.5697 75.4214 10.8156 75.3845C11.0615 75.3353 11.1903 75.2861 11.2137 75.2124C11.2489 75.0895 11.2723 74.7207 11.284 74.1184L11.2723 67.7759C11.2723 67.1982 11.2489 66.8294 11.202 66.6819C11.1786 66.6082 11.0498 66.559 10.8039 66.5098C10.558 66.4607 10.3707 66.4484 10.2185 66.4484C10.195 66.4115 10.1716 66.3377 10.1716 66.2271C10.1716 66.1288 10.1833 66.055 10.2185 66.0059C11.1903 66.055 11.7406 66.0796 11.8928 66.0796C12.0568 66.0796 12.3495 66.0796 12.7944 66.0673C13.2277 66.055 13.6023 66.055 13.8951 66.055Z" fill="white"/>
<path d="M22.4893 67.7882L21.1896 71.4142C21.1896 71.4511 21.2013 71.4757 21.213 71.4757C21.7048 71.5003 22.138 71.5003 22.501 71.5003C22.8523 71.5003 23.2504 71.488 23.6953 71.4511C23.707 71.4511 23.7187 71.4511 23.7187 71.4388C23.7304 71.4265 23.7304 71.4142 23.7421 71.4019V71.3897L22.4893 67.7882ZM19.7143 73.7865C20.9554 70.4186 21.8687 67.9725 22.4424 66.4361C22.4776 66.3623 22.5595 66.2763 22.6883 66.1657C22.8171 66.055 22.9108 66.0059 22.9693 66.0059C22.9811 66.0059 23.0045 66.0182 23.0162 66.0304C23.0279 66.0427 23.0513 66.055 23.0513 66.055L25.9317 73.9832C26.1659 74.6224 26.283 74.9543 26.2947 74.9666C26.3532 75.1264 26.5054 75.237 26.7396 75.3353C26.9738 75.4214 27.1494 75.4705 27.2548 75.4705C27.2782 75.5197 27.3016 75.5934 27.3016 75.6918C27.3016 75.7901 27.3016 75.8639 27.2899 75.9007C26.3415 75.8516 25.8263 75.827 25.7327 75.827C25.5336 75.827 25.358 75.827 25.194 75.8393C25.0301 75.8516 24.8428 75.8639 24.632 75.8761C24.4213 75.8884 24.2456 75.9007 24.0934 75.9007C24.0583 75.8639 24.0466 75.7901 24.0466 75.6795C24.0466 75.5811 24.07 75.5074 24.1051 75.4582C24.2105 75.4582 24.3627 75.4459 24.5383 75.3968C24.714 75.3476 24.8428 75.3107 24.9013 75.2616C24.9364 75.2247 24.9599 75.1509 24.9599 75.0526C24.9599 74.9174 24.8779 74.6101 24.714 74.1307C24.5501 73.6513 24.3978 73.1965 24.2339 72.7786L23.988 72.1517C23.9646 72.1149 23.9295 72.0903 23.9061 72.0903C23.789 72.078 23.3206 72.078 22.501 72.078C21.9038 72.078 21.4004 72.0903 20.9671 72.1272L20.8969 72.1763C20.6276 72.9138 20.4168 73.5161 20.2646 73.9832C20.1358 74.3888 20.0655 74.7453 20.0655 75.0403C20.0655 75.1264 20.1124 75.2001 20.1943 75.2616C20.2763 75.323 20.3934 75.3599 20.5105 75.3968C20.6393 75.4214 20.7447 75.4459 20.8383 75.4582C20.932 75.4705 20.9905 75.4705 21.0491 75.4705C21.0725 75.4951 21.0842 75.5566 21.0842 75.6672C21.0959 75.7778 21.0842 75.8516 21.0725 75.9007C20.932 75.9007 20.7915 75.8884 20.6276 75.8761C20.4636 75.8639 20.3231 75.8516 20.1826 75.8393C20.0421 75.827 19.8899 75.827 19.7026 75.827C19.5035 75.827 19.3396 75.827 19.1874 75.8393C19.0352 75.8516 18.8712 75.8639 18.6956 75.8761C18.52 75.8884 18.3443 75.9007 18.1804 75.9007C18.157 75.8761 18.157 75.8147 18.157 75.7041C18.157 75.5934 18.1687 75.5197 18.1804 75.4705C18.2975 75.4705 18.4497 75.4459 18.6488 75.3968C18.8478 75.3476 18.9649 75.2738 19.0352 75.1878C19.2459 74.9051 19.4684 74.438 19.7143 73.7865Z" fill="white"/>
<path d="M36.9616 65.9336C38.0505 65.9336 39.0458 66.0319 39.9591 66.2409C40.1815 67.6053 40.2869 68.3428 40.2869 68.4411C40.2869 68.4903 40.2635 68.5272 40.1932 68.5763C40.123 68.6255 40.0527 68.6378 39.9825 68.6378C39.9122 68.6378 39.8537 68.6255 39.8185 68.5886C39.5492 67.1382 38.6242 66.4253 37.0435 66.4253C36.3761 66.4253 35.7673 66.6465 35.2286 67.0767C34.69 67.5069 34.2802 68.0601 33.9992 68.7115C33.7182 69.363 33.5777 70.039 33.5777 70.752C33.5777 71.2191 33.6245 71.6861 33.7182 72.1286C33.8119 72.5711 33.9641 73.0014 34.1631 73.407C34.3622 73.8126 34.6081 74.1568 34.8891 74.4641C35.1701 74.7714 35.5214 75.0049 35.9312 75.1893C36.341 75.3614 36.7742 75.4597 37.2543 75.4597C37.9802 75.4597 38.6125 75.2262 39.1277 74.7468C39.5492 74.3412 39.842 73.7757 39.9942 73.0259C40.1581 73.0137 40.3103 73.0505 40.4508 73.1489C40.4508 73.3332 40.3923 73.7266 40.2752 74.3043C40.1581 74.882 40.0527 75.2139 39.9591 75.2876C39.2097 75.7301 38.191 75.9514 36.9147 75.9514C36.2356 75.9514 35.5916 75.8162 34.9945 75.5581C34.3973 75.2999 33.9055 74.9435 33.4957 74.501C33.0859 74.0585 32.7698 73.5422 32.5356 72.9522C32.3014 72.3622 32.1843 71.7353 32.1843 71.0838C32.1843 70.3955 32.3014 69.744 32.5473 69.1172C32.7932 68.4903 33.121 67.9494 33.5309 67.4824C33.9407 67.0153 34.4559 66.6465 35.053 66.3761C35.6385 66.0811 36.2824 65.9336 36.9616 65.9336Z" fill="white"/>
<path d="M46.0945 66.4376C45.6847 66.4376 45.31 66.5236 44.9704 66.6834C44.6309 66.8432 44.3499 67.0644 44.1274 67.3349C43.9049 67.6053 43.7176 67.9249 43.5537 68.2936C43.4014 68.6624 43.2843 69.0434 43.2141 69.4245C43.1438 69.8178 43.1087 70.2111 43.1087 70.629C43.1087 71.2191 43.1907 71.7845 43.3429 72.3622C43.4951 72.9276 43.7176 73.4439 43.9869 73.911C44.2679 74.378 44.6192 74.7591 45.0641 75.0418C45.509 75.3245 45.9891 75.472 46.516 75.472C46.9258 75.472 47.3005 75.386 47.6401 75.2262C47.9796 75.0664 48.2606 74.8451 48.4831 74.5624C48.7056 74.292 48.8929 73.9601 49.0568 73.5914C49.2091 73.2226 49.3261 72.8416 49.3964 72.4482C49.4667 72.0549 49.5018 71.6493 49.5018 71.2313C49.5018 70.6413 49.4198 70.0759 49.2676 69.4982C49.1154 68.9328 48.8929 68.4165 48.6119 67.9617C48.3309 67.5069 47.9679 67.1259 47.5347 66.8432C47.1015 66.5605 46.6331 66.4376 46.0945 66.4376ZM46.317 65.9336C46.9375 65.9336 47.523 66.0565 48.085 66.3146C48.647 66.5605 49.1388 66.9046 49.5603 67.3471C49.9819 67.7774 50.3097 68.3182 50.5673 68.9451C50.8249 69.572 50.942 70.248 50.942 70.9732C50.942 71.6493 50.8132 72.3007 50.5673 72.9276C50.3214 73.5545 49.9818 74.083 49.572 74.5378C49.1505 74.9803 48.6587 75.3368 48.0967 75.6072C47.5347 75.8776 46.9375 76.0006 46.3287 76.0006C45.7081 76.0006 45.1226 75.8776 44.5606 75.6195C43.9986 75.3737 43.5185 75.0295 43.097 74.587C42.6872 74.1568 42.3476 73.616 42.1017 72.9891C41.8559 72.3622 41.7388 71.6861 41.7388 70.9732C41.7388 70.2849 41.8559 69.6334 42.1017 69.0188C42.3476 68.3919 42.6755 67.8634 43.0853 67.4086C43.4951 66.9661 43.9869 66.5974 44.5489 66.3392C45.1109 66.0688 45.6964 65.9336 46.317 65.9336Z" fill="white"/>
<path d="M53.4829 66.0445C53.9395 66.0445 54.2908 66.0322 54.5601 66.0199C54.7943 66.4009 55.649 67.5318 57.1126 69.4001C58.5763 71.2685 59.5715 72.596 60.1101 73.3826V72.5222V67.753C60.1101 67.4457 60.0984 67.2245 60.0867 67.0893C60.075 66.954 60.0282 66.8311 59.9696 66.7205C59.9345 66.6468 59.7823 66.5853 59.5013 66.5238C59.2202 66.4624 59.0212 66.4255 58.8924 66.4255C58.8573 66.3763 58.8456 66.3026 58.8339 66.2042C58.8339 66.1059 58.8456 66.0322 58.8573 65.9953C59.8057 66.0445 60.3443 66.069 60.4848 66.069C60.6839 66.069 60.8478 66.069 61 66.0567C61.1522 66.0445 61.3161 66.0322 61.4918 66.0199C61.6674 66.0076 61.843 65.9953 62.007 65.9953C62.0772 66.1182 62.0772 66.2657 62.007 66.4255C61.8782 66.4255 61.6674 66.4501 61.3864 66.5115C61.1054 66.573 60.9415 66.6345 60.9063 66.7205C60.8478 66.8188 60.801 66.9418 60.7892 67.077C60.7775 67.2122 60.7658 67.4334 60.7658 67.7284V73.776C60.7658 74.6241 60.7775 75.3124 60.7892 75.8287C60.7775 75.8902 60.719 75.9147 60.6019 75.9147C60.5551 75.9147 60.4731 75.8902 60.3794 75.8287C60.2858 75.7795 60.1921 75.6935 60.1101 75.5706L53.9395 67.3843V74.1324C53.9395 74.4397 53.9512 74.661 53.9629 74.7962C53.9747 74.9314 54.0215 75.0543 54.08 75.1649C54.1152 75.2387 54.2674 75.3002 54.5367 75.3616C54.806 75.4231 55.005 75.4599 55.1455 75.4599C55.1807 75.5091 55.1924 75.5829 55.2041 75.6812C55.2041 75.7795 55.1924 75.8533 55.1807 75.8902C54.2322 75.841 53.6936 75.8164 53.5648 75.8164C53.3658 75.8164 53.2019 75.8164 53.0496 75.8287C52.8974 75.841 52.7335 75.8533 52.5579 75.8656C52.3822 75.8779 52.2066 75.8902 52.0427 75.8902C51.9724 75.7672 51.9724 75.6197 52.0427 75.4599C52.1715 75.4599 52.3822 75.4354 52.6633 75.3739C52.9443 75.3124 53.1082 75.251 53.1433 75.1649C53.2019 75.0666 53.2487 74.9437 53.2604 74.8085C53.2721 74.6733 53.2838 74.452 53.2838 74.157V67.7038C53.2838 67.3966 53.2721 67.1876 53.2604 67.0524C53.2487 66.9172 53.2019 66.7943 53.1433 66.6959C53.0965 66.6222 52.9443 66.5484 52.6633 66.487C52.3822 66.4255 52.1715 66.4009 52.0427 66.4009C51.9724 66.2411 51.9724 66.0936 52.0427 65.9707C52.1949 65.9707 52.4291 65.9953 52.7452 66.0076C53.0614 66.0322 53.3072 66.0445 53.4829 66.0445Z" fill="white"/>
<path d="M66.1403 65.957C66.3511 65.957 66.5384 65.9693 66.7258 65.9939C66.9131 66.0185 67.0536 66.0431 67.1707 66.0799C67.2878 66.1168 67.4634 66.1537 67.6859 66.2275C67.9084 66.2889 68.1074 66.3381 68.283 66.375C68.3416 66.8052 68.4118 67.5058 68.4821 68.4891C68.4821 68.5383 68.4587 68.5752 68.3884 68.5998C68.3182 68.6366 68.2479 68.6489 68.1894 68.6489C68.1191 68.6489 68.0723 68.6243 68.0372 68.5875C68.0137 68.44 67.9786 68.2679 67.9201 68.0835C67.8615 67.8991 67.7679 67.7148 67.6508 67.5181C67.5337 67.3214 67.4049 67.1493 67.2527 66.9895C67.1004 66.8297 66.9248 66.7068 66.7141 66.6085C66.5033 66.5102 66.2925 66.461 66.0584 66.461C65.7891 66.461 65.5432 66.5102 65.3324 66.6085C65.1216 66.7068 64.9577 66.842 64.8523 67.0141C64.7352 67.1862 64.6533 67.3583 64.6064 67.5427C64.5479 67.727 64.5245 67.9114 64.5245 68.1081C64.5245 68.2556 64.5362 68.3908 64.5713 68.526C64.6065 68.6612 64.6416 68.7841 64.7001 68.8825C64.747 68.9808 64.8172 69.0914 64.9109 69.2021C65.0046 69.3127 65.0865 69.3987 65.1568 69.4725C65.227 69.5462 65.3324 69.6323 65.4729 69.7306C65.6134 69.8289 65.7188 69.9027 65.8008 69.9641C65.8827 70.0256 65.9998 70.0994 66.1637 70.1977C66.316 70.296 66.433 70.3698 66.515 70.4189C66.5853 70.4681 66.7141 70.5419 66.878 70.6525C67.0419 70.7631 67.1824 70.8492 67.2878 70.9229C67.3932 70.9967 67.5337 71.0827 67.6859 71.2056C67.8498 71.3285 67.9786 71.4392 68.084 71.5375C68.1894 71.6358 68.3065 71.7587 68.4236 71.894C68.5406 72.0292 68.646 72.1767 68.7163 72.3119C68.7865 72.4471 68.8451 72.5946 68.8919 72.7667C68.9387 72.9388 68.9622 73.1108 68.9622 73.2952C68.9622 73.6886 68.8802 74.0573 68.7163 74.4015C68.5524 74.7456 68.3299 75.0284 68.0489 75.2619C67.7679 75.4954 67.4517 75.6798 67.1005 75.8027C66.7492 75.9379 66.3745 75.9994 65.9998 75.9994C65.7773 75.9994 65.5432 75.9871 65.2856 75.9502C65.028 75.9134 64.8172 75.8765 64.6416 75.8519C64.4776 75.815 64.2552 75.7659 63.9976 75.7044C63.74 75.6429 63.5526 75.5938 63.459 75.5815C63.3887 75.1882 63.3185 74.7334 63.2482 74.2294C63.1897 73.7131 63.1545 73.4058 63.1545 73.2829C63.2716 73.16 63.3887 73.1108 63.5175 73.1108C63.6112 73.1108 63.658 73.16 63.6697 73.246C63.6932 73.3936 63.74 73.5411 63.7985 73.7008C63.8571 73.8606 63.939 74.0573 64.0678 74.2786C64.1849 74.5121 64.3371 74.7088 64.5011 74.8809C64.665 75.0529 64.8758 75.2004 65.1451 75.3234C65.4144 75.4463 65.7071 75.5077 66.0349 75.5077C66.515 75.5077 66.9248 75.3479 67.241 75.0161C67.5688 74.6965 67.7327 74.254 67.7327 73.6886C67.7327 73.5411 67.721 73.3936 67.6859 73.2706C67.6625 73.1354 67.6156 73.0248 67.5805 72.9265C67.5337 72.8281 67.4751 72.7298 67.3932 72.6315C67.3112 72.5331 67.2292 72.4594 67.159 72.3856C67.0887 72.3242 66.9951 72.2504 66.878 72.1644C66.7609 72.0783 66.6555 72.0169 66.5618 71.9677C66.4799 71.9185 66.3511 71.8448 66.2106 71.7587C66.0584 71.6727 65.9413 71.6112 65.8476 71.5498C65.6485 71.4269 65.5197 71.3531 65.4729 71.3162C65.4144 71.2794 65.2973 71.2056 65.1099 71.0827C64.9226 70.9598 64.7938 70.8737 64.7235 70.8123C64.6533 70.7508 64.5362 70.6648 64.384 70.5296C64.2201 70.4067 64.1147 70.296 64.0444 70.21C63.9742 70.1239 63.8922 70.0133 63.7868 69.8781C63.6814 69.7429 63.6112 69.6077 63.5644 69.4848C63.5175 69.3618 63.4824 69.2266 63.4356 69.0668C63.4004 68.9071 63.377 68.7473 63.377 68.5875C63.377 68.0835 63.5058 67.6287 63.7751 67.2231C64.0444 66.8175 64.384 66.5102 64.8055 66.2889C65.2153 66.0554 65.6603 65.957 66.1403 65.957Z" fill="white"/>
<path d="M71.6433 66.0808C71.7838 66.0808 72.3342 66.0562 73.2943 66.007C73.3294 66.0439 73.3411 66.1176 73.3411 66.2283C73.3411 66.3266 73.3177 66.4003 73.2943 66.4495C73.1538 66.4495 72.9547 66.4741 72.7088 66.511C72.463 66.5601 72.3342 66.6093 72.3107 66.6831C72.2639 66.8428 72.2405 67.2116 72.2405 67.777V71.4523C72.2405 72.6691 72.4747 73.5787 72.9313 74.181C73.3763 74.7587 74.0202 75.0415 74.875 75.0415C76.6665 75.0415 77.5798 73.9475 77.6266 71.7718V67.7401C77.6266 67.4329 77.6149 67.2116 77.6032 67.0764C77.5915 66.9412 77.5446 66.8183 77.4861 66.7076C77.451 66.6339 77.2987 66.5724 77.0528 66.511C76.7953 66.4495 76.6079 66.4126 76.4674 66.4126C76.4323 66.3635 76.4206 66.2897 76.4089 66.1914C76.4089 66.093 76.4089 66.0193 76.4323 65.9824C77.3807 66.0316 77.8959 66.0562 78.0013 66.0562C78.2003 66.0562 78.3642 66.0562 78.5165 66.0439C78.6687 66.0316 78.8326 66.0193 79.0082 66.007C79.1839 65.9947 79.3595 65.9824 79.5234 65.9824C79.5937 66.1053 79.5937 66.2528 79.5234 66.4126C79.3946 66.4126 79.1839 66.4372 78.9029 66.4987C78.6218 66.5601 78.4579 66.6216 78.4228 66.7076C78.3643 66.806 78.3174 66.9289 78.3057 67.0641C78.294 67.1993 78.2823 67.4206 78.2823 67.7156V71.7227C78.2823 73.1485 77.9544 74.1933 77.3104 74.8694C76.6547 75.5454 75.7532 75.8773 74.594 75.8773C73.5636 75.8773 72.7205 75.5454 72.0648 74.894C71.374 74.2056 71.0228 73.2714 71.0228 72.0914V67.7524C71.0228 67.1747 70.9993 66.806 70.9525 66.6585C70.9291 66.5847 70.8003 66.5356 70.5544 66.4864C70.3085 66.4372 70.1212 66.4249 69.969 66.4249C69.9455 66.3881 69.9221 66.3143 69.9221 66.2037C69.9221 66.1053 69.9338 66.0316 69.969 65.9824C70.9408 66.0562 71.4911 66.0808 71.6433 66.0808Z" fill="white"/>
<path d="M82.7082 74.1192C82.7082 74.783 82.7317 75.1394 82.7902 75.1886C82.8722 75.2624 82.9776 75.2992 83.1064 75.3115C83.2352 75.3238 83.4576 75.3361 83.7972 75.3361H84.6051C84.8978 75.3361 85.2022 75.2992 85.5184 75.2378C85.8345 75.1763 86.0804 75.0657 86.256 74.9428C86.6424 74.6601 86.9352 74.1684 87.1459 73.4432C87.1576 73.3817 87.2279 73.3571 87.345 73.3571C87.5206 73.3571 87.6377 73.3817 87.6963 73.4432C87.6494 73.5661 87.5792 73.7751 87.4855 74.0578C87.3918 74.3405 87.3099 74.574 87.2513 74.7461C87.1928 74.9182 87.1342 75.1272 87.064 75.3484C87.0054 75.5697 86.9586 75.754 86.9352 75.9138C86.4434 75.9138 85.6823 75.9015 84.6519 75.8892C83.6215 75.877 82.7668 75.8647 82.1111 75.8647C81.8769 75.8647 81.5842 75.877 81.2212 75.8892C80.8582 75.9015 80.6006 75.9138 80.425 75.9138C80.3899 75.877 80.3782 75.8032 80.3782 75.6926C80.3782 75.5942 80.3899 75.5205 80.425 75.4713C80.5655 75.4713 80.7646 75.4467 81.0105 75.4099C81.2563 75.3607 81.3851 75.3115 81.4086 75.2378C81.4554 75.078 81.4788 74.7092 81.4788 74.1438V67.8013C81.4788 67.2235 81.4554 66.8548 81.4086 66.7073C81.3851 66.6335 81.2563 66.5844 81.0105 66.5352C80.7646 66.486 80.5772 66.4738 80.425 66.4738C80.4016 66.4369 80.3782 66.3631 80.3782 66.2525C80.3782 66.1542 80.3899 66.0804 80.425 66.0312C81.3969 66.0804 81.9472 66.105 82.0994 66.105C82.2399 66.105 82.7902 66.0804 83.7503 66.0312C83.7855 66.0681 83.7972 66.1419 83.7972 66.2525C83.7972 66.3508 83.7738 66.4246 83.7503 66.4738C83.6098 66.4738 83.4108 66.4983 83.1649 66.5352C82.919 66.5844 82.7902 66.6335 82.7668 66.7073C82.7083 66.8917 82.6848 67.2604 82.6965 67.8013L82.7082 74.1192Z" fill="white"/>
<path d="M93.8903 66.032C93.9957 66.032 94.1479 66.0074 94.3236 65.9583C94.4992 65.9091 94.6397 65.8599 94.7334 65.8108C94.8388 65.7493 94.9324 65.737 95.0027 65.7862C95.1198 66.8187 95.2369 67.6791 95.3657 68.3429C95.2954 68.4166 95.2017 68.4535 95.0964 68.4412C95.0027 68.4412 94.9324 68.4166 94.8973 68.3675C94.7919 67.8143 94.628 67.3841 94.3938 67.0522C94.1596 66.7204 93.8786 66.5606 93.5391 66.5606H91.7359V74.1323C91.7359 74.71 91.7593 75.0788 91.8062 75.2263C91.8296 75.3 91.9584 75.3492 92.2043 75.3984C92.4501 75.4475 92.6375 75.4598 92.7897 75.4598C92.8131 75.4967 92.8365 75.5704 92.8365 75.6811C92.8365 75.7794 92.8248 75.8532 92.7897 75.9023C91.8179 75.8532 91.2675 75.8286 91.1387 75.8286C90.9982 75.8286 90.4362 75.8532 89.4644 75.9023C89.4292 75.8654 89.4175 75.7917 89.4175 75.6811C89.4175 75.5827 89.441 75.509 89.4644 75.4598C89.6049 75.4598 89.8039 75.4352 90.0498 75.3984C90.2957 75.3492 90.4245 75.3 90.4479 75.2263C90.4948 75.0665 90.5182 74.6977 90.5182 74.1323V66.5606H88.6916C88.352 66.5606 88.071 66.7204 87.8368 67.0522C87.6026 67.3841 87.4387 67.8266 87.3333 68.3675C87.2982 68.4166 87.2397 68.4412 87.1343 68.4412C87.0289 68.4535 86.9352 68.4166 86.865 68.3429C86.9938 67.6791 87.1226 66.8187 87.228 65.7862C87.3099 65.7493 87.4153 65.7616 87.5558 65.8354C87.6495 65.8845 87.7783 65.9337 87.9422 65.9706C88.1061 66.0197 88.2466 66.032 88.352 66.032H93.8903Z" fill="white"/>
<path d="M97.8831 66.0796C98.0236 66.0796 98.5739 66.055 99.534 66.0059C99.5692 66.0427 99.5809 66.1165 99.5809 66.2271C99.5809 66.3254 99.5575 66.3992 99.534 66.4484C99.3935 66.4484 99.1945 66.4729 98.9486 66.5098C98.7027 66.559 98.5739 66.6082 98.5505 66.6819C98.5037 66.8417 98.4802 67.2105 98.4802 67.7759V74.1184C98.4802 74.6961 98.5037 75.0649 98.5505 75.2124C98.5739 75.2861 98.7027 75.3353 98.9486 75.3845C99.1945 75.4336 99.3818 75.4459 99.534 75.4459C99.5575 75.4828 99.5809 75.5566 99.5809 75.6672C99.5809 75.7655 99.5692 75.8393 99.534 75.8884C98.5622 75.8393 98.0119 75.8147 97.8831 75.8147C97.7426 75.8147 97.1805 75.8393 96.2087 75.8884C96.1736 75.8516 96.1619 75.7778 96.1619 75.6672C96.1619 75.5689 96.1736 75.4951 96.2087 75.4459C96.3492 75.4459 96.5483 75.4214 96.7941 75.3845C97.04 75.3353 97.1688 75.2861 97.1923 75.2124C97.2391 75.0526 97.2625 74.6838 97.2625 74.1184V67.7759C97.2625 67.1982 97.2391 66.8294 97.1923 66.6819C97.1688 66.6082 97.04 66.559 96.7941 66.5098C96.5483 66.4607 96.3609 66.4484 96.2087 66.4484C96.1853 66.4115 96.1619 66.3377 96.1619 66.2271C96.1619 66.1288 96.1736 66.055 96.2087 66.0059C97.1805 66.055 97.7309 66.0796 97.8831 66.0796Z" fill="white"/>
<path d="M102.18 66.0445C102.637 66.0445 102.988 66.0322 103.258 66.0199C103.492 66.4009 104.347 67.5318 105.81 69.4001C107.274 71.2685 108.269 72.596 108.808 73.3826V72.5222V67.753C108.808 67.4457 108.796 67.2245 108.784 67.0893C108.773 66.954 108.726 66.8311 108.667 66.7205C108.632 66.6468 108.48 66.5853 108.199 66.5238C107.929 66.4624 107.719 66.4255 107.59 66.4255C107.555 66.3763 107.543 66.3026 107.531 66.2042C107.531 66.1059 107.531 66.0322 107.555 65.9953C108.503 66.0445 109.042 66.069 109.182 66.069C109.381 66.069 109.545 66.069 109.698 66.0567C109.85 66.0445 110.014 66.0322 110.189 66.0199C110.365 66.0076 110.541 65.9953 110.704 65.9953C110.775 66.1182 110.775 66.2657 110.704 66.4255C110.576 66.4255 110.365 66.4501 110.084 66.5115C109.803 66.573 109.639 66.6345 109.604 66.7205C109.545 66.8188 109.498 66.9418 109.487 67.077C109.475 67.2122 109.463 67.4334 109.463 67.7284V73.776C109.463 74.6241 109.475 75.3124 109.487 75.8287C109.475 75.8902 109.416 75.9147 109.299 75.9147C109.253 75.9147 109.171 75.8902 109.077 75.8287C108.983 75.7795 108.89 75.6935 108.808 75.5706L102.637 67.3843V74.1324C102.637 74.4397 102.649 74.661 102.66 74.7962C102.672 74.9314 102.719 75.0543 102.778 75.1649C102.813 75.2387 102.965 75.3002 103.234 75.3616C103.503 75.4231 103.703 75.4599 103.843 75.4599C103.878 75.5091 103.89 75.5829 103.902 75.6812C103.902 75.7795 103.89 75.8533 103.878 75.8902C102.93 75.841 102.391 75.8164 102.262 75.8164C102.063 75.8164 101.899 75.8164 101.747 75.8287C101.595 75.841 101.431 75.8533 101.255 75.8656C101.08 75.8779 100.904 75.8902 100.74 75.8902C100.67 75.7672 100.67 75.6197 100.74 75.4599C100.869 75.4599 101.08 75.4354 101.361 75.3739C101.642 75.3124 101.806 75.251 101.841 75.1649C101.899 75.0666 101.946 74.9437 101.958 74.8085C101.97 74.6733 101.981 74.452 101.981 74.157V67.7038C101.981 67.3966 101.97 67.1876 101.958 67.0524C101.946 66.9172 101.899 66.7943 101.841 66.6959C101.794 66.6222 101.642 66.5484 101.361 66.487C101.08 66.4255 100.869 66.4009 100.74 66.4009C100.67 66.2411 100.67 66.0936 100.74 65.9707C100.892 65.9707 101.127 65.9953 101.443 66.0076C101.747 66.0322 101.993 66.0445 102.18 66.0445Z" fill="white"/>
<path d="M118.561 73.2466C118.561 72.6689 118.538 72.3002 118.491 72.1527C118.467 72.0789 118.339 72.0297 118.104 71.9806C117.859 71.9314 117.671 71.9191 117.531 71.9191C117.507 71.8822 117.484 71.8085 117.484 71.6979C117.484 71.5995 117.496 71.5258 117.531 71.4766C118.503 71.5258 119.053 71.5504 119.182 71.5504C119.275 71.5504 119.802 71.5258 120.762 71.4766C120.797 71.5135 120.809 71.5872 120.809 71.6979C120.809 71.7962 120.786 71.8699 120.762 71.9191C120.622 71.9191 120.446 71.9437 120.212 71.9806C119.978 72.0297 119.861 72.0789 119.837 72.1527C119.791 72.3124 119.767 72.6812 119.767 73.2466V74.3037C119.767 74.4266 119.791 74.5373 119.837 74.6602C119.884 74.7831 119.908 74.8568 119.908 74.8937C119.908 74.9429 119.884 74.9798 119.849 75.0166C119.814 75.0535 119.732 75.1027 119.615 75.1641C119.334 75.3239 119.1 75.4468 118.901 75.5329C118.713 75.6189 118.385 75.705 117.929 75.8033C117.472 75.8893 116.957 75.9385 116.372 75.9385C115.692 75.9385 115.048 75.8033 114.451 75.5452C113.854 75.2871 113.362 74.9306 112.953 74.4881C112.543 74.0456 112.227 73.5293 111.992 72.9393C111.758 72.3493 111.641 71.7224 111.641 71.071C111.641 70.3826 111.758 69.7312 112.004 69.1043C112.25 68.4774 112.578 67.9366 112.988 67.4695C113.397 67.0024 113.913 66.6337 114.51 66.3632C115.107 66.0928 115.751 65.9453 116.43 65.9453C117.519 65.9453 118.514 66.0436 119.428 66.2526C119.65 67.617 119.755 68.3545 119.755 68.4528C119.755 68.502 119.732 68.5389 119.662 68.588C119.591 68.6372 119.521 68.6495 119.451 68.6495C119.381 68.6495 119.322 68.6372 119.275 68.6003C119.006 67.1499 118.081 66.437 116.5 66.437C115.833 66.437 115.224 66.6582 114.685 67.0884C114.147 67.5187 113.737 68.0718 113.456 68.7232C113.175 69.3747 113.034 70.0508 113.034 70.7637C113.034 71.2308 113.081 71.6979 113.175 72.1404C113.269 72.5829 113.421 73.0131 113.62 73.4187C113.819 73.8243 114.065 74.1685 114.346 74.4758C114.627 74.7831 114.978 75.0166 115.388 75.201C115.798 75.3731 116.243 75.4714 116.723 75.4714C117.261 75.4714 117.835 75.3116 118.432 74.992C118.503 74.9552 118.526 74.8814 118.526 74.7708V73.2466H118.561Z" fill="white"/>
</g>
<defs>
<clipPath id="clip0_419_12433">
<rect width="121" height="76" fill="white" transform="translate(0.5)"/>
</clipPath>
</defs>
</svg>
