<svg width="57" height="56" viewBox="0 0 57 56" fill="none" xmlns="http://www.w3.org/2000/svg">
<path fill-rule="evenodd" clip-rule="evenodd" d="M27.5974 23.0781H32.9856V38.3086H27.5974V23.0781ZM19.2963 28.0137H24.6845V38.541H19.2963V28.0137ZM10.9815 30.9258H16.3834V38.7734H10.9815V30.9258ZM2.22913 41.9043H43.297V2.46094C43.297 1.12109 44.4048 0 45.5535 0C46.88 0 47.7826 1.12109 47.7826 2.46094V41.8906H54.7435C56.0974 41.8906 57 43.0117 57 44.3516C57 45.6914 56.1111 46.8125 54.7435 46.8125H47.7826V53.5391C47.7826 54.8789 46.8664 56 45.5535 56C44.4048 56 43.297 54.8789 43.297 53.5391V46.8125H2.22913C1.10773 46.8125 0 45.6914 0 44.3516C0 43.0254 1.10773 41.9043 2.22913 41.9043ZM36.5823 9.84375L40.3704 12.0996L37.69 3.5957L30.2915 6.94531L34.1207 8.75C34.1207 8.96875 34.1207 8.96875 33.8882 9.20117C33.8882 9.41992 33.6557 9.65234 33.4369 10.0898C33.4369 10.3223 33.2044 10.541 33.2044 10.541C32.9719 10.7598 32.9719 10.9922 32.7531 11.2246C32.7531 11.2246 32.5206 11.4434 32.5206 11.6758C32.2881 11.6758 32.2881 11.8945 32.0693 12.127C31.8505 12.5781 31.6454 12.7832 31.1804 13.2344C30.9616 13.4668 30.7291 13.918 30.2915 14.3555C30.059 14.5879 29.6077 15.0391 29.4026 15.2441C28.9376 15.6953 28.5137 16.1602 28.2812 16.3652C28.0487 16.584 27.8299 16.8164 27.5974 16.8164C27.3649 17.0352 27.1461 17.2676 26.941 17.5C26.7222 17.7188 26.2572 17.9512 25.8196 18.3887C25.5871 18.3887 25.3683 18.6074 25.1358 18.8398L24.4794 19.0723C23.5905 19.7285 22.6742 20.1797 21.7853 20.6309C20.869 21.082 19.9801 21.5195 19.0912 21.752C18.2023 22.2031 17.2997 22.4355 16.4107 22.6406C15.5218 22.873 14.8381 23.0918 13.9491 23.0918C13.2654 23.3242 12.5952 23.3242 11.9115 23.543C11.255 23.543 10.8037 23.543 10.3388 23.543C9.44986 23.7754 9.01224 23.7754 9.01224 23.7754C9.01224 23.7754 11.0089 23.9941 14.1679 23.7754C14.8517 23.7754 15.7406 23.543 16.6296 23.3242C17.5185 23.3242 18.4211 23.0918 19.3237 22.873C20.2126 22.6406 21.1288 22.1895 22.2366 21.957C23.1255 21.5059 24.0281 21.0684 25.1495 20.6172L25.8333 20.3984C26.0657 20.166 26.2845 19.9473 26.4897 19.9473C26.9547 19.7148 27.3786 19.2637 27.8436 19.0586C28.0624 18.8262 28.2949 18.8262 28.5273 18.5938C28.7462 18.375 28.9513 18.375 29.2111 18.1426C29.6351 17.6914 30.0864 17.4863 30.5377 17.0215C31.0026 16.8027 31.2214 16.3652 31.6864 16.1465C32.1104 15.6816 32.3292 15.2305 32.7941 15.0254C33.013 14.5742 33.4779 14.3418 33.6831 13.9043C33.9155 13.6855 34.148 13.4531 34.148 13.4531C34.3668 13.2207 34.3668 13.002 34.572 12.7695C34.7908 12.5508 34.7908 12.5508 35.0369 12.3457C35.0369 12.1133 35.2558 11.8809 35.2558 11.6621C35.4746 11.4297 35.7071 11.2109 35.9395 10.7461C36.1173 10.5273 36.3498 10.0762 36.5823 9.84375ZM35.6797 17.2539H41.0679V38.1035H35.6797V17.2539Z" fill="#005375"/>
</svg>
