<svg width="24" height="24" viewBox="0 0 24 24" fill="none" xmlns="http://www.w3.org/2000/svg">
<path d="M12.8224 4.00098C13.4062 3.99874 13.9899 4.00461 14.5735 4.01858L14.7287 4.02418C14.9079 4.03058 15.0847 4.03858 15.2983 4.04818C16.1494 4.08818 16.7302 4.22258 17.2398 4.42017C17.7678 4.62336 18.2125 4.89855 18.6573 5.34334C19.064 5.74301 19.3787 6.22647 19.5797 6.76009C19.7773 7.26967 19.9116 7.85125 19.9516 8.70242C19.9612 8.91522 19.9692 9.09281 19.9756 9.27201L19.9804 9.4272C19.9947 10.0105 20.0008 10.594 19.9988 11.1775L19.9996 11.7743V12.8223C20.0016 13.4061 19.9955 13.9898 19.9812 14.5734L19.9764 14.7286C19.97 14.9078 19.962 15.0846 19.9524 15.2982C19.9124 16.1494 19.7765 16.7302 19.5797 17.2397C19.3794 17.7739 19.0646 18.2578 18.6573 18.6573C18.2573 19.0639 17.7736 19.3787 17.2398 19.5797C16.7302 19.7772 16.1494 19.9116 15.2983 19.9516C15.0847 19.9612 14.9079 19.9692 14.7287 19.9756L14.5735 19.9804C13.9899 19.9947 13.4062 20.0008 12.8224 19.9988L12.2256 19.9996H11.1785C10.5947 20.0016 10.011 19.9955 9.42738 19.9812L9.27219 19.9764C9.08229 19.9696 8.89243 19.9616 8.70262 19.9524C7.85146 19.9124 7.27069 19.7764 6.76032 19.5797C6.22649 19.3791 5.74296 19.0643 5.34359 18.6573C4.93645 18.2575 4.62141 17.7738 4.42044 17.2397C4.22285 16.7302 4.08846 16.1494 4.04846 15.2982C4.03955 15.1084 4.03155 14.9185 4.02446 14.7286L4.02046 14.5734C4.00571 13.9898 3.99905 13.4061 4.00046 12.8223V11.1775C3.99823 10.594 4.0041 10.0105 4.01806 9.4272L4.02366 9.27201C4.03006 9.09281 4.03806 8.91522 4.04766 8.70242C4.08766 7.85045 4.22205 7.27047 4.41964 6.76009C4.62073 6.2262 4.93638 5.74288 5.34439 5.34414C5.74349 4.93675 6.22672 4.62142 6.76032 4.42017C7.27069 4.22258 7.85066 4.08818 8.70262 4.04818L9.27219 4.02418L9.42738 4.02018C10.0107 4.00544 10.5942 3.99878 11.1777 4.00018L12.8224 4.00098ZM12.0001 8.00085C11.4701 7.99335 10.9439 8.09126 10.4521 8.28889C9.96031 8.48652 9.5127 8.77992 9.13527 9.15205C8.75785 9.52418 8.45815 9.96761 8.25359 10.4566C8.04903 10.9455 7.94369 11.4703 7.94369 12.0003C7.94369 12.5303 8.04903 13.0551 8.25359 13.5441C8.45815 14.033 8.75785 14.4764 9.13527 14.8486C9.5127 15.2207 9.96031 15.5141 10.4521 15.7117C10.9439 15.9094 11.4701 16.0073 12.0001 15.9998C13.0609 15.9998 14.0782 15.5784 14.8283 14.8282C15.5784 14.0781 15.9998 13.0607 15.9998 11.9999C15.9998 10.9391 15.5784 9.9217 14.8283 9.17158C14.0782 8.42146 13.0609 8.00085 12.0001 8.00085ZM12.0001 9.60079C12.3188 9.59492 12.6356 9.65263 12.9318 9.77055C13.2281 9.88848 13.4978 10.0643 13.7254 10.2876C13.9529 10.511 14.1337 10.7774 14.2571 11.0714C14.3805 11.3654 14.4441 11.6811 14.4441 11.9999C14.4442 12.3188 14.3807 12.6344 14.2574 12.9285C14.1341 13.2225 13.9534 13.489 13.726 13.7124C13.4985 13.9359 13.2288 14.1117 12.9326 14.2298C12.6364 14.3478 12.3196 14.4056 12.0009 14.3998C11.3644 14.3998 10.7539 14.147 10.3039 13.6969C9.85382 13.2468 9.60097 12.6364 9.60097 11.9999C9.60097 11.3634 9.85382 10.753 10.3039 10.3029C10.7539 9.85284 11.3644 9.59999 12.0009 9.59999L12.0001 9.60079ZM16.1998 6.80089C15.9418 6.81122 15.6977 6.92101 15.5188 7.10726C15.3398 7.29351 15.2399 7.54177 15.2399 7.80006C15.2399 8.05834 15.3398 8.3066 15.5188 8.49285C15.6977 8.6791 15.9418 8.78889 16.1998 8.79922C16.465 8.79922 16.7194 8.69387 16.9069 8.50634C17.0944 8.31881 17.1998 8.06446 17.1998 7.79925C17.1998 7.53405 17.0944 7.2797 16.9069 7.09217C16.7194 6.90464 16.465 6.79929 16.1998 6.79929V6.80089Z" fill="white"/>
</svg>
