<svg width="48" height="52" viewBox="0 0 48 52" fill="none" xmlns="http://www.w3.org/2000/svg">
<path d="M38.6317 22.3709L36.6297 22.1777C36.4705 22.1616 36.3316 22.062 36.2697 21.9172L35.635 20.4205C35.5731 20.2743 35.5988 20.1088 35.7014 19.9863L36.9753 18.4687C37.5822 17.7194 37.5386 16.6655 36.8751 16.0182L34.23 13.4362C33.567 12.7886 32.4875 12.746 31.7073 13.3487L30.1652 14.5836C30.0407 14.6834 29.8702 14.7075 29.7218 14.647L28.1885 14.0275C28.0387 13.9664 27.9367 13.8329 27.9202 13.676L27.7223 11.7228C27.6087 10.7741 26.8148 10.0586 25.8771 10.0586H22.1354C21.1977 10.0586 20.4038 10.7741 20.2878 11.7389L20.0923 13.6762C20.0758 13.8331 19.9738 13.9666 19.824 14.0277L18.2907 14.6472C18.1424 14.7077 17.9718 14.6836 17.8474 14.5838L16.2926 13.3386C15.525 12.7476 14.4454 12.7888 13.7823 13.4365L11.137 16.0182C10.4735 16.6655 10.4299 17.7192 11.0473 18.4807L12.3109 19.9863C12.4135 20.1088 12.4393 20.2743 12.3773 20.4205L11.7427 21.9172C11.6807 22.062 11.5423 22.1616 11.3812 22.1777L9.38063 22.3709C8.40958 22.4832 7.67676 23.2567 7.67676 24.1731V27.8245C7.67676 28.7398 8.40978 29.5148 9.39709 29.6281L11.3826 29.8189C11.5423 29.8347 11.6807 29.9345 11.7427 30.0807L12.3773 31.5775C12.4393 31.7233 12.4135 31.8888 12.3109 32.0102L11.037 33.5279C10.4301 34.2771 10.4737 35.3311 11.1372 35.9783L13.7823 38.5603C14.4454 39.209 15.5248 39.2506 16.305 38.6479L17.8474 37.4144C17.9718 37.3142 18.1424 37.2891 18.2907 37.3495L19.824 37.9701C19.9738 38.0295 20.0761 38.1647 20.0923 38.3219L20.2902 40.2748C20.4038 41.2226 21.1977 41.938 22.1354 41.938H25.8771C26.8148 41.938 27.6087 41.2224 27.7248 40.2587L27.9202 38.3219C27.9367 38.1647 28.0387 38.0295 28.1885 37.9701L29.7218 37.3495C29.8702 37.2891 30.0407 37.3142 30.1652 37.4144L31.7199 38.6579C32.4875 39.2503 33.5672 39.2088 34.2302 38.5601L36.8753 35.9781C37.5388 35.3309 37.5825 34.2771 36.965 33.5156L35.7014 32.0102C35.5988 31.8888 35.5731 31.7233 35.635 31.5775L36.2697 30.0807C36.3316 29.9345 36.4705 29.8347 36.6311 29.8189L38.6317 29.6257C39.6027 29.5148 40.3356 28.7398 40.3356 27.8245V24.1731C40.3356 23.2567 39.6025 22.4832 38.6317 22.3709ZM38.4362 27.867L36.4515 28.0596C35.6249 28.1386 34.9133 28.6545 34.5954 29.404L33.9607 30.9007C33.6433 31.6492 33.7727 32.5045 34.299 33.1322L35.5541 34.6252C35.5953 34.6764 35.5953 34.7224 35.5938 34.7274L32.9551 37.306C32.9438 37.3108 32.895 37.3108 32.8564 37.2803L31.3146 36.0464C30.6715 35.5319 29.7951 35.4056 29.0271 35.7152L27.4942 36.3358C26.7259 36.6461 26.1989 37.3397 26.118 38.1476L25.9221 40.0689C25.9147 40.1338 25.881 40.1661 25.8771 40.1701L22.1428 40.1711C22.1315 40.1663 22.0978 40.1338 22.0918 40.085L21.8945 38.1476C21.8137 37.3397 21.2866 36.6461 20.5184 36.3358L18.9855 35.7152C18.7057 35.6034 18.4141 35.5478 18.1241 35.5478C17.6128 35.5478 17.1079 35.7181 16.6987 36.0464L15.1693 37.2706C15.1173 37.3108 15.0696 37.3108 15.0638 37.3094L12.4222 34.7336C12.4172 34.7226 12.4172 34.6766 12.4485 34.6372L13.7125 33.1322C14.2396 32.5045 14.369 31.649 14.0518 30.9007L13.4171 29.404C13.0992 28.6547 12.3876 28.1386 11.561 28.0596L9.59274 27.8695C9.5267 27.8612 9.49296 27.8283 9.48967 27.8245L9.48823 24.1793C9.49317 24.1683 9.52691 24.1353 9.57649 24.1295L11.5612 23.9383C12.3878 23.858 13.0995 23.3435 13.4173 22.5936L14.052 21.0969C14.3694 20.3476 14.24 19.4921 13.7138 18.8653L12.4586 17.3724C12.4175 17.3216 12.4175 17.275 12.4189 17.2694L15.0576 14.6908C15.0689 14.686 15.1177 14.6874 15.1564 14.7165L16.6981 15.9514C17.3412 16.4665 18.2177 16.5928 18.9857 16.2809L20.5186 15.6618C21.2868 15.3515 21.8139 14.6569 21.8947 13.8499L22.0906 11.9287C22.098 11.8642 22.1317 11.8313 22.1356 11.8275L25.8699 11.8264C25.8812 11.8313 25.9149 11.8642 25.9209 11.9126L26.1182 13.8499C26.1991 14.6569 26.7262 15.3515 27.4944 15.6618L29.0273 16.2809C29.7955 16.5926 30.6717 16.4649 31.314 15.9514L32.8434 14.7275C32.8955 14.6874 32.944 14.686 32.9489 14.6874L35.5905 17.2631C35.5955 17.2752 35.5955 17.3218 35.5642 17.3605L34.3002 18.8655C33.7731 19.4925 33.6437 20.3478 33.9609 21.0971L34.5956 22.5938C34.9135 23.3437 35.6251 23.8582 36.4517 23.9385L38.4249 24.1283C38.4885 24.1369 38.5196 24.1685 38.5231 24.1733L38.5245 27.8174C38.5196 27.8283 38.4858 27.8612 38.4362 27.867Z" fill="#005375"/>
<path d="M38.5225 24.173C38.519 24.1682 38.4878 24.1367 38.4244 24.128L36.4512 23.9383C35.6246 23.8579 34.913 23.3434 34.5951 22.5935L33.9604 21.0968C33.643 20.3475 33.7724 19.492 34.2997 18.8652L35.5637 17.3603C35.595 17.3215 35.595 17.2751 35.59 17.2629L32.9484 14.6871C32.9435 14.6857 32.8949 14.6871 32.8429 14.7273L31.3135 15.9511C30.6712 16.4646 29.795 16.5925 29.0268 16.2806L27.4938 15.6615C26.7256 15.3512 26.1985 14.6566 26.1177 13.8497L25.9204 11.9123C25.9144 11.8639 25.8807 11.831 25.8694 11.8262L22.1351 11.8272C22.1312 11.831 22.0975 11.8639 22.0901 11.9284L21.8942 13.8497C21.8134 14.6566 21.2863 15.3512 20.5181 15.6615L18.9852 16.2806C18.2169 16.5923 17.3407 16.466 16.6976 15.9511L15.1559 14.7162C15.1172 14.6871 15.0686 14.6857 15.0571 14.6905L12.418 17.2691C12.4165 17.2749 12.4165 17.3213 12.4577 17.3721L13.7128 18.865C14.2389 19.492 14.3685 20.3473 14.0511 21.0966L13.4164 22.5933C13.0985 23.3432 12.3869 23.8577 11.5603 23.9381L9.57556 24.1292C9.52598 24.1351 9.49224 24.168 9.4873 24.179L9.48874 27.8242C9.49224 27.828 9.52598 27.861 9.59182 27.8692L11.5601 28.0594C12.3867 28.1383 13.0983 28.6542 13.4162 29.4037L14.0509 30.9004C14.3683 31.6489 14.2389 32.5042 13.7116 33.132L12.4476 34.637C12.4163 34.6761 12.4163 34.7221 12.4213 34.7333L15.0629 37.3091C15.0688 37.3105 15.1164 37.3105 15.1684 37.2704L16.6978 36.0461C17.107 35.718 17.6117 35.5475 18.1231 35.5475C18.4132 35.5475 18.7047 35.6031 18.9845 35.715L20.5174 36.3355C21.2857 36.6458 21.8127 37.3394 21.8936 38.1474L22.0909 40.0847C22.0969 40.1335 22.1306 40.166 22.1419 40.1709L25.8762 40.1698C25.8801 40.166 25.9138 40.1335 25.9212 40.0686L26.1171 38.1474C26.1979 37.3394 26.725 36.6458 27.4932 36.3355L29.0261 35.715C29.7943 35.4051 30.6706 35.5314 31.3137 36.0461L32.8554 37.28C32.8941 37.3105 32.9427 37.3105 32.9542 37.3057L35.5929 34.7271C35.5943 34.7223 35.5944 34.6763 35.5532 34.6249L34.298 33.132C33.772 32.5042 33.6424 31.6487 33.9598 30.9004L34.5945 29.4037C34.9123 28.6544 35.624 28.1383 36.4506 28.0594L38.4353 27.8668C38.4849 27.861 38.5186 27.828 38.5236 27.817L38.5225 24.173ZM24.0058 32.6757C20.2335 32.6757 17.1648 29.6802 17.1648 25.9979C17.1648 22.316 20.2335 19.3215 24.0058 19.3215C27.7777 19.3215 30.8465 22.316 30.8465 25.9979C30.8462 29.6802 27.7777 32.6757 24.0058 32.6757Z" fill="#005375"/>
<path d="M38.5218 24.1691C38.5181 24.1643 38.4868 24.1326 38.4232 24.1241L36.45 23.9344C35.6236 23.854 34.9118 23.3393 34.5939 22.5898L33.9594 21.0931C33.6416 20.3436 33.7712 19.4881 34.2985 18.8615L35.5625 17.3564C35.5936 17.3174 35.5936 17.2712 35.5886 17.259L32.9472 14.683C32.9423 14.6818 32.8938 14.683 32.8413 14.7232L31.3119 15.9472C30.67 16.4607 29.7936 16.5884 29.0258 16.2769L27.4925 15.6576C26.7247 15.3473 26.1974 14.6525 26.1163 13.8458L25.9194 11.9086C25.9132 11.86 25.8795 11.8271 25.8684 11.8223L22.1337 11.8235C22.13 11.8271 22.0963 11.86 22.0889 11.9245L21.8932 13.8458C21.8122 14.6525 21.2849 15.3473 20.5171 15.6576L18.9838 16.2769C18.216 16.5884 17.3396 16.4619 16.6964 15.9472L15.1545 14.7121C15.1158 14.683 15.0672 14.6818 15.0559 14.6866L12.4168 17.265C12.4155 17.271 12.4155 17.3174 12.4567 17.3684L13.7121 18.8613C14.2381 19.4879 14.3677 20.3434 14.0499 21.0929L13.4154 22.5896C13.0976 23.3391 12.3857 23.8538 11.5593 23.9342L9.57479 24.1251C9.52501 24.1312 9.49127 24.1641 9.48633 24.1749L9.48756 27.8205C9.49127 27.8241 9.52501 27.857 9.59105 27.8655L11.5593 28.0553C12.3857 28.1344 13.0976 28.6503 13.4154 29.3998L14.0499 30.8965C14.3677 31.6448 14.2381 32.5003 13.7108 33.1281L12.4468 34.6332C12.4158 34.6722 12.4158 34.7184 12.4207 34.7294L15.0621 37.3054C15.0683 37.3066 15.1156 37.3066 15.168 37.2664L16.6975 36.0424C17.1065 35.7139 17.6111 35.5436 18.1224 35.5436C18.4129 35.5436 18.7046 35.5996 18.9838 35.7115L20.5171 36.332C21.2849 36.6423 21.8122 37.3359 21.8932 38.1438L22.0901 40.081C22.0963 40.1296 22.13 40.1625 22.1411 40.1674L25.8758 40.1661C25.8795 40.1625 25.9132 40.1296 25.9207 40.0651L26.1163 38.1438C26.1974 37.3359 26.7247 36.6423 27.4925 36.332L29.0258 35.7115C29.7936 35.4012 30.67 35.5277 31.3131 36.0424L32.8551 37.2763C32.8938 37.3066 32.9423 37.3066 32.9536 37.3018L35.5926 34.7234C35.5938 34.7186 35.5938 34.6724 35.5526 34.6212L34.2973 33.1283C33.7712 32.5005 33.6416 31.645 33.9594 30.8967L34.5939 29.4C34.9118 28.6505 35.6236 28.1346 36.45 28.0555L38.4345 27.8633C38.4843 27.8572 38.5181 27.8243 38.523 27.8135L38.5218 24.1691ZM24.0047 32.672C20.2326 32.672 17.1636 29.6763 17.1636 25.9942C17.1636 22.3121 20.2326 19.3176 24.0047 19.3176C27.7768 19.3176 30.8457 22.3121 30.8457 25.9942C30.8455 29.6763 27.7766 32.672 24.0047 32.672Z" fill="#005375"/>
<path d="M29.6607 48.9393C29.8253 48.7787 29.9158 48.5648 29.9158 48.3366C29.9158 48.1085 29.8253 47.8946 29.6607 47.734L26.7814 44.9234C26.6164 44.7624 26.3973 44.6738 26.164 44.6738C25.9307 44.6738 25.7116 44.7624 25.5468 44.9234C25.3818 45.0845 25.2911 45.2984 25.2911 45.5261C25.2911 45.7536 25.3818 45.9677 25.5468 46.1288L26.2161 46.7821L26.9689 47.5169L25.9083 47.6066C25.2716 47.6607 24.6297 47.688 24.0008 47.688C11.7294 47.688 1.74605 37.9428 1.74605 25.9643C1.74605 24.9304 1.82279 23.8859 1.97421 22.8599C2.01392 22.5914 1.92216 22.3185 1.72898 22.1299C1.56316 21.9681 1.34426 21.8789 1.1126 21.8789C1.01776 21.8789 0.923328 21.894 0.831777 21.9237C0.518446 22.0253 0.294609 22.2854 0.247702 22.6023C0.0833217 23.71 0 24.8411 0 25.9639C0 32.2159 2.49821 38.0978 7.03503 42.526C11.5712 46.9538 17.5963 49.3924 24.0003 49.3924C24.5106 49.3924 25.0315 49.3753 25.5501 49.3418L26.8662 49.2566L25.9336 50.167L25.5468 50.5445C25.2066 50.8769 25.2066 51.4175 25.5468 51.7496C25.7116 51.9107 25.9309 51.9993 26.1642 51.9993C26.3975 51.9993 26.6167 51.9107 26.7816 51.7496L29.6607 48.9393Z" fill="#005375"/>
<path d="M47.7528 29.3267C47.917 28.219 48.0003 27.0881 48.0005 25.9653C48.0007 19.7131 45.5023 13.8311 40.9653 9.40277C36.4291 4.97501 30.4038 2.53641 23.9996 2.53641C23.491 2.53641 22.9709 2.55348 22.451 2.58701L21.1351 2.67196L22.0675 1.76163L22.3825 1.45417C22.5475 1.29331 22.6382 1.07923 22.6382 0.851493C22.6382 0.62396 22.5475 0.409882 22.3825 0.249022C22.2179 0.0883625 21.9988 0 21.7651 0C21.5318 0 21.3127 0.0883625 21.1481 0.249022L18.2689 3.05955C17.9286 3.39192 17.9286 3.93253 18.2689 4.2647L21.1481 7.07523C21.3129 7.23629 21.5322 7.32485 21.7655 7.32485C21.9988 7.32485 22.2179 7.23629 22.3827 7.07543C22.5477 6.91437 22.6384 6.70049 22.6384 6.47275C22.6384 6.24522 22.5477 6.03114 22.3827 5.87028L21.6522 5.15716L20.9045 4.42736L21.9573 4.33278C22.6353 4.27193 23.3223 4.241 23.9994 4.241C36.2707 4.241 46.2541 13.9862 46.2541 25.9647C46.2541 26.9986 46.1773 28.043 46.0259 29.0691C45.9864 29.3376 46.078 29.6105 46.2711 29.799C46.437 29.9611 46.6561 30.0503 46.8877 30.0503C46.9826 30.0503 47.077 30.0352 47.1683 30.0055C47.4823 29.9037 47.7059 29.6438 47.7528 29.3267Z" fill="#005375"/>
</svg>
