<svg width="30" height="30" viewBox="0 0 30 30" fill="none" xmlns="http://www.w3.org/2000/svg">
<rect width="30" height="30" rx="15" fill="white"/>
<path d="M23.5 9.64706C22.8743 9.93529 22.1998 10.1247 21.501 10.2153C22.2161 9.77882 22.7686 9.08706 23.0287 8.25529C22.3542 8.66706 21.6066 8.95529 20.8184 9.12C20.1764 8.41176 19.2744 8 18.2505 8C16.3408 8 14.7806 9.58118 14.7806 11.5329C14.7806 11.8129 14.8131 12.0847 14.87 12.34C11.9771 12.1918 9.40105 10.7835 7.68642 8.65059C7.38576 9.16941 7.21511 9.77882 7.21511 10.4212C7.21511 11.6482 7.82457 12.7353 8.76721 13.3529C8.19025 13.3529 7.65392 13.1882 7.1826 12.9412V12.9659C7.1826 14.6788 8.38528 16.1118 9.97801 16.4329C9.46665 16.5748 8.92981 16.5945 8.40966 16.4906C8.63037 17.1926 9.06263 17.8069 9.64566 18.2471C10.2287 18.6873 10.9332 18.9313 11.6601 18.9447C10.4279 19.9333 8.90048 20.4677 7.32887 20.46C7.05258 20.46 6.77629 20.4435 6.5 20.4106C8.04398 21.4153 9.8805 22 11.847 22C18.2505 22 21.7691 16.6141 21.7691 11.9447C21.7691 11.7882 21.7691 11.64 21.761 11.4835C22.4436 10.9894 23.0287 10.3635 23.5 9.64706Z" fill="#005375"/>
</svg>
