<svg width="14" height="22" viewBox="0 0 14 22" fill="none" xmlns="http://www.w3.org/2000/svg">
<path d="M2 22C1.45 22 0.979002 21.804 0.587002 21.412C0.195002 21.02 -0.000664969 20.5493 1.69779e-06 20V2C1.69779e-06 1.45 0.196001 0.979002 0.588001 0.587002C0.980001 0.195002 1.45067 -0.000664969 2 1.69779e-06H12C12.55 1.69779e-06 13.021 0.196002 13.413 0.588002C13.805 0.980002 14.0007 1.45067 14 2V20C14 20.55 13.804 21.021 13.412 21.413C13.02 21.805 12.5493 22.0007 12 22H2ZM7 19.5C7.28334 19.5 7.521 19.404 7.713 19.212C7.905 19.02 8.00067 18.7827 8 18.5C8 18.2167 7.904 17.979 7.712 17.787C7.52 17.595 7.28267 17.4993 7 17.5C6.71667 17.5 6.479 17.596 6.287 17.788C6.095 17.98 5.99934 18.2173 6 18.5C6 18.7833 6.096 19.021 6.288 19.213C6.48 19.405 6.71734 19.5007 7 19.5ZM2 15H12V5H2V15Z" fill="white"/>
</svg>
