<svg width="30" height="30" viewBox="0 0 30 30" fill="none" xmlns="http://www.w3.org/2000/svg">
<rect width="30" height="30" rx="15" fill="white"/>
<path d="M15.8224 7.00098C16.4062 6.99874 16.9899 7.00461 17.5735 7.01858L17.7287 7.02418C17.9079 7.03058 18.0847 7.03858 18.2983 7.04818C19.1494 7.08818 19.7302 7.22258 20.2398 7.42017C20.7678 7.62336 21.2125 7.89855 21.6573 8.34334C22.064 8.74301 22.3787 9.22647 22.5797 9.76009C22.7773 10.2697 22.9116 10.8513 22.9516 11.7024C22.9612 11.9152 22.9692 12.0928 22.9756 12.272L22.9804 12.4272C22.9947 13.0105 23.0008 13.594 22.9988 14.1775L22.9996 14.7743V15.8223C23.0016 16.4061 22.9955 16.9898 22.9812 17.5734L22.9764 17.7286C22.97 17.9078 22.962 18.0846 22.9524 18.2982C22.9124 19.1494 22.7765 19.7302 22.5797 20.2397C22.3794 20.7739 22.0646 21.2578 21.6573 21.6573C21.2573 22.0639 20.7736 22.3787 20.2398 22.5797C19.7302 22.7772 19.1494 22.9116 18.2983 22.9516C18.0847 22.9612 17.9079 22.9692 17.7287 22.9756L17.5735 22.9804C16.9899 22.9947 16.4062 23.0008 15.8224 22.9988L15.2256 22.9996H14.1785C13.5947 23.0016 13.011 22.9955 12.4274 22.9812L12.2722 22.9764C12.0823 22.9696 11.8924 22.9616 11.7026 22.9524C10.8515 22.9124 10.2707 22.7764 9.76032 22.5797C9.22649 22.3791 8.74296 22.0643 8.34359 21.6573C7.93645 21.2575 7.62141 20.7738 7.42044 20.2397C7.22285 19.7302 7.08846 19.1494 7.04846 18.2982C7.03955 18.1084 7.03155 17.9185 7.02446 17.7286L7.02046 17.5734C7.00571 16.9898 6.99905 16.4061 7.00046 15.8223V14.1775C6.99823 13.594 7.0041 13.0105 7.01806 12.4272L7.02366 12.272C7.03006 12.0928 7.03806 11.9152 7.04766 11.7024C7.08766 10.8505 7.22205 10.2705 7.41964 9.76009C7.62073 9.2262 7.93638 8.74288 8.34439 8.34414C8.74349 7.93675 9.22672 7.62142 9.76032 7.42017C10.2707 7.22258 10.8507 7.08818 11.7026 7.04818L12.2722 7.02418L12.4274 7.02018C13.0107 7.00544 13.5942 6.99878 14.1777 7.00018L15.8224 7.00098ZM15.0001 11.0008C14.4701 10.9934 13.9439 11.0913 13.4521 11.2889C12.9603 11.4865 12.5127 11.7799 12.1353 12.1521C11.7579 12.5242 11.4582 12.9676 11.2536 13.4566C11.049 13.9455 10.9437 14.4703 10.9437 15.0003C10.9437 15.5303 11.049 16.0551 11.2536 16.5441C11.4582 17.033 11.7579 17.4764 12.1353 17.8486C12.5127 18.2207 12.9603 18.5141 13.4521 18.7117C13.9439 18.9094 14.4701 19.0073 15.0001 18.9998C16.0609 18.9998 17.0782 18.5784 17.8283 17.8282C18.5784 17.0781 18.9998 16.0607 18.9998 14.9999C18.9998 13.9391 18.5784 12.9217 17.8283 12.1716C17.0782 11.4215 16.0609 11.0008 15.0001 11.0008ZM15.0001 12.6008C15.3188 12.5949 15.6356 12.6526 15.9318 12.7706C16.2281 12.8885 16.4978 13.0643 16.7254 13.2876C16.9529 13.511 17.1337 13.7774 17.2571 14.0714C17.3805 14.3654 17.4441 14.6811 17.4441 14.9999C17.4442 15.3188 17.3807 15.6344 17.2574 15.9285C17.1341 16.2225 16.9534 16.489 16.726 16.7124C16.4985 16.9359 16.2288 17.1117 15.9326 17.2298C15.6364 17.3478 15.3196 17.4056 15.0009 17.3998C14.3644 17.3998 13.7539 17.147 13.3039 16.6969C12.8538 16.2468 12.601 15.6364 12.601 14.9999C12.601 14.3634 12.8538 13.753 13.3039 13.3029C13.7539 12.8528 14.3644 12.6 15.0009 12.6L15.0001 12.6008ZM19.1998 9.80089C18.9418 9.81122 18.6977 9.92101 18.5188 10.1073C18.3398 10.2935 18.2399 10.5418 18.2399 10.8001C18.2399 11.0583 18.3398 11.3066 18.5188 11.4929C18.6977 11.6791 18.9418 11.7889 19.1998 11.7992C19.465 11.7992 19.7194 11.6939 19.9069 11.5063C20.0944 11.3188 20.1998 11.0645 20.1998 10.7993C20.1998 10.534 20.0944 10.2797 19.9069 10.0922C19.7194 9.90464 19.465 9.79929 19.1998 9.79929V9.80089Z" fill="#005375"/>
</svg>
