<svg width="24" height="24" viewBox="0 0 24 24" fill="none" xmlns="http://www.w3.org/2000/svg">
<g clip-path="url(#clip0_808_8625)">
<path d="M23.8184 5.7849C23.8186 5.78544 23.8178 5.78572 23.8176 5.78521L22.905 3.82545C22.7914 3.58393 22.6262 3.37032 22.4209 3.19976C22.2156 3.0292 21.9753 2.90585 21.717 2.83845C18.81 2.04645 15.4755 1.56195 12.0375 1.50195C8.64913 1.55456 5.28017 2.02511 2.00704 2.90295C1.75954 2.97495 1.32754 3.33795 1.09954 3.81645L0.180035 5.79195C0.0620042 6.03506 0.000469972 6.30171 3.51563e-05 6.57195V7.87695L-0.00146484 7.93845C-0.00146484 8.52645 0.475535 9.00345 1.06354 9.00345L1.11304 9.00195H4.89004C5.18768 8.9949 5.47075 8.87169 5.67874 8.65866C5.88672 8.44563 6.00312 8.15968 6.00303 7.86195L6.00004 7.78245V6.50745C6.00015 6.34446 6.04112 6.18409 6.11921 6.04101C6.1973 5.89794 6.31001 5.77672 6.44703 5.68845C8.16129 4.77793 10.0967 4.36684 12.033 4.50195C13.9652 4.37161 15.8955 4.78084 17.6085 5.68395C17.823 5.83245 18.0015 6.13395 18.0015 6.47745V7.78545C17.9914 7.93873 18.0123 8.09248 18.0631 8.23747C18.1138 8.38245 18.1933 8.51569 18.2969 8.62917C18.4004 8.74265 18.5258 8.83404 18.6655 8.89784C18.8053 8.96164 18.9565 8.99654 19.11 9.00045H22.8915L22.938 9.00195C23.2205 9.00195 23.4914 8.88975 23.6911 8.69002C23.8908 8.4903 24.003 8.21941 24.003 7.93695L24.0015 7.87245V6.57045C24.0006 6.29811 23.9383 6.02949 23.8193 5.78458C23.819 5.78408 23.8183 5.78436 23.8184 5.7849Z" fill="white"/>
<path d="M18 12.45C17.0238 11.199 16.4951 9.65683 16.4985 8.07L16.5 7.944C16.5 7.69879 16.3012 7.5 16.056 7.5H15.75C15.3358 7.5 15 7.83579 15 8.25C15 8.66421 14.6642 9 14.25 9H9.75C9.33579 9 9 8.66421 9 8.25C9 7.83579 8.66421 7.5 8.25 7.5H7.995C7.72162 7.5 7.5 7.72162 7.5 7.995L7.5015 8.115C7.50366 9.70819 6.97066 11.2559 5.988 12.51L1.95156 17.4476C1.65953 17.8049 1.5 18.2521 1.5 18.7135V20.5C1.5 21.6046 2.39543 22.5 3.5 22.5H20.5C21.6046 22.5 22.5 21.6046 22.5 20.5V18.7089C22.5 18.2503 22.3424 17.8056 22.0535 17.4493L18 12.45ZM12 19.5C10.8065 19.5 9.66193 19.0259 8.81802 18.182C7.97411 17.3381 7.5 16.1935 7.5 15C7.5 13.8065 7.97411 12.6619 8.81802 11.818C9.66193 10.9741 10.8065 10.5 12 10.5C13.1935 10.5 14.3381 10.9741 15.182 11.818C16.0259 12.6619 16.5 13.8065 16.5 15C16.5 16.1935 16.0259 17.3381 15.182 18.182C14.3381 19.0259 13.1935 19.5 12 19.5Z" fill="white"/>
<path d="M15.0002 15.0005C15.0092 15.4 14.9384 15.7973 14.7918 16.1691C14.6451 16.5408 14.4257 16.8795 14.1464 17.1653C13.8671 17.4511 13.5335 17.6782 13.1652 17.8332C12.7969 17.9883 12.4013 18.0683 12.0017 18.0684C11.6021 18.0685 11.2065 17.9887 10.8381 17.8338C10.4698 17.6789 10.1361 17.452 9.8566 17.1664C9.57714 16.8807 9.35756 16.5421 9.21075 16.1705C9.06395 15.7988 8.99288 15.4015 9.00171 15.002C9.01904 14.2182 9.34255 13.4723 9.90297 12.924C10.4634 12.3757 11.2162 12.0686 12.0002 12.0684C12.7843 12.0682 13.5372 12.3749 14.0979 12.9229C14.6586 13.471 14.9825 14.2167 15.0002 15.0005Z" fill="white"/>
</g>
<defs>
<clipPath id="clip0_808_8625">
<rect width="24" height="24" fill="white"/>
</clipPath>
</defs>
</svg>
