<svg width="34" height="34" viewBox="0 0 34 34" fill="none" xmlns="http://www.w3.org/2000/svg">
<path d="M33.4729 16.0269C32.9119 6.4571 24.2176 -0.918226 14.2034 0.731738C7.30726 1.87021 1.78049 7.46356 0.708124 14.3604C0.0812051 18.3533 0.906134 22.1317 2.7044 25.2502L1.23607 30.7116C0.90611 31.949 2.04443 33.071 3.26527 32.7245L8.64359 31.2396C11.0853 32.675 13.9394 33.5 16.9915 33.5C26.2963 33.5 34.0173 25.2997 33.4729 16.0269ZM25.059 23.1382C24.9105 23.4352 24.729 23.7157 24.498 23.9797C24.0856 24.4252 23.6401 24.7552 23.1452 24.9532C22.6502 25.1677 22.1058 25.2667 21.5284 25.2667C20.687 25.2667 19.7796 25.0687 18.8393 24.6562C17.8824 24.2437 16.9421 23.6992 16.0017 23.0227C15.0448 22.3297 14.1539 21.5543 13.296 20.7128C12.4381 19.8548 11.6792 18.9473 10.9863 18.0068C10.3098 17.0663 9.76545 16.1259 9.3695 15.1854C8.97355 14.2449 8.7756 13.3375 8.7756 12.4795C8.7756 11.9185 8.87458 11.374 9.07255 10.879C9.27053 10.3675 9.58402 9.90553 10.0295 9.49304C10.5574 8.96505 11.1348 8.71756 11.7452 8.71756C11.9762 8.71756 12.2071 8.76705 12.4216 8.86605C12.636 8.96505 12.8341 9.11354 12.9825 9.32804L14.8962 12.034C15.0447 12.2484 15.1602 12.43 15.2262 12.6114C15.3087 12.7929 15.3417 12.9579 15.3417 13.1229C15.3417 13.3209 15.2758 13.519 15.1603 13.7169C15.0448 13.9149 14.8963 14.1129 14.6983 14.3109L14.0714 14.9709C13.9724 15.0699 13.9394 15.1689 13.9394 15.3009C13.9394 15.3669 13.9559 15.4329 13.9724 15.4989C14.0054 15.5649 14.0219 15.6144 14.0384 15.6639C14.1869 15.9444 14.4508 16.2909 14.8138 16.7198C15.1932 17.1488 15.5892 17.5943 16.0182 18.0233C16.4636 18.4688 16.8926 18.8648 17.338 19.2443C17.7669 19.6073 18.1298 19.8548 18.4103 20.0033C18.4598 20.0198 18.5093 20.0528 18.5588 20.0693C18.6248 20.1023 18.6908 20.1023 18.7733 20.1023C18.9218 20.1023 19.0208 20.0528 19.1198 19.9538L19.7466 19.3268C19.9611 19.1123 20.1591 18.9638 20.3406 18.8648C20.5386 18.7493 20.7201 18.6833 20.9345 18.6833C21.0995 18.6833 21.2645 18.7163 21.446 18.7988C21.6274 18.8813 21.8254 18.9803 22.0233 19.1288L24.762 21.0758C24.9765 21.2243 25.1249 21.4058 25.2239 21.6038C25.3064 21.8183 25.3559 22.0162 25.3559 22.2472C25.257 22.5277 25.191 22.8412 25.059 23.1382Z" fill="#005375"/>
</svg>
