<svg width="24" height="24" viewBox="0 0 24 24" fill="none" xmlns="http://www.w3.org/2000/svg">
<path d="M23.9803 11.2923C23.5723 4.33243 17.2491 -1.03144 9.96608 0.168536C4.95073 0.996519 0.931262 5.06441 0.151363 10.0803C-0.304578 12.9842 0.295371 15.7322 1.6032 18.0001L0.535322 21.972C0.295353 22.872 1.12322 23.688 2.01111 23.436L5.92261 22.356C7.69838 23.4 9.77411 24 11.9938 24C18.7609 24 24.3762 18.0361 23.9803 11.2923ZM17.8611 16.4642C17.7531 16.6802 17.6211 16.8842 17.4531 17.0762C17.1531 17.4002 16.8292 17.6402 16.4692 17.7841C16.1093 17.9401 15.7133 18.0121 15.2934 18.0121C14.6815 18.0121 14.0216 17.8682 13.3376 17.5682C12.6417 17.2682 11.9579 16.8722 11.2739 16.3802C10.578 15.8762 9.9301 15.3122 9.30618 14.7002C8.68227 14.0762 8.13031 13.4162 7.62637 12.7322C7.13444 12.0482 6.73851 11.3643 6.45055 10.6803C6.16259 9.9963 6.01862 9.33633 6.01862 8.71235C6.01862 8.30435 6.0906 7.90836 6.23458 7.54837C6.37857 7.17638 6.60656 6.84039 6.93052 6.5404C7.31447 6.1564 7.73438 5.97641 8.17833 5.97641C8.3463 5.97641 8.51425 6.0124 8.67023 6.0844C8.82621 6.1564 8.97022 6.26439 9.07821 6.42039L10.47 8.38833C10.578 8.54433 10.662 8.67633 10.71 8.80833C10.77 8.94032 10.794 9.06032 10.794 9.18032C10.794 9.32431 10.746 9.46833 10.662 9.61233C10.578 9.75632 10.47 9.9003 10.326 10.0443L9.87008 10.5243C9.79809 10.5963 9.77414 10.6683 9.77414 10.7643C9.77414 10.8123 9.78609 10.8603 9.79809 10.9083C9.82208 10.9563 9.83413 10.9923 9.84613 11.0283C9.95411 11.2323 10.1461 11.4843 10.41 11.7963C10.686 12.1082 10.974 12.4322 11.286 12.7442C11.6099 13.0682 11.9219 13.3562 12.2458 13.6322C12.5578 13.8962 12.8217 14.0762 13.0257 14.1842C13.0617 14.1962 13.0977 14.2202 13.1337 14.2322C13.1817 14.2562 13.2297 14.2562 13.2897 14.2562C13.3977 14.2562 13.4697 14.2202 13.5417 14.1482L13.9975 13.6922C14.1535 13.5362 14.2976 13.4282 14.4295 13.3562C14.5735 13.2722 14.7055 13.2242 14.8615 13.2242C14.9815 13.2242 15.1014 13.2482 15.2334 13.3082C15.3654 13.3682 15.5094 13.4402 15.6533 13.5482L17.6451 14.9642C17.8011 15.0722 17.909 15.2042 17.981 15.3482C18.041 15.5042 18.077 15.6482 18.077 15.8162C18.0051 16.0202 17.9571 16.2482 17.8611 16.4642Z" fill="white"/>
</svg>
