<svg width="24" height="24" viewBox="0 0 24 24" fill="none" xmlns="http://www.w3.org/2000/svg">
<path d="M20.5 6.64706C19.8743 6.93529 19.1998 7.12471 18.501 7.21529C19.2161 6.77882 19.7686 6.08706 20.0287 5.25529C19.3542 5.66706 18.6066 5.95529 17.8184 6.12C17.1764 5.41176 16.2744 5 15.2505 5C13.3408 5 11.7806 6.58118 11.7806 8.53294C11.7806 8.81294 11.8131 9.08471 11.87 9.34C8.97706 9.19177 6.40105 7.78353 4.68642 5.65059C4.38576 6.16941 4.21511 6.77882 4.21511 7.42118C4.21511 8.64824 4.82457 9.73529 5.76721 10.3529C5.19025 10.3529 4.65392 10.1882 4.1826 9.94118V9.96588C4.1826 11.6788 5.38528 13.1118 6.97801 13.4329C6.46665 13.5748 5.92981 13.5945 5.40966 13.4906C5.63037 14.1926 6.06263 14.8069 6.64566 15.2471C7.2287 15.6873 7.9332 15.9313 8.66013 15.9447C7.4279 16.9333 5.90048 17.4677 4.32887 17.46C4.05258 17.46 3.77629 17.4435 3.5 17.4106C5.04398 18.4153 6.8805 19 8.84704 19C15.2505 19 18.7691 13.6141 18.7691 8.94471C18.7691 8.78824 18.7691 8.64 18.761 8.48353C19.4436 7.98941 20.0287 7.36353 20.5 6.64706Z" fill="white"/>
</svg>
